<svg width="80" height="80" viewBox="0 0 80 80" fill="none" xmlns="http://www.w3.org/2000/svg">
<circle cx="40" cy="40" r="40" fill="#339710"/>
<path d="M23 25V27.9167H28.8333V39.5833C28.8333 42.6775 30.0625 45.645 32.2504 47.8329C34.4383 50.0208 37.4058 51.25 40.5 51.25C43.5942 51.25 46.5617 50.0208 48.7496 47.8329C50.9375 45.645 52.1667 42.6775 52.1667 39.5833V27.9167H58V25H23ZM49.25 39.5833C49.25 41.904 48.3281 44.1296 46.6872 45.7705C45.0462 47.4115 42.8206 48.3333 40.5 48.3333C38.1794 48.3333 35.9538 47.4115 34.3128 45.7705C32.6719 44.1296 31.75 41.904 31.75 39.5833V27.9167H39.0417V39.5833H41.9583V27.9167H49.25V39.5833Z" fill="white"/>
<path d="M33.2083 57.0833H36.125V60H33.2083V57.0833Z" fill="white"/>
<path d="M27.375 54.1667H30.2917V57.0833H27.375V54.1667Z" fill="white"/>
<path d="M39.0417 54.1667H41.9584V57.0833H39.0417V54.1667Z" fill="white"/>
<path d="M44.875 57.0833H47.7917V60H44.875V57.0833Z" fill="white"/>
<path d="M50.7083 54.1667H53.625V57.0833H50.7083V54.1667Z" fill="white"/>
</svg>
