<svg width="135" height="142" viewBox="0 0 135 142" fill="none" xmlns="http://www.w3.org/2000/svg">
<path fill-rule="evenodd" clip-rule="evenodd" d="M92.4573 76.5791L101.743 72.1388C99.087 74.2244 95.9641 75.6749 92.4573 76.5791ZM77.224 91.998C80.4378 89.8502 83.7326 87.8514 86.5476 85.3149C84.4111 88.632 80.9049 90.4401 77.224 91.998ZM71.2421 75.3683C69.7247 74.1644 70.5063 73.5853 71.1789 73.0179C73.4518 71.0977 76.7205 71.8118 79.847 72.5224C82.1257 73.04 84.5032 73.8413 86.576 75.4894C87.3665 76.1175 87.8627 76.78 86.6829 77.0913C83.4612 77.9407 80.0809 78.3124 76.3293 77.5174C74.542 77.1386 72.7922 76.4634 71.2421 75.3683ZM84.7579 83.8847C83.3833 85.8306 81.2719 87.056 79.2421 88.3424C70.4708 93.9 59.8539 95.9664 48.2352 96.2229C40.4738 96.394 32.5631 95.833 24.5801 95.0025C23.8519 94.9273 23.1105 94.8235 22.5136 95.1146C21.8434 95.442 21.5986 95.8585 22.7283 96.364C23.0063 96.4891 23.4143 96.4229 23.2824 96.8582C22.8284 98.3599 24.1677 98.938 25.3228 99.5418C27.4903 100.675 29.7202 100.925 31.9003 101.36C38.008 102.577 44.1075 103.581 50.0745 103.829C55.6139 104.059 60.9027 103.508 66.1299 102.808C69.4572 102.362 72.8221 101.862 75.4398 100.285C77.1787 99.2378 79.3513 99.0136 81.0703 98.0096C84.3655 96.0846 87.6153 94.1271 90.1768 91.4012C92.2848 89.1573 93.4828 86.3952 93.5886 83.0435C93.623 81.9383 94.1077 81.2656 95.05 80.8784C97.5886 79.8343 100.075 78.6976 102.515 77.5334C106.486 75.6401 109.931 73.0533 113.207 70.3252C118.432 65.974 122.96 61.0457 125.795 54.7563C127.462 51.0598 128.81 47.2416 127.598 42.4704C127.279 41.2143 126.75 40.046 125.528 39.1028C125.002 38.6958 124.511 38.502 123.986 38.708C123.366 38.9522 123.758 39.3352 123.977 39.857C125.482 43.4355 123.992 45.9881 122.834 48.6229C119.644 55.8842 114.108 61.1964 107.959 65.9877C103.253 69.654 98.0707 72.7346 92.3273 75.1155C91.8713 75.3046 91.5101 75.7824 90.8924 74.817C88.7407 71.4536 85.6022 69.1727 82.0272 67.5958C76.5093 65.1612 71.221 64.1933 66.8402 66.7378C64.4861 68.1049 64.2708 70.1139 65.5668 73.0842C68.8672 80.652 76.3124 83.9969 82.7124 83.6006C83.2853 83.5643 83.8579 83.5285 84.4296 83.4927C84.5395 83.6235 84.6486 83.7543 84.7579 83.8847Z" fill="#7ED328"/>
<path fill-rule="evenodd" clip-rule="evenodd" d="M14.6348 90.1197C11.7938 91.6503 8.68218 92.7141 5.17548 93.0921C8.32826 92.1013 11.4816 91.1109 14.6348 90.1197ZM23.6631 105.354C20.3587 102.768 16.7847 100.655 13.2714 98.4348C12.7462 98.103 12.0152 97.937 11.9639 97.1439C11.915 96.3823 12.5983 96.3785 13.0952 96.2923C15.8025 95.8195 17.9828 94.555 20.3665 93.5819C21.8728 92.9678 23.5987 92.6604 25.1119 91.9777C27.4409 90.9258 29.9086 90.0661 32.3597 89.1937C33.6018 88.7513 34.3991 87.6997 36.0323 87.7629C37.6342 87.8244 37.9889 86.7721 37.0709 84.5074C36.6028 83.3515 35.6278 82.2435 34.1766 82.3897C32.9833 82.5101 31.8054 82.7258 30.728 83.0783C23.5976 85.4119 16.5042 87.8071 9.37914 90.1493C7.77996 90.6752 6.10973 91.086 4.4613 91.5288C1.46385 92.3338 1.17469 93.468 2.95211 96.6354C4.33193 99.0942 6.2887 100.787 8.89831 101.998C13.9214 104.332 18.9118 106.786 23.6487 109.896C24.5978 110.52 25.4871 111.249 26.4213 111.903C27.5024 112.66 28.0566 112.51 27.9906 111.36C27.8459 108.812 27.4969 108.324 23.6631 105.354Z" fill="#7ED328"/>
</svg>
