<svg width="19" height="17" viewBox="0 0 19 17" fill="none" xmlns="http://www.w3.org/2000/svg">
<path fill-rule="evenodd" clip-rule="evenodd" d="M0 8.31307C0 8.62798 0.125097 8.92999 0.347773 9.15267C0.570446 9.37534 0.872459 9.50044 1.18737 9.50044H14.9442L9.84565 14.5966C9.73525 14.707 9.64768 14.8381 9.58794 14.9823C9.52819 15.1266 9.49744 15.2812 9.49744 15.4373C9.49744 15.5934 9.52819 15.748 9.58794 15.8922C9.64768 16.0365 9.73525 16.1675 9.84565 16.2779C9.95605 16.3883 10.0871 16.4759 10.2313 16.5356C10.3756 16.5954 10.5302 16.6261 10.6863 16.6261C10.8424 16.6261 10.997 16.5954 11.1413 16.5356C11.2855 16.4759 11.4166 16.3883 11.527 16.2779L18.6512 9.15373C18.7617 9.04343 18.8495 8.9124 18.9093 8.76815C18.9692 8.6239 19 8.46925 19 8.31307C19 8.15689 18.9692 8.00225 18.9093 7.85799C18.8495 7.71374 18.7617 7.58271 18.6512 7.47242L11.527 0.348211C11.304 0.125256 11.0016 0 10.6863 0C10.371 0 10.0686 0.125256 9.84565 0.348211C9.62269 0.571167 9.49744 0.87356 9.49744 1.18887C9.49744 1.50417 9.62269 1.80657 9.84565 2.02952L14.9442 7.1257H1.18737C0.872459 7.1257 0.570446 7.2508 0.347773 7.47348C0.125097 7.69615 0 7.99816 0 8.31307Z" fill="#7ED328"/>
</svg>
