<svg width="19" height="17" viewBox="0 0 19 17" fill="none" xmlns="http://www.w3.org/2000/svg">
<path fill-rule="evenodd" clip-rule="evenodd" d="M19 8.31307C19 8.62798 18.8749 8.92999 18.6522 9.15267C18.4296 9.37534 18.1275 9.50044 17.8126 9.50044H4.05579L9.15435 14.5966C9.26475 14.707 9.35232 14.8381 9.41206 14.9823C9.47181 15.1266 9.50256 15.2812 9.50256 15.4373C9.50256 15.5934 9.47181 15.748 9.41206 15.8922C9.35232 16.0365 9.26475 16.1675 9.15435 16.2779C9.04395 16.3883 8.91289 16.4759 8.76865 16.5356C8.62441 16.5954 8.46982 16.6261 8.31369 16.6261C8.15757 16.6261 8.00297 16.5954 7.85873 16.5356C7.71449 16.4759 7.58343 16.3883 7.47304 16.2779L0.348834 9.15373C0.238258 9.04343 0.150529 8.9124 0.0906699 8.76815C0.0308113 8.6239 0 8.46925 0 8.31307C0 8.15689 0.0308113 8.00225 0.0906699 7.85799C0.150529 7.71374 0.238258 7.58271 0.348834 7.47242L7.47304 0.348211C7.69599 0.125256 7.99839 0 8.31369 0C8.629 0 8.93139 0.125256 9.15435 0.348211C9.37731 0.571167 9.50256 0.87356 9.50256 1.18887C9.50256 1.50417 9.37731 1.80657 9.15435 2.02952L4.05579 7.1257H17.8126C18.1275 7.1257 18.4296 7.2508 18.6522 7.47348C18.8749 7.69615 19 7.99816 19 8.31307Z" fill="#7ED328"/>
</svg>
