<svg width="32" height="32" viewBox="0 0 32 32" fill="none" xmlns="http://www.w3.org/2000/svg">
<path d="M27.4358 6.79979L14.7363 19.4979C15.1129 20.037 15.4331 20.6192 15.6902 21.2363L18.8589 28.8651L27.4358 6.79813V6.79979ZM12.5017 17.2635L25.2028 4.56374L3.13342 13.1397L10.7631 16.3097C11.3755 16.5636 11.9584 16.8834 12.5017 17.2635ZM31.7756 4.22203L21.777 29.9433C21.1466 31.5689 19.3267 32.4033 17.7142 31.8078C17.3214 31.6626 16.9628 31.4378 16.6611 31.1475C16.3593 30.8572 16.1208 30.5077 15.9606 30.1208L12.792 22.492C12.1754 21.0053 10.994 19.8241 9.50721 19.2076L1.87591 16.0393C0.29325 15.3807 -0.430064 13.5511 0.263388 11.9487C0.433422 11.5572 0.679278 11.2031 0.986785 10.9071C1.29429 10.611 1.65737 10.3787 2.05508 10.2235L27.7792 0.222671C28.3381 -0.00255547 28.951 -0.0584483 29.5415 0.0619484C30.1319 0.182345 30.674 0.473715 31.1001 0.899795C31.5262 1.32587 31.8176 1.86785 31.938 2.45827C32.0585 3.04869 32.0026 3.66147 31.7773 4.22037L31.7756 4.22203Z" fill="white"/>
</svg>
