<svg width="150" height="153" viewBox="0 0 150 153" fill="none" xmlns="http://www.w3.org/2000/svg">
<g filter="url(#filter0_d_30_94)">
<path fill-rule="evenodd" clip-rule="evenodd" d="M90.051 85.472C90.2697 85.2106 90.3971 84.9948 90.5256 84.7584C90.7368 84.3708 90.8857 83.9598 91.0798 83.5689C91.3754 82.9735 91.5286 82.3309 91.7386 81.709C91.807 81.506 91.8914 81.2887 91.9189 81.0608C91.9453 80.8404 91.9821 80.6159 92.0627 80.4033C92.0982 80.3079 91.9478 80.3498 91.9012 80.4403C91.8809 80.4798 91.8623 80.5245 91.8495 80.5807C91.7366 81.0799 91.5351 81.5552 91.3792 82.0428C91.2125 82.5647 91.0071 83.0706 90.7859 83.5674C90.6682 83.8323 90.5579 84.109 90.4468 84.3726C90.3092 84.6993 90.0964 85.0149 90.051 85.472ZM81.0535 54.2095C81.1683 54.2948 81.1168 54.4371 81.2848 54.4983C81.4515 54.5588 81.6043 54.535 81.7608 54.5623C81.9796 54.6001 82.1572 54.501 82.2872 54.3558C82.3056 54.3353 82.3227 54.3218 82.3391 54.3135C82.4777 54.2429 82.6219 54.2983 82.7139 54.1729C82.9625 53.8342 82.5162 53.5384 82.1155 53.6647C81.7403 53.783 81.3713 53.9122 81.0535 54.2095ZM62.1671 96.2715C61.5062 96.1172 60.0537 96.0577 59.1239 96.2209C58.889 96.2622 58.9433 96.5691 59.1362 96.4288C59.2209 96.3671 59.3781 96.4161 59.4905 96.3789C59.6521 96.3255 59.699 96.5381 59.8611 96.5016C60.0292 96.4636 60.2364 96.5353 60.3794 96.4643C60.5758 96.367 60.7352 96.5044 60.9132 96.4648C61.081 96.4276 61.2745 96.3718 61.4242 96.4217C61.6 96.4802 61.7692 96.3025 61.9101 96.4354C62.1242 96.6373 62.526 96.448 62.8191 96.4734C62.9293 96.483 63.0398 96.4855 63.1507 96.457C63.3064 96.4167 63.2139 96.2269 63.0547 96.2042C63.0083 96.1976 62.9615 96.1945 62.9151 96.1927C62.7495 96.1864 62.6887 96.0517 62.5566 95.9517C62.5493 95.9462 62.5408 95.9415 62.5308 95.9378C62.5023 95.9271 62.4613 95.9132 62.4417 95.9366C62.3525 96.0422 62.266 96.1501 62.1671 96.2715ZM64.2597 100.631C63.7579 100.456 63.2617 100.626 62.7686 100.567C62.2579 100.506 61.7459 100.507 61.2344 100.509C60.8037 100.511 60.3732 100.531 59.9446 100.547C59.8072 100.553 59.7368 100.732 59.8733 100.716C60.0221 100.698 60.166 100.731 60.3092 100.77C60.7588 100.895 61.3087 100.89 61.7752 100.901C62.0702 100.908 62.4009 100.942 62.6946 100.971C62.741 100.975 62.7884 100.984 62.8379 100.997C62.8933 101.011 62.9514 101.011 63.0107 101.006C63.2131 100.991 63.4361 100.739 63.6328 100.789C63.6609 100.797 63.6932 100.808 63.7306 100.822C63.8296 100.86 63.8732 100.825 63.9254 100.732C63.9419 100.703 63.9906 100.677 64.0237 100.671C64.0893 100.66 64.1746 100.646 64.2597 100.631ZM63.5045 80.418C64.487 80.1907 65.4071 79.8293 66.3155 79.4418C67.4094 78.9755 68.4905 78.4784 69.5808 78.0029C69.7301 77.9379 69.5996 77.8032 69.447 77.8601C67.471 78.5971 65.5596 79.4529 63.6315 80.2679C63.5775 80.2905 63.5462 80.3669 63.5045 80.418ZM51.2072 35.3201C50.9582 35.3458 50.725 35.3517 50.4999 35.3978C50.2788 35.4427 50.0575 35.4069 49.8326 35.4427C49.5315 35.4908 49.2485 35.6074 48.9426 35.6299C48.336 35.6744 47.7476 35.8214 47.1544 35.951C46.2247 36.1542 45.3488 36.5099 44.4599 36.8304C44.3764 36.8605 44.4176 36.9822 44.5042 36.9626C46.7256 36.4583 48.8975 35.7783 51.1504 35.4447C51.1673 35.4422 51.1768 35.389 51.2072 35.3201ZM35.4926 92.0178C35.4141 92.1823 35.1773 92.2907 35.029 92.3965C34.9687 92.4395 34.9036 92.4756 34.8203 92.4571C34.7883 92.45 34.76 92.4322 34.7339 92.4125C34.5165 92.249 34.2949 92.0195 33.9785 91.9212C33.8062 91.8675 33.8729 92.1184 34.0131 92.2321C34.0712 92.2793 34.1307 92.3221 34.1949 92.3535C34.3178 92.4135 34.3798 92.4764 34.3719 92.6129C34.3698 92.6506 34.4034 92.6789 34.4321 92.7034C34.6657 92.9036 34.8824 93.1626 35.1577 93.2662C35.4809 93.3878 35.6895 93.6214 35.9463 93.8061C36.2132 93.9981 36.4598 94.2186 36.7153 94.4266C36.7825 94.4813 36.8476 94.5389 36.9181 94.5889C36.9666 94.6235 37.0373 94.5843 37.0788 94.5415C37.0812 94.539 37.0836 94.5365 37.086 94.5339C37.1437 94.4725 37.0927 94.3915 37.0139 94.3619C36.8404 94.2967 36.8444 94.2529 36.8072 94.026C36.7835 93.8809 36.914 93.9063 36.9393 93.844C37.0099 93.6716 36.8157 93.6083 36.7755 93.4882C36.7702 93.4725 36.7656 93.4559 36.7662 93.4393C36.7724 93.2779 36.7672 93.2889 36.6556 93.4057C36.6305 93.4319 36.6033 93.4547 36.5717 93.4695C36.4647 93.5197 36.3721 93.4045 36.307 93.306C36.2432 93.2093 36.1849 93.2193 35.9894 93.2826C35.9551 93.2937 35.9127 93.3122 35.9168 93.348C35.9316 93.4746 35.8518 93.5191 35.7969 93.404C35.7797 93.3679 35.7843 93.3183 35.8304 93.2405C35.8432 93.2189 35.8374 93.1862 35.8229 93.1499C35.7667 93.0082 35.5612 93.0136 35.5125 92.8692C35.4798 92.7717 35.5036 92.6855 35.5288 92.6026C35.5538 92.52 35.6256 92.4523 35.7118 92.4485C35.8001 92.4446 35.8287 92.3313 35.7428 92.3108C35.6896 92.2981 35.6284 92.3114 35.5804 92.2939C35.5312 92.2759 35.5196 92.2155 35.5125 92.1636C35.5078 92.129 35.5016 92.0836 35.4926 92.0178ZM46.3961 83.866C46.6421 83.5891 47.0155 83.5235 47.2989 83.309C47.6468 83.0455 48.016 82.8121 48.3697 82.5561C48.6714 82.3374 48.982 82.1355 49.2686 81.8921C49.5625 81.6426 49.9092 81.4593 50.2197 81.224C50.5409 80.9805 50.8549 80.7207 51.199 80.5101C51.392 80.392 51.5877 80.2849 51.7649 80.1405C51.9648 79.9774 52.1701 79.8094 52.3994 79.6985C52.6326 79.5856 52.7518 79.2832 53.0713 79.3142C53.1484 79.3218 53.1983 79.2132 53.2298 79.1352C53.2453 79.0961 53.2396 79.0123 53.2477 79.0117C53.4599 78.9966 53.5869 78.8491 53.7377 78.7205C53.8167 78.6531 53.8047 78.4951 53.7175 78.5515C53.2186 78.8736 52.6993 79.1641 52.2034 79.4906C51.8572 79.7183 51.4767 79.9465 51.1429 80.1922C50.9369 80.3439 50.7463 80.517 50.5501 80.6726C50.1801 80.9659 49.7872 81.2345 49.4092 81.5095C48.7802 81.967 48.1679 82.4495 47.5284 82.8933C47.1174 83.1785 46.4452 83.3682 46.3961 83.866ZM23.9 58.2234C23.9294 58.088 23.9884 57.9582 23.9713 57.8395C23.9619 57.7742 23.8925 57.7367 23.9391 57.6313C24.1275 57.2045 24.3152 56.7746 24.4559 56.3308C24.528 56.1039 24.6636 55.8937 24.6516 55.6352C24.6191 54.9432 24.6039 54.2502 24.5842 53.5578C24.5824 53.4927 24.5422 53.4272 24.5971 53.3604C24.6735 53.2672 24.612 53.1607 24.6022 53.0633C24.5872 52.9141 24.4604 52.934 24.4237 53.0794C24.2581 53.7353 24.1588 54.3783 24.0682 55.022C23.9687 55.7303 23.8791 56.4403 23.8047 57.1515C23.7708 57.4751 23.702 57.7899 23.643 58.1078C23.6309 58.1741 23.7108 58.2216 23.7781 58.2222C23.817 58.2226 23.8563 58.223 23.9 58.2234ZM64.6455 53.7763C64.8387 53.8876 64.9293 53.6876 65.0924 53.685C65.2538 53.6824 65.4174 53.6423 65.5824 53.595C66.2053 53.4166 66.8444 53.2925 67.4785 53.1535C67.9359 53.0536 68.4015 52.9645 68.8458 52.8392C69.291 52.7136 69.7513 52.6503 70.1879 52.5009C70.3765 52.4365 70.5758 52.4084 70.7723 52.3709C71.2002 52.2893 71.3411 51.6816 70.914 51.7678C70.4771 51.856 70.0465 51.9772 69.6155 52.0929C69.3149 52.1738 69.0233 52.2927 68.7194 52.3528C68.1202 52.4709 67.5486 52.6833 66.9743 52.8738C66.28 53.1043 65.586 53.3376 64.8888 53.5594C64.7575 53.6015 64.6868 53.6596 64.6455 53.7763ZM56.8673 97.238C57.1491 97.206 57.4086 97.3085 57.678 97.3611C57.9966 97.4232 58.3248 97.4344 58.6455 97.4878C58.8682 97.525 59.1339 97.41 59.3547 97.3633C59.7438 97.2809 60.1418 97.2987 60.545 97.3241C60.5993 97.3275 60.6457 97.3645 60.6613 97.4166C60.6624 97.4205 60.6636 97.4244 60.6647 97.4282C60.6802 97.4803 60.7299 97.5146 60.7841 97.5104C60.7933 97.5097 60.8024 97.509 60.8115 97.5083C60.8587 97.5047 60.8943 97.4625 60.8919 97.4152C60.8901 97.3778 60.9143 97.3396 60.9504 97.35C61.0029 97.365 61.0395 97.426 61.088 97.4543C61.1419 97.4859 61.1699 97.4067 61.1386 97.3525C61.1142 97.3103 61.1202 97.258 61.1533 97.2222C61.3143 97.0482 61.3375 97.0585 61.5783 97.1811C61.6224 97.2035 61.6585 97.2104 61.6917 97.1829C61.7053 97.1716 61.7206 97.1555 61.7301 97.1406C61.7891 97.0484 61.7997 96.9536 61.9092 96.9549C61.9109 96.9549 61.9126 96.9549 61.9144 96.9549C62.0606 96.9558 61.9961 96.7812 61.8506 96.766C61.6099 96.7409 61.3733 96.7971 61.1387 96.7924C60.7748 96.785 60.4118 96.7506 60.0448 96.7667C59.6901 96.7823 59.3333 96.7937 58.9803 96.7934C58.5823 96.7927 58.1833 96.7355 57.7833 96.7812C57.6453 96.7969 57.4908 96.8549 57.3729 96.8129C57.2152 96.7567 57.0741 96.7859 56.9259 96.7964C56.6725 96.8139 56.6454 96.9098 56.8263 97.0881C56.857 97.1184 56.8742 97.164 56.8673 97.238ZM45.3092 104.591C45.344 104.709 45.4238 104.759 45.5271 104.786C45.9629 104.9 46.3828 105.07 46.8052 105.218C47.5666 105.484 48.3397 105.697 49.1174 105.897C50.4457 106.238 51.7872 106.522 53.1448 106.722C53.7249 106.807 54.3071 106.884 54.891 106.935C55.5157 106.99 56.1449 106.996 56.7701 107.047C57.3701 107.097 57.9699 107.061 58.5694 107.082C59.0732 107.1 59.5756 107.006 60.0806 107.072C60.1812 107.085 60.288 107.056 60.3913 107.042C60.4107 107.039 60.4305 107.038 60.4504 107.036C60.5899 107.026 60.6392 106.862 60.5009 106.883C60.1811 106.932 59.8512 106.913 59.5394 106.891C58.7904 106.838 58.0425 106.875 57.2951 106.844C56.8956 106.828 56.4855 106.85 56.0981 106.799C55.2257 106.684 54.3473 106.63 53.4747 106.51C52.3014 106.349 51.1473 106.1 49.9822 105.906C49.7059 105.859 49.4636 105.719 49.1961 105.675C48.6057 105.579 48.022 105.452 47.4635 105.246C47.04 105.09 46.5931 105.026 46.173 104.842C45.9133 104.729 45.6177 104.616 45.3092 104.591ZM39.7603 30.1929C39.8777 30.1781 39.9663 30.0602 40.0015 29.9473C40.0059 29.9331 40.0104 29.9191 40.0148 29.9051C40.0363 29.8357 40.0822 29.7522 40.1496 29.779C40.2012 29.7995 40.245 29.8537 40.2924 29.8905C40.3922 29.9681 40.4055 29.849 40.3778 29.7256C40.3741 29.7094 40.3764 29.6909 40.3885 29.6687C40.4579 29.5443 40.5845 29.5127 40.7002 29.4657C40.76 29.4415 40.8262 29.4381 40.8719 29.4836C40.938 29.5492 41.0065 29.4759 41.0321 29.3864C41.0524 29.3153 41.0954 29.2573 41.1888 29.2298C41.5013 29.1382 41.7639 28.8972 42.1117 28.914C42.3144 28.9235 42.5008 28.6483 42.6893 28.5731C42.7812 28.5364 42.8818 28.5152 42.9725 28.4806C43.6086 28.2374 44.2424 27.9847 44.8909 27.7793C45.752 27.5067 46.6166 27.2325 47.4976 27.0402C48.1052 26.9075 48.707 26.7165 49.3366 26.6877C49.4669 26.6819 49.3738 26.5529 49.2435 26.559C46.8938 26.6695 44.7136 27.4031 42.5906 28.3566C42.4968 28.3987 42.4226 28.317 42.342 28.2533C42.3142 28.2313 42.2693 28.2349 42.2375 28.2505C42.0823 28.3271 41.929 28.4173 41.7638 28.4656C41.6822 28.4894 41.6162 28.5217 41.5662 28.563C41.4092 28.6926 41.3258 28.9255 41.1384 29.005C41.1295 29.0088 41.1207 29.0125 41.112 29.0162C40.9863 29.0695 40.8569 28.9373 40.7298 28.9871C40.5592 29.0543 40.3652 29.0882 40.2224 29.1992C40.1126 29.2847 39.8957 29.3619 39.7703 29.4224C39.6864 29.4629 39.6085 29.5388 39.5227 29.575C39.4135 29.6212 39.2644 29.6283 39.268 29.817C39.2717 30.0071 39.1308 30.0796 38.9471 30.0235C38.9345 30.0196 38.9259 30.0106 38.9246 29.9975C38.9213 29.9654 38.8693 29.946 38.8395 29.9584C38.7445 29.9981 38.615 29.975 38.5719 30.0854C38.5663 30.0998 38.5642 30.1161 38.5696 30.1306C38.5754 30.1461 38.5857 30.1536 38.5984 30.157C38.718 30.1891 38.6571 30.2826 38.55 30.345C38.3507 30.4611 38.1468 30.5856 37.9263 30.6641C37.8883 30.6776 37.8555 30.6929 37.8266 30.7102C37.7051 30.7826 37.8226 30.8929 37.9585 30.8538C38.0701 30.8218 38.1611 30.6876 38.2689 30.6448C38.2826 30.6394 38.2985 30.6347 38.317 30.6309C38.4609 30.6014 38.5391 30.6813 38.637 30.7486C38.6585 30.7636 38.679 30.7586 38.6908 30.7446C38.7064 30.7261 38.697 30.7037 38.6844 30.683C38.6336 30.5994 38.6662 30.4859 38.7549 30.4447C39.0352 30.3146 39.3027 30.17 39.595 30.0794C39.6736 30.0551 39.7519 30.1111 39.7603 30.1929ZM44.7268 31.4208C45.1702 31.501 45.5354 31.3293 45.9123 31.2864C46.2357 31.2496 46.5653 31.1549 46.889 31.0784C47.2388 30.9957 47.5967 30.9838 47.9401 30.9015C48.4474 30.7796 48.952 30.6548 49.4722 30.604C49.61 30.5907 49.768 30.612 49.8813 30.5513C50.1859 30.3879 50.5175 30.4465 50.8339 30.3956C51.1511 30.3446 51.4495 30.206 51.7799 30.2128C51.8672 30.2146 51.9274 30.2742 52.0489 30.2355C52.3819 30.1302 52.7353 30.1233 53.0825 30.0768C53.4146 30.0322 53.7721 29.9057 54.1071 29.903C54.1219 29.9028 54.1367 29.9025 54.1515 29.902C54.3917 29.8937 54.4493 29.7633 54.2116 29.7276C53.6227 29.6386 53.0248 29.6068 52.4303 29.6388C51.2675 29.7011 50.1197 29.8924 48.9854 30.1463C48.7038 30.2093 48.4156 30.2277 48.1417 30.3019C47.2071 30.5549 46.2769 30.8255 45.3505 31.1071C45.1462 31.1694 44.9315 31.2471 44.7268 31.4208ZM71.0812 28.6951C71.0368 28.5165 70.9436 28.4622 70.8346 28.4431C70.7582 28.4296 70.6829 28.4674 70.6339 28.5276C70.5515 28.6288 70.3944 28.6323 70.2669 28.6597C70.1044 28.6946 69.9459 28.8465 69.7338 28.7872C69.5134 28.7257 69.2588 28.7869 69.0156 28.8145C68.9571 28.8212 68.9019 28.8651 68.9332 28.9149C68.9886 29.0033 69.1263 29.106 69.2299 29.0941C69.3404 29.0815 69.4479 29.0783 69.545 29.1298C69.614 29.1664 69.7062 29.1693 69.7555 29.1086C69.7911 29.0649 69.8516 29.0521 69.9064 29.0658C70.071 29.1068 70.2389 29.0668 70.4059 29.0499C70.4118 29.0493 70.4176 29.0489 70.4234 29.0486C70.737 29.0337 71.2096 28.9096 71.5136 28.9879C71.687 29.0329 71.8888 28.9722 72.0775 28.953C72.2775 28.9328 72.4767 28.858 72.6641 28.8414C72.8531 28.8246 73.035 28.7502 73.2237 28.7643C73.4214 28.7792 73.6292 28.8584 73.8109 28.7515C73.9377 28.6771 74.0599 28.6621 74.1858 28.6761C74.308 28.6897 74.4195 28.6164 74.5286 28.5597C74.6309 28.5067 74.7489 28.558 74.8689 28.6224C74.9136 28.6464 74.9658 28.6041 74.9606 28.5536C74.9588 28.5358 74.9646 28.5241 74.9795 28.5141C75.0508 28.4665 75.0948 28.5999 75.1694 28.564C75.3922 28.4566 75.6255 28.321 75.8696 28.3532C76.1437 28.3897 76.3829 28.2809 76.6394 28.2551C77.6479 28.154 78.6572 28.0731 79.6695 28.0267C79.7384 28.0236 79.8217 27.987 79.8738 28.0139C80.1842 28.1741 80.5017 28.0573 80.8169 28.064C81.157 28.0711 81.5042 28.0033 81.8295 28.045C82.2781 28.1028 82.7213 28.154 83.1577 28.1147C83.231 28.1081 83.2602 28.1637 83.297 28.2274C83.3058 28.2424 83.3203 28.2366 83.3377 28.2352C83.6012 28.2136 83.8727 28.1211 84.053 28.2111C84.0633 28.2162 84.0735 28.221 84.0837 28.2254C84.2444 28.2951 84.3321 28.0016 84.1571 28.0116C84.0754 28.0163 83.9867 27.9565 83.9171 27.9133C83.8999 27.9027 83.8811 27.8938 83.8614 27.8857C83.7067 27.8218 83.4796 27.8468 83.3175 27.8887C83.2492 27.9064 83.174 27.8874 83.0854 27.796C83.0422 27.7515 82.9868 27.7466 82.9442 27.7677C82.6281 27.9252 82.3054 27.7843 81.9894 27.7768C81.8719 27.774 81.7461 27.7761 81.6287 27.7553C81.4013 27.7149 81.1377 27.6574 80.9084 27.685C80.8207 27.6956 80.7341 27.6932 80.6465 27.6799C80.6091 27.6742 80.58 27.6369 80.5748 27.5994C80.5663 27.5386 80.5016 27.5107 80.4467 27.538C80.3935 27.5645 80.3403 27.591 80.2868 27.6176C80.2124 27.6547 80.1244 27.6436 80.049 27.6088C79.9559 27.5658 79.8544 27.5436 79.751 27.5249C79.7002 27.5156 79.6484 27.5352 79.6158 27.5752C79.5712 27.63 79.4932 27.6408 79.424 27.6259C79.3141 27.6023 79.2018 27.6266 79.0927 27.6442C78.9572 27.6661 78.8326 27.5592 78.6773 27.6707C78.5793 27.7412 78.4162 27.7213 78.272 27.7271C78.2375 27.7285 78.2024 27.7231 78.1745 27.7028C78.1093 27.6552 78.0524 27.587 77.9652 27.5522C77.931 27.5386 77.9021 27.5703 77.9202 27.6024C77.9446 27.6454 77.8781 27.7249 77.8286 27.7262C77.711 27.7294 77.6127 27.805 77.5022 27.8093C77.3598 27.8147 77.2179 27.8282 77.0761 27.844C76.8312 27.8711 76.4791 27.764 76.3342 27.9633C76.2192 28.1217 76.1501 27.8316 76.0308 27.8852C76.0163 27.8917 76.009 27.9222 76.0088 27.938C76.0083 27.9691 75.9815 27.9503 75.9506 27.9535C75.6456 27.9851 75.3589 28.0148 75.0734 28.0445C75.0336 28.0486 74.9768 28.0594 74.9779 28.0193C74.9791 27.9782 74.9981 27.9157 74.9175 27.9309C74.7456 27.9494 74.8972 28.1499 74.8148 28.2163C74.7692 28.2531 74.701 28.2197 74.6997 28.1612C74.6993 28.1457 74.698 28.1306 74.6903 28.1186C74.67 28.0867 74.6196 28.0988 74.5934 28.126C74.5844 28.1353 74.5763 28.1457 74.5683 28.1566C74.4998 28.2505 74.4722 28.1155 74.3621 28.0782C74.2426 28.0443 74.217 28.0962 74.1861 28.1354C74.1573 28.1721 74.1276 28.2065 74.0964 28.2372C73.8878 28.4425 73.4784 28.3227 73.1934 28.3895C73.0254 28.4287 72.8361 28.3955 72.6782 28.4539C72.168 28.642 71.6293 28.5882 71.0812 28.6951ZM30.949 34.6496C30.8921 34.4823 31.01 34.3656 31.1114 34.3007C31.7538 33.8893 32.3234 33.3801 32.9516 32.9479C33.2819 32.7206 33.6122 32.4642 33.9085 32.1789C34.1432 31.953 34.4522 31.8287 34.6959 31.6063C34.958 31.367 35.2826 31.2051 35.5634 30.9822C35.8003 30.7943 36.0994 30.6964 36.3488 30.5109C36.71 30.2419 37.0957 30.0044 37.4829 29.7732C37.7305 29.6253 37.9632 29.4379 38.2573 29.3847C38.3347 29.3708 38.3669 29.3134 38.4216 29.2807C38.6557 29.1406 38.8849 28.9945 39.1376 28.8821C39.6661 28.647 40.1719 28.3606 40.7034 28.1336C41.0894 27.969 41.4634 27.7822 41.8433 27.6066C42.2091 27.4378 42.5784 27.2761 42.9506 27.1221C43.823 26.7611 44.7108 26.4402 45.6192 26.1836C46.3298 25.9829 47.0533 25.8404 47.7846 25.7203C48.3772 25.6232 48.9689 25.5081 49.5653 25.4908C50.0439 25.477 50.5231 25.3936 50.9939 25.4229C51.4378 25.4507 51.8864 25.4543 52.3281 25.4706C53.351 25.5087 54.3689 25.5884 55.3826 25.7066C55.9794 25.7761 56.5788 25.8589 57.1747 25.9188C57.8735 25.9891 58.5594 26.138 59.2578 26.2103C59.6665 26.2528 60.0844 26.3514 60.4967 26.4211C60.8959 26.4887 61.283 26.6114 61.6863 26.6539C62.0891 26.6965 62.4855 26.8012 62.877 26.8834C62.9644 26.9018 63.0541 26.9157 63.1447 26.9292C63.7 27.0122 64.3 27.2409 64.853 27.338C65.1361 27.3877 65.4252 27.4581 65.7081 27.4901C65.9999 27.5232 66.2964 27.5648 66.5841 27.6054C67.1684 27.6883 67.7569 27.7148 68.3379 27.7956C68.6927 27.845 69.0358 27.7837 69.3847 27.8014C70.0488 27.835 70.721 27.7911 71.3845 27.6915C71.6502 27.6516 71.9213 27.6326 72.186 27.674C72.3877 27.7053 72.5228 27.5481 72.7154 27.5459C73.0269 27.5425 73.3378 27.4869 73.6495 27.4597C73.6816 27.4568 73.7131 27.4535 73.7428 27.4473C73.8496 27.4251 73.9883 27.3925 74.0799 27.4518C74.1155 27.4749 74.1757 27.4955 74.1809 27.4534C74.1818 27.4455 74.1798 27.4365 74.1771 27.4271C74.1626 27.3775 74.2068 27.3478 74.257 27.3358C74.36 27.311 74.4671 27.2837 74.5839 27.3314C74.7214 27.3873 74.81 27.2387 74.9517 27.2421C74.9735 27.2426 74.9951 27.2418 75.0167 27.2399C75.565 27.1915 76.1967 27.0728 76.7269 26.9247C76.8688 26.8851 77.0241 26.874 77.1702 26.9475C77.3807 27.0539 77.6716 26.821 77.9045 26.7836C78.2561 26.7273 78.62 26.7939 78.9682 26.7861C79.7302 26.7691 80.4953 26.6944 81.2657 26.8068C81.651 26.863 82.0676 26.8098 82.4612 26.8594C83.3461 26.9714 84.24 27.0231 85.1111 27.242C85.4711 27.3323 85.8515 27.3424 86.2103 27.4359C86.9718 27.6341 87.7344 27.8317 88.4794 28.0882C88.6187 28.1363 88.7668 28.158 88.8756 28.283C88.9926 28.4172 89.1673 28.2995 89.3223 28.3583C89.506 28.4277 89.6378 28.5794 89.8486 28.6206C89.9648 28.6432 90.116 28.7517 90.2508 28.7783C90.689 28.8647 91.0236 29.1919 91.4636 29.2679C91.6299 29.2968 91.7543 29.4387 91.8824 29.5301C92.3175 29.8407 92.871 29.9351 93.2633 30.3043C93.4782 30.5066 93.7298 30.6265 94.0017 30.7011C94.0891 30.7252 94.1816 30.746 94.2162 30.8114C94.3364 31.0402 94.5812 31.1048 94.7673 31.2395C94.9661 31.3836 95.2132 31.457 95.4023 31.6314C95.5937 31.8077 95.7806 32.024 96.0118 32.1144C96.4257 32.2766 96.7169 32.5853 97.0456 32.8483C97.21 32.9798 97.4454 33.053 97.4834 33.3235C97.5036 33.4656 97.776 33.2712 97.7897 33.5042C97.7978 33.6425 97.8988 33.6862 98.032 33.7138C98.1538 33.7389 98.136 33.9641 98.2729 33.9643C98.4078 33.9649 98.5826 34.0197 98.5724 34.0925C98.5466 34.2752 98.7968 34.1995 98.7642 34.3483C98.7616 34.3602 98.7747 34.382 98.7867 34.3895C99.1798 34.6384 99.3899 35.0731 99.7719 35.3424C99.9952 35.4997 100.18 35.7343 100.329 35.9675C100.472 36.1911 100.655 36.3813 100.826 36.5708C101.124 36.9008 101.31 37.3064 101.609 37.6304C101.614 37.6358 101.618 37.6419 101.622 37.6484C101.716 37.8344 101.915 38.0691 102.025 38.2461C102.139 38.4268 102.209 38.6304 102.33 38.8063C102.406 38.9172 102.469 39.0438 102.541 39.1719C102.793 39.6234 103.023 40.084 103.214 40.5597C103.477 41.2136 103.775 41.8639 103.828 42.5813C103.838 42.729 103.991 42.7396 104.014 42.8677C104.15 43.6131 104.362 44.3416 104.363 45.1139C104.364 45.4373 104.482 45.7726 104.485 46.1041C104.491 46.7698 104.587 47.4295 104.496 48.1049C104.442 48.5058 104.449 48.9279 104.405 49.3387C104.311 50.1916 104.186 51.0399 103.891 51.8501C103.671 52.456 103.463 53.0667 103.194 53.6556C103.102 53.8581 102.943 54.0195 102.877 54.2134C102.808 54.4143 102.706 54.5754 102.573 54.7237C102.468 54.8412 102.529 55.0141 102.394 55.1298C102.289 55.2201 102.167 55.3233 102.18 55.5183C102.186 55.6076 102.045 55.7076 101.969 55.802C101.86 55.9373 101.767 56.0929 101.634 56.1999C101.467 56.335 101.377 56.7119 101.231 56.8699C101.211 56.8921 101.191 56.9148 101.175 56.9389C101.086 57.067 100.979 57.183 100.881 57.3043L100.551 57.7089C100.453 57.8301 100.313 57.9371 100.264 58.0759C100.168 58.3441 99.9389 58.5115 99.8118 58.7594C99.6724 59.0318 99.4378 59.2586 99.2301 59.4922C99.0488 59.6961 99.0254 59.9835 98.819 60.1792C98.6191 60.3694 98.4014 60.5808 98.3033 60.8274C98.1922 61.1059 97.9302 61.2872 97.8606 61.5479C97.7777 61.8587 97.4972 62.0022 97.3894 62.2631C97.1545 62.8324 96.747 63.3075 96.505 63.8609C96.1994 64.5593 95.8091 65.2154 95.5362 65.9317C95.3586 66.398 95.1951 66.8718 95.0171 67.3379C94.8408 67.7998 94.7567 68.3 94.661 68.789C94.5412 69.4006 94.4917 70.0207 94.471 70.6453C94.4506 71.2723 94.5254 71.8947 94.5149 72.5193C94.5101 72.8039 94.5579 73.0832 94.5442 73.37C94.5294 73.6792 94.6353 73.9938 94.6219 74.3032C94.6195 74.3591 94.6182 74.4149 94.6177 74.4707C94.6069 75.8998 94.7029 77.3461 94.5936 78.771C94.5746 79.0192 94.5598 79.2674 94.5583 79.5161C94.5553 79.9972 94.4182 80.4772 94.3487 80.9584C94.2334 81.758 94.0388 82.54 93.8511 83.3243C93.6787 84.0456 93.4429 84.7455 93.1778 85.4365C92.9876 85.9334 92.7728 86.4211 92.5918 86.9213C92.451 87.3104 92.1572 87.6715 91.9817 88.0462C91.9528 88.1081 91.9242 88.1703 91.8945 88.2318C91.7264 88.5804 91.5555 88.9546 91.303 89.2479C91.2329 89.3294 91.1573 89.4065 91.0853 89.4846C90.9303 89.6529 90.9607 89.8978 90.7767 90.0546C90.6076 90.1987 90.4203 90.3779 90.3575 90.5784C90.2431 90.9427 89.9738 91.1767 89.7566 91.4529C89.2514 92.0951 88.7358 92.7293 88.2082 93.353C88.035 93.5578 87.9291 93.8303 87.6524 93.9424C87.4094 94.041 87.3722 94.3658 87.1025 94.4471C87.0043 94.4767 87.0954 94.6209 86.9979 94.6907C86.8081 94.8267 86.7571 95.0959 86.4934 95.1806C86.289 95.246 86.267 95.5548 86.0068 95.5987C85.7125 95.6485 85.6185 96.0946 85.3867 96.2826C85.2949 96.3572 85.1995 96.428 85.1106 96.5056C84.934 96.6598 84.8674 96.9115 84.6119 97.0037C84.1983 97.1527 83.9256 97.6568 83.5812 97.93C83.5013 97.9935 83.4251 98.0612 83.3616 98.1431C83.2034 98.3472 82.9819 98.5082 82.771 98.6648C82.4445 98.9074 82.1247 99.1598 81.8127 99.4192C81.6974 99.5147 81.5777 99.5943 81.4553 99.675C81.3875 99.7198 81.2984 99.6947 81.2341 99.7753C80.8273 100.284 80.2602 100.599 79.7295 100.944C79.4099 101.151 79.1032 101.394 78.7405 101.547C78.6419 101.589 78.5352 101.727 78.4156 101.748C78.0636 101.811 77.8023 102.043 77.5181 102.219C77.3613 102.316 77.2096 102.396 77.0363 102.444C77.0034 102.453 76.9513 102.438 76.9353 102.457C76.636 102.813 76.1816 102.891 75.7948 103.085C75.4213 103.274 75.0119 103.393 74.6439 103.591C73.9019 103.989 73.0911 104.224 72.3367 104.591C72.2112 104.652 72.0792 104.7 71.9542 104.741C71.7357 104.813 71.6543 104.995 71.48 105.145C71.3096 105.284 71.0287 105.279 70.8339 105.38C70.6497 105.476 70.428 105.507 70.2335 105.578C69.4969 105.847 68.7468 106.085 67.9908 106.292C67.4933 106.428 66.9999 106.576 66.4815 106.652C64.8388 106.895 63.1891 107.075 61.5359 107.209C60.9058 107.26 60.2722 107.314 59.64 107.332C59.1027 107.347 58.5609 107.366 58.0262 107.346C56.7757 107.301 55.5243 107.255 54.2776 107.116C53.3245 107.009 52.3826 106.846 51.4387 106.684C50.8338 106.581 50.2366 106.451 49.6429 106.298C48.6936 106.052 47.7517 105.787 46.8138 105.498C46.1493 105.294 45.5277 104.985 44.8791 104.749C44.459 104.596 44.052 104.392 43.6366 104.227C43.5862 104.207 43.5355 104.187 43.4848 104.168C42.9791 103.972 42.4865 103.674 42.0089 103.417C41.7645 103.285 41.4758 103.213 41.273 102.989C41.1805 102.887 40.9909 102.925 40.8787 102.799C40.8691 102.788 40.8592 102.778 40.8491 102.767C40.7016 102.612 40.3325 102.587 40.2202 102.404C40.1427 102.279 40.0018 102.155 39.8629 102.111C39.5225 102.005 39.3196 101.68 39.0174 101.572C38.6895 101.455 38.5099 101.162 38.2196 101.045C37.8632 100.901 37.7247 100.528 37.4034 100.36C37.3888 100.352 37.3835 100.328 37.3803 100.298C37.3747 100.247 37.3412 100.198 37.2987 100.227C37.2373 100.27 37.1637 100.254 37.1406 100.182C37.1121 100.094 37.0825 100.006 37.0283 99.9369C36.9665 99.8586 36.8847 99.7963 36.7961 99.7304C36.7031 99.6614 36.5854 99.6327 36.472 99.6558C36.3267 99.6854 36.1758 99.6291 36.0597 99.5368C35.9775 99.4715 35.9002 99.4116 35.8543 99.3063C35.8199 99.2273 35.6261 99.1667 35.5044 99.0991C35.3449 99.0108 35.3505 98.7537 35.1968 98.7408C34.992 98.7234 34.8945 98.5878 34.7683 98.4862C33.5914 97.5361 32.4185 96.5811 31.2493 95.6219C31.0528 95.4608 30.7847 95.1193 30.5979 94.9471C30.5891 94.9389 30.5792 94.9318 30.5682 94.926C30.4272 94.8514 30.3416 94.6986 30.2423 94.5633C30.0732 94.3327 29.7961 94.183 29.5727 93.9896C29.4235 93.86 29.2514 93.7668 29.172 93.5473C29.1087 93.3725 28.8912 93.2865 28.7653 93.1164C28.6135 92.9115 28.4639 92.679 28.2523 92.5124C28.1092 92.3993 27.9706 92.2927 27.895 92.102C27.7783 91.808 27.4387 91.605 27.2521 91.3497C27.1484 91.2077 27.0549 91.0573 26.9455 90.9197C26.4306 90.2725 25.9691 89.5903 25.536 88.8871C25.1728 88.2981 24.7998 87.7148 24.4426 87.1225C24.3268 86.9303 24.217 86.7314 24.116 86.5326C23.7519 85.816 23.3664 85.1035 23.0849 84.3536C22.8344 83.6853 22.5526 83.0273 22.3305 82.3462C22.2125 81.9841 22.0185 81.6398 21.8814 81.2772C21.5585 80.423 21.2599 79.5612 21.005 78.684C20.7817 77.9148 20.5376 77.151 20.4647 76.3457C20.4457 76.134 20.3657 75.9285 20.3331 75.7173C20.2963 75.477 20.317 75.2221 20.2469 74.9941C20.1554 74.6975 20.1561 74.3896 20.0797 74.0981C20.0203 73.8717 20.2235 73.6561 20.0323 73.4211C19.7672 73.0946 19.9781 72.5119 19.9146 72.0961C19.9028 72.0188 19.8992 71.9398 19.9149 71.8583C19.9745 71.5475 19.8677 71.2049 19.8339 70.8763C19.8002 70.5472 19.7298 70.2168 19.7407 69.8887C19.7605 69.2852 19.6296 68.6914 19.637 68.0957C19.6437 67.5277 19.5262 66.9556 19.6506 66.3932C19.68 66.2601 19.5645 66.2309 19.5596 66.1273C19.5546 66.0192 19.6312 65.9415 19.6151 65.8382C19.5494 65.4188 19.5593 64.995 19.5611 64.5731C19.564 63.9735 19.5836 63.372 19.5815 62.7741C19.5782 61.8445 19.6662 60.926 19.7597 60.0059C19.8207 59.4063 19.9029 58.8091 19.9791 58.2112C20.0673 57.5169 20.1497 56.822 20.2527 56.1301C20.3316 55.6027 20.4458 55.0807 20.5308 54.5544C20.5981 54.1369 20.6492 53.717 20.6997 53.2972C20.7694 52.7165 20.8599 52.1376 20.9332 51.5596C21.0371 50.7367 21.1995 49.9297 21.3933 49.1285C21.491 48.7247 21.586 48.318 21.7369 47.9224C21.8313 47.6743 21.9175 47.4012 21.9742 47.1413C22.0901 46.6101 22.3399 46.1422 22.5309 45.6462C22.598 45.4717 22.705 45.3266 22.7789 45.1658C22.848 45.0151 22.9292 44.876 23.0053 44.7308C23.2328 44.2961 23.5411 43.9037 23.6937 43.4297C23.7036 43.3991 23.7198 43.3664 23.7424 43.3441C24.1369 42.9583 24.3012 42.4123 24.6822 42.0121C24.8123 41.8755 24.9135 41.7173 25.0097 41.5548C25.31 41.0476 25.7496 40.5757 26.0119 40.0478C26.369 39.3295 26.9463 38.7814 27.4277 38.1603C27.907 37.5424 28.4139 36.946 28.9054 36.3373C29.2538 35.9058 29.7007 35.5784 30.11 35.2132C30.1983 35.1341 30.3394 35.088 30.4157 34.9767C30.5457 34.7864 30.728 34.6882 30.949 34.6496Z" fill="#339710"/>
</g>
<path fill-rule="evenodd" clip-rule="evenodd" d="M56.7632 81.1675H65.5515V83.0177H56.7632V81.1675Z" fill="white"/>
<path fill-rule="evenodd" clip-rule="evenodd" d="M62.3136 77.467C62.559 77.467 62.7943 77.5645 62.9678 77.738C63.1413 77.9115 63.2387 78.1468 63.2387 78.3921V82.0925C63.2387 82.3378 63.1413 82.5731 62.9678 82.7466C62.7943 82.9201 62.559 83.0176 62.3136 83.0176C62.0683 83.0176 61.833 82.9201 61.6595 82.7466C61.486 82.5731 61.3885 82.3378 61.3885 82.0925V78.3921C61.3885 78.1468 61.486 77.9115 61.6595 77.738C61.833 77.5645 62.0683 77.467 62.3136 77.467Z" fill="white"/>
<path fill-rule="evenodd" clip-rule="evenodd" d="M54.913 63.5908C55.1583 63.5908 55.3936 63.6883 55.5671 63.8618C55.7406 64.0353 55.8381 64.2706 55.8381 64.5159C55.8381 70.1922 60.1434 74.6919 65.3332 74.6919C68.2139 74.6919 70.8097 73.3153 72.56 71.1145C72.6356 71.0195 72.7293 70.9403 72.8356 70.8814C72.9419 70.8225 73.0588 70.7852 73.1795 70.7715C73.3002 70.7578 73.4225 70.768 73.5393 70.8015C73.6561 70.8351 73.7651 70.8913 73.8602 70.967C73.9552 71.0427 74.0344 71.1363 74.0933 71.2427C74.1522 71.349 74.1895 71.4658 74.2032 71.5865C74.2169 71.7073 74.2067 71.8295 74.1732 71.9463C74.1396 72.0631 74.0834 72.1721 74.0077 72.2672C71.9364 74.8695 68.8263 76.542 65.3332 76.542C59.013 76.542 53.9879 71.1025 53.9879 64.5159C53.9879 64.2706 54.0854 64.0353 54.2589 63.8618C54.4324 63.6883 54.6677 63.5908 54.913 63.5908Z" fill="white"/>
<path fill-rule="evenodd" clip-rule="evenodd" d="M52.1155 52.4898C51.74 52.4898 51.37 52.5795 51.0362 52.7515C50.7024 52.9234 50.4145 53.1726 50.1964 53.4783C49.9784 53.7841 49.8366 54.1374 49.7828 54.509C49.7289 54.8807 49.7647 55.2598 49.887 55.6148L50.4161 57.1495C50.9629 58.7342 51.0175 60.4465 50.5753 62.0626L50.1173 63.7333C49.2829 66.7796 49.1284 69.8639 50.7621 72.1192C53.0998 75.3487 56.9824 77.4672 61.3886 77.4672C67.7106 77.4672 72.9438 73.1072 74.1011 67.38C74.4166 65.8148 74.8856 64.1256 75.8866 62.6852L64.6486 64.4956C63.5474 64.6732 62.4183 64.5148 61.4084 64.0412C60.3985 63.5676 59.5547 62.8008 58.9871 61.8406L54.1442 53.6471C53.9358 53.2946 53.639 53.0025 53.2833 52.7995C52.9276 52.5966 52.5251 52.4899 52.1155 52.4898ZM48.1377 56.2179C47.1968 53.4861 49.2265 50.6396 52.1165 50.6396C53.604 50.6396 54.9814 51.426 55.7382 52.7054L60.581 60.8989C60.9593 61.5391 61.5218 62.0505 62.1951 62.3663C62.8683 62.6821 63.6212 62.7878 64.3553 62.6695L75.9929 60.7943C77.5008 60.551 78.5277 62.2828 77.5915 63.49C76.6941 64.6473 76.2418 66.1265 75.9152 67.7454C74.5785 74.3626 68.5654 79.3173 61.3886 79.3173C56.3802 79.3173 51.9435 76.9056 49.2635 73.2044C47.1136 70.2348 47.4633 66.4188 48.3328 63.244L48.7908 61.5742C49.1354 60.317 49.0926 58.985 48.6677 57.7526L48.1386 56.2179H48.1377Z" fill="white"/>
<path fill-rule="evenodd" clip-rule="evenodd" d="M53.1424 47.8643C54.308 46.6987 56.3006 47.5239 56.3006 49.1724V50.6396H57.7678C59.4163 50.6396 60.2415 52.6322 59.0759 53.7978L57.4172 55.4565C57.2427 55.625 57.0091 55.7183 56.7665 55.7162C56.524 55.7141 56.2919 55.6168 56.1204 55.4452C55.9489 55.2737 55.8516 55.0417 55.8495 54.7991C55.8474 54.5566 55.9406 54.3229 56.1091 54.1484L57.7678 52.4898H56.3006C55.8099 52.4898 55.3393 52.2948 54.9924 51.9479C54.6454 51.6009 54.4505 51.1303 54.4505 50.6396V49.1724L46.5077 57.1152H48.8999C49.1453 57.1152 49.3806 57.2127 49.5541 57.3861C49.7276 57.5596 49.825 57.7949 49.825 58.0403C49.825 58.2856 49.7276 58.5209 49.5541 58.6944C49.3806 58.8679 49.1453 58.9654 48.8999 58.9654H46.5077C44.8592 58.9654 44.034 56.9727 45.1996 55.8071L53.1424 47.8643Z" fill="white"/>
<path d="M53.0628 54.3399C53.0628 54.5852 52.9654 54.8205 52.7919 54.994C52.6184 55.1675 52.3831 55.265 52.1377 55.265C51.8924 55.265 51.6571 55.1675 51.4836 54.994C51.3101 54.8205 51.2126 54.5852 51.2126 54.3399C51.2126 54.0945 51.3101 53.8592 51.4836 53.6857C51.6571 53.5123 51.8924 53.4148 52.1377 53.4148C52.3831 53.4148 52.6184 53.5123 52.7919 53.6857C52.9654 53.8592 53.0628 54.0945 53.0628 54.3399Z" fill="white"/>
<defs>
<filter id="filter0_d_30_94" x="4.55933" y="10.4167" width="144.976" height="141.938" filterUnits="userSpaceOnUse" color-interpolation-filters="sRGB">
<feFlood flood-opacity="0" result="BackgroundImageFix"/>
<feColorMatrix in="SourceAlpha" type="matrix" values="0 0 0 0 0 0 0 0 0 0 0 0 0 0 0 0 0 0 127 0" result="hardAlpha"/>
<feOffset dx="15" dy="15"/>
<feGaussianBlur stdDeviation="15"/>
<feComposite in2="hardAlpha" operator="out"/>
<feColorMatrix type="matrix" values="0 0 0 0 0.199441 0 0 0 0 0.591667 0 0 0 0 0.061632 0 0 0 0.3 0"/>
<feBlend mode="normal" in2="BackgroundImageFix" result="effect1_dropShadow_30_94"/>
<feBlend mode="normal" in="SourceGraphic" in2="effect1_dropShadow_30_94" result="shape"/>
</filter>
</defs>
</svg>
