<svg width="150" height="130" viewBox="0 0 150 130" fill="none" xmlns="http://www.w3.org/2000/svg">
<path fill-rule="evenodd" clip-rule="evenodd" d="M135.694 103.592C134.726 104.351 134.271 105.45 134.077 106.686C133.969 107.367 133.347 107.46 132.879 107.58C132.474 107.684 132.1 107.698 131.773 108.032C131.637 108.17 131.215 108.201 131.037 108.092C130.469 107.746 129.861 107.493 129.337 107.031C127.49 105.407 126.137 103.398 124.871 101.348C123.578 99.2565 122.226 97.1874 121.236 94.919C120.928 94.213 120.916 94.2187 121.69 93.6705C122.32 94.8685 122.908 96.0847 123.588 97.2468C124.127 98.1688 124.779 99.0237 125.436 99.9885C125.591 99.6001 125.587 99.3512 125.347 99.005C124.041 97.1171 122.8 95.1866 121.816 92.9759C121.973 92.8734 122.163 92.7489 122.352 92.6261C122.396 92.6635 122.493 92.7479 122.66 92.8921V92.1049C123.127 92.0117 123.55 91.9279 124.101 91.8185C124.531 92.019 124.735 92.7791 125.442 92.8734C125.419 93.6424 126.091 94.0256 126.429 94.5873C126.848 95.284 127.416 95.8905 127.818 96.4054C128.272 96.345 128.611 96.2815 128.954 96.2576C130.157 96.1732 130.128 96.2112 130.877 96.8719C131.709 97.606 132.279 98.6333 133.352 99.0998C133.422 99.1294 133.499 99.2346 133.502 99.308C133.536 100.081 133.968 100.361 134.694 100.549C135.302 100.706 135.475 101.348 135.504 101.979C135.526 102.463 135.615 102.943 135.694 103.592Z" fill="#DDA619"/>
<path fill-rule="evenodd" clip-rule="evenodd" d="M28.3285 13.8536C29.1897 14.2847 29.1897 14.2847 29.6531 13.3824C30.2419 13.1804 30.9536 13.587 31.4863 13.0461C32.0855 13.1955 32.677 13.3986 33.2851 13.4824C34.267 13.6172 34.7741 14.3769 35.3286 15.0162C35.705 15.4504 36.0992 15.8862 36.4433 16.3579C36.8458 16.9098 37.3269 17.4034 37.7309 17.9537C38.0969 18.4525 38.4098 18.9913 38.7347 19.5193C38.8247 19.6661 38.9403 19.8447 38.9273 19.9988C38.8924 20.409 39.0346 20.6855 39.3261 20.9797C39.8869 21.5451 39.8431 22.375 40.0379 23.081C40.2185 23.7391 40.1149 24.4893 40.0566 25.1927C40.0347 25.4614 39.9993 26.0346 39.4079 25.6118C39.3662 25.5816 39.1595 25.8019 39.0174 25.8852C38.8674 25.9727 38.6113 26.1398 38.5582 26.0934C37.9344 25.5457 37.7824 25.9373 37.4971 26.4787C37.0775 27.2758 36.8213 27.217 35.6946 27.016C35.0089 26.8932 34.2821 26.8718 33.8807 26.2767C32.7952 24.6679 31.6831 23.0701 31.5326 21.0135C31.4727 20.1893 31.2426 19.3292 30.5626 18.7367C29.9769 18.226 29.588 17.496 28.7883 17.2112C28.5472 17.1253 28.3707 16.8379 28.1833 16.626C27.785 16.1741 27.571 15.6717 27.5606 15.036C27.5497 14.3758 28.0713 14.2279 28.3285 13.8536Z" fill="#DDA619"/>
<path fill-rule="evenodd" clip-rule="evenodd" d="M120.357 67.6262C119.654 66.9234 119.065 66.2351 118.377 65.6644C116.404 64.0275 115.467 61.7117 114.288 59.5562C113.758 58.5884 113.909 57.5013 113.932 56.4542C113.936 56.2725 114.187 56.096 114.334 55.9055C114.534 56.3022 114.722 56.674 114.997 57.2165V55.2781C115.41 55.0735 115.817 54.9621 116.095 54.709C116.441 54.3951 116.831 54.457 117.147 54.5367C117.516 54.6294 117.83 54.9371 118.201 55.1724C117.984 56.1898 118.384 57.0415 118.88 57.9292C119.324 57.809 119.849 58.1245 120.293 57.6684C120.388 57.5715 120.697 57.5637 120.83 57.6439C121.919 58.2994 123.256 58.6472 123.807 59.9925C123.906 60.2352 124.015 60.5486 124.214 60.6564C124.514 60.8188 124.245 61.3259 124.76 61.3457C125.184 61.3618 124.913 61.794 124.989 62.0293C125.083 62.3209 125.212 62.6062 125.263 62.905C125.31 63.1789 125.273 63.4673 125.273 63.7516C124.183 64.6867 123.482 65.8779 122.944 67.205C122.072 67.3467 121.187 67.4909 120.357 67.6262Z" fill="#DDA619"/>
<path fill-rule="evenodd" clip-rule="evenodd" d="M2.10109 1.42831C2.35985 1.07584 2.56134 0.782193 2.7847 0.50521C2.86644 0.404726 2.99243 0.333918 3.10958 0.268317C3.44331 0.0814053 3.68177 0.60986 4.05507 0.379735C4.34767 0.199592 4.69026 0.0376711 5.02399 0.0053911C5.30097 -0.0211618 5.71176 0.312572 5.86067 0.205319C6.19232 -0.0336573 6.39068 -0.105506 6.67912 0.217814C6.73275 0.277168 6.92903 0.232392 7.05138 0.202716C7.95626 -0.0154347 7.95574 -0.0180379 8.43994 0.861331C8.50606 0.670775 8.56334 0.506252 8.66746 0.205839C8.81064 0.593199 8.95122 0.86862 9.01057 1.16018C9.08346 1.5163 9.10116 1.88544 9.11782 2.24989C9.135 2.61643 9.12147 2.98452 9.32712 3.36199L9.46457 1.99686C9.51299 1.99478 9.56193 1.99269 9.61087 1.99113C9.63743 2.23271 9.68428 2.47429 9.68585 2.71639C9.69366 3.94407 9.63586 5.17487 9.70563 6.39839C9.76759 7.47769 9.58276 8.45494 8.97308 9.34732C8.74452 9.12865 8.52793 8.797 8.26761 9.32598C7.98282 9.90389 7.52673 9.86016 6.93736 9.59515C6.83948 10.2236 6.79523 10.9644 5.75446 10.7276V9.15364C5.68521 9.14011 5.61544 9.12605 5.5462 9.11199C5.38115 9.64878 5.21663 10.1856 5.0469 10.738C4.58196 10.4266 4.20085 10.0955 4.27634 9.44052C4.29717 9.25673 4.08266 9.05576 4.01342 8.85063C3.71405 7.95824 3.71873 7.95616 2.97786 7.93481C2.83624 7.93065 2.69463 7.93429 2.55301 7.93429H2.16409C1.80484 7.57505 1.481 7.22986 1.13477 6.90914C0.397019 6.22762 0.162208 5.32534 0.0440218 4.38766C-0.0142904 3.92272 0.0861941 3.43696 0.0200722 2.97411C-0.0528181 2.46388 0.210108 2.08693 0.442315 1.72768C0.905169 1.0118 1.15768 0.990972 2.10109 1.42831Z" fill="#DDA619"/>
<path fill-rule="evenodd" clip-rule="evenodd" d="M84.9047 12.6662C84.2992 13.0775 83.7161 13.4899 83.1085 13.8611C83.0497 13.897 82.8383 13.683 82.6102 13.5237C82.4707 13.7741 82.376 14.0038 82.2281 14.1912C82.0542 14.4125 81.8308 14.5947 81.6335 14.7983C81.2337 15.2101 80.8484 15.6688 80.2574 15.043C80.2122 14.9956 80.0747 15.0424 79.9815 15.0325C79.3177 14.9607 78.6851 15.1263 78.0171 14.5921C77.4793 14.162 76.7946 13.8647 76.2891 13.3368C75.8153 12.8412 75.3249 12.3757 74.9942 11.7468C74.4871 10.781 73.9863 9.8261 74.1669 8.69265C74.2122 8.40838 74.4075 8.14754 74.584 7.76694C74.9411 8.05955 75.1827 8.25739 75.4649 8.48908C75.6961 7.72217 75.6487 6.83083 76.3594 6.15503C76.6379 6.36329 76.9071 6.56426 77.2429 6.81521V5.77964C78.1759 5.62033 79.0235 5.29961 79.9586 5.35584C80.4949 5.38812 80.9582 5.55785 81.2977 5.88325C81.734 6.30081 82.2682 6.59966 82.6243 7.13488C82.9461 7.61908 83.386 8.02414 83.7239 8.52292C84.2784 9.34294 84.4658 10.3014 84.8714 11.174C85.0651 11.59 84.9047 12.1711 84.9047 12.6662Z" fill="#DDA619"/>
<path fill-rule="evenodd" clip-rule="evenodd" d="M24.7707 39.8109V42.8577C25.0534 42.0876 25.0045 41.3098 25.0284 40.5361C25.0378 40.2248 24.8905 39.8374 25.2679 39.6515C25.6579 39.4589 26.0697 39.2684 26.4904 39.2064C26.6351 39.185 26.9106 39.5276 26.9928 39.752C27.0813 39.9931 27.0131 40.2914 27.0131 40.5955C27.2485 40.4971 27.3885 40.3831 27.514 40.3971C27.7733 40.4263 28.1294 40.6663 28.2622 40.5694C28.9999 40.0264 29.8085 40.3831 30.5712 40.3404C30.9164 40.3211 31.4386 40.5517 31.6042 40.8318C32.0103 41.5217 32.8298 41.7326 33.2593 42.5443C33.2734 42.891 33.3192 43.3195 33.6795 43.7808C34.1517 44.3853 34.5547 45.136 34.4084 46.0206C34.3402 46.4319 34.3964 46.8635 34.3964 47.3649C33.4285 47.9392 32.4216 48.4973 31.4563 49.12C30.4463 49.7718 29.5273 49.334 28.6677 48.8836C28.0404 48.5546 27.1985 48.4005 26.9866 47.5242C25.584 46.8932 25.3346 45.4151 24.5859 44.2983C24.0824 43.5475 24.098 42.6739 23.9554 41.8794C23.8377 41.2229 24.3011 40.4622 24.5073 39.7479C24.5952 39.7687 24.6832 39.79 24.7707 39.8109Z" fill="#DDA619"/>
<path fill-rule="evenodd" clip-rule="evenodd" d="M52.2447 55.1748C51.647 54.5771 51.0133 53.9434 50.3001 53.2302C50.3001 52.7579 50.2511 52.1951 50.3251 51.649C50.3532 51.4459 50.6463 51.2408 50.8644 51.1215C50.9472 51.0757 51.1602 51.2684 51.3153 51.3532C51.5215 50.945 51.6423 50.3926 52.3394 50.527C52.4691 50.5525 52.6529 50.5603 52.7414 50.489C53.0886 50.2078 53.4666 49.9209 53.9107 50.0443C54.7068 50.2661 55.594 50.3958 56.2146 50.945C57.4412 52.0316 58.6075 53.2125 59.2182 54.7817C59.5821 55.7173 59.9106 56.6836 60.0866 57.6666C60.1632 58.0966 60.0471 58.687 59.5571 59.0296C58.7507 59.5945 57.9744 60.2047 57.1502 60.742C56.8696 60.9248 56.4739 61.0513 56.1464 61.0227C54.0831 60.8441 52.6128 59.8731 52.0031 57.5427C51.9141 57.2032 51.7011 56.8497 51.7469 56.5321C51.8136 56.0724 52.0645 55.6387 52.2447 55.1748Z" fill="#DDA619"/>
<path fill-rule="evenodd" clip-rule="evenodd" d="M55.7847 106.474C55.7284 106.189 55.6722 105.904 55.616 105.62C55.6123 106.749 54.4195 107.172 54.1597 108.133C54.067 108.476 53.5589 108.63 53.3486 108.438C53.0055 108.128 52.7717 108.355 52.578 108.481C52.0631 108.816 51.6257 108.784 51.0999 108.476C49.5843 107.59 48.0208 106.776 47.1274 105.152C46.0507 104.569 45.7357 103.386 45.0667 102.486C44.7413 102.049 44.6376 101.446 44.4106 100.859C44.8063 100.283 45.3811 100.435 46.0762 100.782C46.009 100.454 46.0272 100.153 45.8898 99.967C45.6998 99.7114 45.9028 99.6109 46.0106 99.5656C46.5 99.361 47.0061 99.211 47.409 98.8247C47.5074 98.73 47.786 98.7675 47.9588 98.8195C48.2676 98.9132 48.5321 99.1106 48.8752 98.8315C48.9725 98.7529 49.2891 98.9101 49.488 98.9976C51.1973 99.7484 52.7441 100.69 53.7562 102.356C53.8926 102.581 54.1998 102.819 54.4294 103.033C55.088 103.645 55.2114 104.536 55.7211 105.196C56.0596 105.635 55.9856 106.02 55.7847 106.474Z" fill="#DDA619"/>
<path fill-rule="evenodd" clip-rule="evenodd" d="M141.972 40.2739C142.01 40.012 142.047 39.7496 142.089 39.4611C142.192 39.5361 142.284 39.5658 142.308 39.6236C142.671 40.5139 143.125 41.3672 143.339 42.3195C143.473 42.9182 143.645 43.4914 143.065 43.9579C142.67 44.2755 143.071 45.1877 142.183 45.1367C141.765 45.8088 141.094 45.7417 140.452 45.6959C140.308 46.1457 140.218 46.5841 140.029 46.9751C139.816 47.4155 139.135 47.54 138.406 47.3317C138.239 47.2843 138.078 47.1224 137.926 47.136C136.744 47.239 136.746 47.2479 136.249 46.3159C136 45.851 135.701 45.4069 135.508 44.9201C135.274 44.3266 134.909 43.9559 134.31 43.6997C133.42 43.3191 132.842 42.5475 132.689 41.6296C132.55 40.7987 132.939 40.0364 133.68 39.4377C134.048 39.9177 134.415 40.3962 134.928 41.0668C134.928 40.3806 134.921 39.9188 134.931 39.4575C134.94 38.9988 134.99 39.0925 135.716 38.7656C136.234 38.5318 136.986 38.815 137.284 38.0955C137.796 38.0757 138.308 38.057 138.82 38.0372C139.766 37.9997 140.606 38.1028 141.047 39.1545C141.221 39.571 141.641 39.8855 141.972 40.2739Z" fill="#DDA619"/>
<path fill-rule="evenodd" clip-rule="evenodd" d="M1.98792 47.1727C0.867492 46.93 0.473884 46.1355 0.371838 45.4373C0.241156 44.5444 -0.0613387 43.6692 0.0110309 42.7253C0.104747 41.5033 0.0979786 40.2637 0.00634509 39.0417C-0.0379097 38.4487 0.342682 38.0098 0.333831 37.4553C0.331748 37.3111 0.532196 37.032 0.626954 37.0378C1.35794 37.0794 1.70521 36.288 2.4716 36.2834C2.97923 36.2808 3.48425 35.8049 4.05384 35.5071C4.61509 36.0683 5.80893 35.3743 6.26398 36.6119C5.96617 37.4814 6.70809 38.2452 6.95956 39.136C6.99444 39.2604 7.12512 39.3713 7.12616 39.489C7.13814 40.8921 7.13345 42.2947 7.13345 43.8187C6.90645 43.6172 6.80805 43.5302 6.56387 43.3131C6.6404 43.6427 6.62582 43.8952 6.73828 43.9806C6.85803 44.0722 7.11055 43.9707 7.28028 44.0274C7.35733 44.0529 7.39846 44.2565 7.40679 44.3825C7.41096 44.4403 7.28548 44.5679 7.23967 44.5585C6.89604 44.4913 6.5571 44.3976 6.18588 44.3049C5.93233 44.8537 5.66159 45.4394 5.45958 45.8773C5.07274 45.8487 4.84157 45.8309 4.61093 45.8138C5.01547 46.222 4.55053 46.3688 4.38237 46.6197C4.21107 46.8743 4.0856 47.1596 3.94971 47.4132C3.05628 47.3163 2.72307 46.7405 2.48409 45.9778C2.31488 46.386 2.16234 46.752 1.98792 47.1727Z" fill="#DDA619"/>
<path fill-rule="evenodd" clip-rule="evenodd" d="M106.508 112.469C105.773 112.448 105.078 112.25 104.723 113.064C104.123 112.274 104.052 111.713 104.663 111.085C105.085 110.652 105.363 110.111 105.9 109.737C106.37 109.409 106.543 108.683 106.948 108.221C107.259 107.866 107.727 107.648 108.125 107.369C108.25 107.49 108.384 107.623 108.596 107.83C108.371 107.99 108.15 108.148 107.929 108.304C107.953 108.361 107.978 108.418 108.003 108.474C108.327 108.423 108.65 108.372 109.014 108.315C109.111 108.46 109.223 108.833 109.464 108.959C110.912 109.713 111.836 110.971 112.716 112.263C113.005 112.686 113.105 113.235 113.337 113.704C113.91 114.863 114.058 115.077 113.884 116.131C113.758 116.893 113.619 117.705 113.02 118.326C112.784 118.57 112.532 118.924 112.52 119.237C112.488 120.029 112.054 120.155 111.414 120.115C111.236 120.103 111.047 120.126 110.873 120.173C109.758 120.473 109.642 120.441 109.086 119.587C108.263 118.321 107.869 116.874 107.39 115.467C107.052 114.473 106.793 113.451 106.508 112.469Z" fill="#DDA619"/>
<path fill-rule="evenodd" clip-rule="evenodd" d="M88.4519 96.8911C87.6631 96.4434 86.8644 96.0513 86.2215 95.4031C85.0234 94.1932 83.7375 93.0597 82.6321 91.7706C81.47 90.4154 80.2398 89.0794 79.5385 87.4904C79.6124 86.863 80.4298 87.5294 80.4454 86.7891C80.4501 86.5777 80.9681 86.3736 81.2555 86.1731C81.9688 85.6754 82.3671 85.5921 82.8867 86.145C83.3996 86.6912 83.9926 86.8869 84.6637 87.0291C85.7003 87.2488 86.4157 88.0449 87.3028 88.5348C88.252 89.0586 88.9283 89.902 89.6994 90.6345C90.0987 91.0136 90.5949 91.3046 90.938 91.7243C91.2832 92.1465 91.6002 92.6541 91.7226 93.1732C91.7965 93.4892 91.5591 93.9662 91.3175 94.2478C91.0192 94.5951 90.8781 95.0965 90.3559 95.2646C90.0539 95.3615 90.0966 95.6989 90.0378 95.9769C89.9701 96.296 89.8811 96.6844 89.3271 96.2835C88.9397 96.004 88.6138 96.4007 88.4519 96.8911Z" fill="#DDA619"/>
<path fill-rule="evenodd" clip-rule="evenodd" d="M145.616 88.6787C143.997 88.0123 143.302 86.7732 142.61 85.5689C142.003 84.5104 141.449 83.4082 140.997 82.2748C140.547 81.1429 139.761 80.0704 140.111 78.6459C141.135 79.3592 141.05 80.7227 142.033 81.6344C141.853 80.1922 141.105 79.078 140.731 77.5588C141.248 77.842 141.435 77.9446 141.664 78.0701C141.709 77.8228 141.755 77.5635 141.801 77.3052C142.229 77.224 142.651 77.1438 143.15 77.0491C143.282 77.2605 143.455 77.5728 143.662 77.8623C144.465 78.9885 144.47 78.9833 145.93 79.5024C146.093 79.5607 146.246 79.6554 146.393 79.7491C147.524 80.4635 148.554 81.2684 149.176 82.5101C149.406 82.9693 149.719 83.8128 149.705 84.3017C149.702 84.4162 149.798 84.5505 149.881 84.6474C150.094 84.8936 149.998 85.1034 149.778 85.2279C149.14 85.5876 148.864 86.2957 148.297 86.7195C148.056 86.9002 148.013 87.1407 147.969 87.4391C147.908 87.8452 147.112 88.3715 146.741 88.2862C146.512 88.233 146.363 87.8113 146.05 88.1221C145.886 88.2856 145.761 88.4887 145.616 88.6787Z" fill="#DDA619"/>
<path fill-rule="evenodd" clip-rule="evenodd" d="M99.6341 55.5888C99.3863 55.63 99.1265 55.6726 98.7677 55.732C98.9094 55.9975 99.0104 56.186 99.1161 56.3838C98.4418 57.0581 97.74 57.7599 97.0163 58.4841C96.8997 58.4841 96.757 58.4628 96.6227 58.4873C95.03 58.7819 93.9695 57.8781 93.0849 56.7884C92.394 55.9371 91.8 54.9995 91.3376 53.9764C91.0492 53.3376 90.7915 52.7492 90.9976 51.8813C91.4808 52.9434 91.9114 53.8889 92.3419 54.8349C92.4185 54.8099 92.495 54.7855 92.5721 54.7605C92.5372 54.5803 92.532 54.3872 92.4622 54.2216C92.1743 53.5375 91.8468 52.869 91.5756 52.1791C91.4553 51.8735 91.1976 51.4929 91.8541 51.3508C92.0566 51.307 92.1753 50.8702 92.33 50.6115C92.4653 50.3845 92.5965 50.1548 92.7038 49.9716C93.3676 49.9107 93.3739 50.4912 93.7878 50.7307C93.6915 50.3652 93.5951 49.9997 93.4681 49.5186C93.6805 49.3505 93.9643 49.1255 94.248 48.9001C94.4271 49.0782 94.6645 49.3619 94.8848 48.8387C95.1238 48.2732 95.4767 48.053 96.0489 48.4242C96.101 48.4581 96.2088 48.4841 96.2431 48.456C96.9059 47.9098 97.2964 48.4539 97.6031 48.8715C98.3351 49.8695 98.6798 51.0681 99.1181 52.2083C99.2212 52.4759 99.4456 53.1043 98.6907 53.1345C98.648 53.1361 98.6152 53.3709 98.5782 53.4969C98.7355 53.5349 98.977 53.6567 99.0369 53.5963C99.4602 53.172 99.6882 53.726 99.6466 53.8233C99.392 54.4215 99.9819 54.9995 99.6341 55.5888Z" fill="#DDA619"/>
<path fill-rule="evenodd" clip-rule="evenodd" d="M94.4925 25.2898C94.6591 25.4564 94.8262 25.6235 95.0798 25.8765C95.1261 25.4751 95.1646 25.144 95.2068 24.7826C95.791 24.6603 96.3934 24.5062 97.0051 24.4156C97.3748 24.3609 97.7653 24.3625 98.1339 24.4192C98.415 24.463 98.1943 24.9867 98.7186 25.0326C99.0575 25.0622 99.3178 25.6381 99.5589 26.039C99.7546 26.3644 99.4615 27.0688 100.205 27.0266C100.231 27.4874 100.256 27.9487 100.283 28.4095C100.285 28.4542 100.295 28.4985 100.302 28.5433L102.411 30.6529C102.637 30.6529 102.877 30.6238 103.106 30.6597C103.458 30.7164 103.838 31.0658 103.657 31.2824C103.255 31.764 103.976 32.0967 103.69 32.4898C102.592 32.8188 102.245 32.8552 101.352 32.6991C101.576 33.1827 101.771 33.6045 102.015 34.1345C101.873 34.2714 101.685 34.6051 101.499 34.6041C100.329 34.5952 99.0981 34.892 98.0553 34.0616C97.7725 33.8361 97.431 33.6596 97.2113 33.3842C96.7099 32.7563 96.2611 32.0863 95.8035 31.424C95.578 31.0975 95.3854 30.7477 95.1688 30.4145C94.8335 29.8985 94.933 29.155 94.3181 28.7859C94.4113 28.1601 94.0583 27.6868 93.8328 27.1469C93.5262 26.4133 93.7162 25.7115 94.4925 25.2898Z" fill="#DDA619"/>
<path fill-rule="evenodd" clip-rule="evenodd" d="M50.6712 4.24231C51.2247 4.24231 51.6032 4.24179 51.9812 4.24231C52.4878 4.24336 53.036 4.15849 53.1521 4.89052C53.1646 4.97174 53.3541 5.09617 53.4447 5.08316C54.0445 4.99413 54.2002 5.56111 54.5672 5.8105C55.5632 6.48734 55.71 7.60204 55.9589 8.63291C56.101 9.22072 55.911 9.64244 55.242 10.0428C54.4912 10.4921 53.5514 10.7712 53.036 11.5876C52.581 11.5964 52.2087 12.3081 51.6771 11.7386C51.6001 11.6563 51.4293 11.6287 51.3028 11.6308C49.5107 11.6651 48.3892 10.6364 47.4526 9.26446C46.9773 8.56887 46.3822 7.94722 46.1958 7.09076C46.1192 6.73933 46.0745 6.37904 46.0495 6.02032C46.0406 5.90265 46.1099 5.69856 46.1921 5.66888C46.9132 5.41116 47.4375 4.79628 48.1367 4.54585C48.9989 4.23763 49.921 4.14495 50.6712 4.24231Z" fill="#DDA619"/>
<path fill-rule="evenodd" clip-rule="evenodd" d="M48.3949 73.1166C48.6027 73.443 48.7552 73.6836 49.052 74.1506C49.1186 73.656 49.1442 73.4868 49.1634 73.3171C49.2259 72.7542 49.2249 72.7553 49.9361 72.6829C50.0251 72.6735 50.162 72.6855 50.1938 72.635C50.5181 72.1237 51.0247 71.9806 51.536 72.1347C52.1155 72.3091 52.7376 72.5278 53.1885 72.9078C54.9478 74.3906 55.9828 76.3779 56.7867 78.4865C56.9231 78.8463 56.806 79.3024 56.806 79.7085C56.5951 79.6851 56.4295 79.6668 56.2635 79.6481C56.2994 80.1573 56.1843 80.5347 55.5887 80.655C55.4101 80.6915 55.1659 80.958 55.1482 81.1377C55.0884 81.751 54.4584 81.4521 54.2387 81.7713C53.8878 81.2126 53.2838 81.8889 52.8892 81.4896C52.5112 81.1075 51.9936 80.8128 51.7437 80.364C51.1934 79.3753 50.6665 78.3465 50.3442 77.2698C50.1797 76.7189 49.9355 76.3529 49.5112 76.103C48.8224 75.6985 48.2872 75.1856 47.9508 74.4567C47.6702 73.8481 47.6582 73.8538 48.3949 73.1166Z" fill="#DDA619"/>
<path fill-rule="evenodd" clip-rule="evenodd" d="M75.0069 56.6022C75.0069 56.4612 74.9731 56.2649 75.0189 56.0889C75.0496 55.9712 75.2511 55.891 75.2688 55.7781C75.288 55.6547 75.1433 55.5131 75.1417 55.3787C75.1407 55.2595 75.3084 55.1132 75.2756 55.0252C75.2157 54.8633 75.0813 54.7133 74.9434 54.6009C74.8517 54.5259 74.6992 54.5249 74.5107 54.4738C74.5992 54.7816 74.6706 55.0294 74.7424 55.2777C74.241 54.9721 73.6839 54.7284 73.9292 53.9917C74.1364 54.0802 74.34 54.1682 74.5925 54.2765C74.6737 53.3899 73.8516 53.8512 73.535 53.4315C73.9984 53.4862 74.3072 53.167 74.7731 53.229C74.9892 53.2576 75.2703 52.7984 75.6015 52.485C76.0612 52.8604 76.5766 53.2805 77.1795 53.7725C77.2384 53.4128 77.2806 53.1566 77.3316 52.8448C78.0131 52.713 78.7118 52.5782 79.4183 52.4418C79.7812 52.9051 80.065 53.3279 80.4107 53.6918C80.7106 54.0063 81.1229 54.2161 81.4119 54.5384C82.2272 55.4485 82.5969 56.5976 82.9322 57.7341C83.0524 58.1408 83.1847 58.7843 82.4073 58.8931C82.411 59.6397 81.6238 59.7511 81.2687 60.2244C80.8235 60.8169 80.0363 60.9189 79.1866 60.5758C77.9142 60.0619 77.078 59.0685 76.2653 58.1012C75.8587 57.6165 75.4021 57.1593 75.0069 56.6022Z" fill="#DDA619"/>
<path fill-rule="evenodd" clip-rule="evenodd" d="M98.4067 75.0157C98.6357 75.0938 98.857 75.1688 99.1106 75.2552C99.1621 74.0609 97.9277 73.7261 97.7558 72.6265C98.0058 72.7369 98.2093 72.7837 98.3567 72.9009C98.593 73.0894 98.7919 73.3236 99.0866 73.6183C98.9861 73.0196 98.9195 72.8821 98.5779 72.4724C99.3245 71.5696 99.3245 71.5696 100.206 71.5665C100.691 72.1126 101.105 72.8322 101.726 73.2112C102.411 73.6303 102.613 74.3457 103.119 74.8585C103.602 75.3495 103.923 76.018 104.243 76.6454C104.419 76.989 104.568 77.4279 104.511 77.7892C104.438 78.2458 104.244 78.9169 103.921 79.0466C103.39 79.2606 103.508 79.6359 103.341 79.9587C103.112 80.3997 102.799 80.8287 102.224 80.9235C101.888 80.9787 101.488 81.2348 101.242 81.1239C100.643 80.8537 100.024 80.5096 99.5807 80.0374C98.7445 79.146 97.9969 78.1656 97.2815 77.1723C97.1019 76.9234 97.1847 76.486 97.1316 75.994C97.37 76.1867 97.4648 76.2627 97.6658 76.4246C97.5616 75.7004 98.1947 75.452 98.4067 75.0157Z" fill="#DDA619"/>
<path fill-rule="evenodd" clip-rule="evenodd" d="M90.9417 127.091C90.5538 126.878 90.3669 126.776 90.1857 126.676C89.8666 127.829 89.7874 127.889 88.8445 127.473C89.0934 128.053 89.2928 128.516 89.5099 129.02C89.2637 129.163 89.0117 129.31 88.7571 129.458C88.2968 128.998 87.8298 128.531 87.3196 128.02C87.0124 128.712 87.8579 129.032 87.7746 129.7C87.016 129.805 86.5761 129.289 86.1393 128.815C85.9008 128.555 85.7717 128.194 85.5259 127.944C84.4305 126.832 83.4465 125.629 82.5291 124.369C82.4469 124.256 82.3328 124.166 82.2308 124.068C81.6779 123.541 81.0984 123.031 81.0573 122.171C81.6091 121.833 81.9023 122.354 82.2776 122.676C82.6593 122.045 81.7763 121.96 81.8158 121.495C81.8497 120.934 82.9175 121.65 82.6463 120.732H84.1837C84.6237 121.042 85.0699 121.349 85.5072 121.667C85.9461 121.986 86.2361 122.445 86.7734 122.704C87.2951 122.957 87.6408 123.554 88.1 123.959C88.3994 124.223 88.5894 124.585 89.0679 124.704C89.4141 124.79 89.599 125.315 90.1248 125.247C90.2711 125.228 90.5351 125.492 90.6095 125.68C90.7517 126.039 90.7954 126.435 90.9417 127.091Z" fill="#DDA619"/>
<path fill-rule="evenodd" clip-rule="evenodd" d="M81.1855 32.1263C81.6739 32.1585 82.0112 31.906 82.4579 32.2283C82.2309 32.3064 82.0664 32.3632 81.8868 32.4251C82.0544 32.9942 82.2408 33.5596 82.3778 34.1365C82.4126 34.2843 82.3351 34.5764 82.2325 34.6196C81.6629 34.8602 81.4906 35.473 81.047 35.8088C80.8507 35.9577 80.5565 36.0061 80.2999 36.0353C80.1713 36.0493 80.0198 35.8551 79.8912 35.8687C79.7344 35.8853 79.5907 36.0222 79.4257 36.116C79.182 35.2548 79.1945 35.2199 78.235 34.893C77.6607 34.6972 77.5415 34.1328 77.1343 33.7777C77.0432 33.9719 76.9552 34.1594 76.8568 34.3697C76.7137 34.2198 76.4726 34.0834 76.4731 33.948C76.4804 32.2564 76.4789 32.2184 75.7067 31.2047C75.2715 31.9695 76.1056 32.4121 76.1508 33.1603C75.9442 33.128 75.6354 33.1519 75.5995 33.0639C75.2366 32.182 74.6837 31.3489 75.2507 30.291C75.4266 29.9625 75.4584 29.7901 75.8536 29.7834C76.0972 29.7797 76.3591 29.6365 76.5762 29.4991C77.139 29.1435 77.681 28.7561 78.2824 28.3464C78.4198 28.5515 78.5469 28.7415 78.5161 28.6952C78.9904 29.0258 79.4851 28.1355 79.5642 29.0638C79.5871 29.3273 80.176 28.6989 80.176 29.3887C80.176 29.6553 80.6659 29.9224 80.9121 30.1686C80.8242 30.3967 80.7409 30.6143 80.657 30.8319C80.7268 30.8804 80.7966 30.9288 80.8669 30.9772C80.9902 30.7424 81.1136 30.5076 81.2693 30.2124C81.5229 30.6435 81.6702 30.8928 81.8634 31.2203C81.6535 31.5004 81.4198 31.8133 81.1855 32.1263Z" fill="#DDA619"/>
<path fill-rule="evenodd" clip-rule="evenodd" d="M33.4582 74.538C33.1312 74.1256 32.8725 73.7992 32.5851 73.4358C32.4388 73.7351 32.3456 73.9252 32.2243 74.173C31.6781 73.9168 31.3106 73.4941 30.9976 73.0531C30.3062 72.0779 29.7715 71.0023 29.0707 70.0255C28.6396 69.4252 28.6141 68.6708 28.7844 67.8899C29.4315 67.7586 29.5716 68.5193 30.111 68.7114V67.3291C31.1304 67.1854 32.1129 67.0469 33.0136 66.9204C33.9586 67.7691 34.5807 68.6859 35.0217 69.7449C35.2737 70.3483 35.7928 70.8013 35.9505 71.4917C36.013 71.7645 35.6631 72.1315 36.0937 72.3346C36.101 72.3377 35.9656 72.6699 35.9615 72.6683C35.2586 72.4148 35.0222 73.4342 34.3459 73.2707C34.3022 73.2598 34.1824 73.5211 34.1153 73.6643C34.0408 73.8216 34.0075 74.0017 33.9159 74.1464C33.8482 74.2547 33.717 74.3224 33.4582 74.538Z" fill="#DDA619"/>
<path fill-rule="evenodd" clip-rule="evenodd" d="M64.9077 91.7106C65.1107 92.1802 65.2586 92.5223 65.47 93.0101C65.6043 92.6545 65.6663 92.4916 65.7319 92.3187C65.7954 92.3577 65.8995 92.3848 65.9131 92.4358C66.0411 92.9226 66.2723 93.3386 66.6237 93.7083C66.8341 93.9296 66.9861 94.2144 67.1293 94.4887C67.3818 94.9745 67.74 95.3062 68.32 95.4092C68.4111 95.2249 68.5048 95.0344 68.5486 94.9459C68.8172 95.1468 69.1093 95.366 69.3269 95.529C69.3269 95.706 69.3457 95.782 69.3243 95.7961C69.0671 95.9632 68.8042 96.121 68.5642 96.2678C68.634 96.6557 68.6964 97.0071 68.7907 97.5335C68.3653 97.3268 68.1326 97.2133 67.7973 97.0498C67.6114 97.4236 67.425 97.7995 67.2246 98.2035C67.034 98.2249 66.8107 98.2509 66.5373 98.2816V98.9127C65.824 99.4468 65.2404 99.375 64.6219 98.8111C63.9481 98.1968 63.1885 97.6777 62.5013 96.9462C62.7902 96.7551 63.0693 96.5708 63.3754 96.3688C63.2192 95.7961 62.9386 95.2848 62.5341 94.785C62.1295 94.2847 61.9077 93.6359 61.6167 93.0726C62.0327 92.5598 62.3612 92.9393 62.7429 93.0997C62.759 92.9565 62.8251 92.8039 62.7798 92.7009C62.495 92.0605 62.6184 91.7439 63.2218 91.7163C63.7883 91.6898 64.3569 91.7106 64.9077 91.7106Z" fill="#DDA619"/>
<path fill-rule="evenodd" clip-rule="evenodd" d="M24.4962 97.3251C24.7341 97.6771 24.9283 97.965 25.1709 98.3237C25.2339 98.1274 25.3203 98.0009 25.3006 97.8952C25.2037 97.3824 25.0782 96.8753 24.947 96.2969H25.7723C25.8436 96.4452 25.9311 96.6269 26.1039 96.9867V95.8267C26.2653 95.77 26.4028 95.7528 26.4991 95.6815C26.7193 95.5175 27.0682 95.1452 27.1041 95.1743C27.4649 95.4711 27.9106 95.292 28.2604 95.4263C28.7821 95.6263 29.2778 95.9751 29.271 96.6405C29.2689 96.8394 29.0055 97.0606 29.045 97.2278C29.0773 97.3637 29.4418 97.3939 29.5506 97.5474C29.6396 97.6729 29.6469 98.0093 29.5553 98.0827C29.1872 98.3763 29.2684 98.7564 29.2934 99.1125C29.3251 99.5571 29.1304 99.8274 28.7358 99.9393C28.3141 100.059 28.2157 100.329 28.1271 100.733C28.0017 101.303 27.6107 101.682 26.9494 101.654C26.7209 101.644 26.484 101.65 26.2622 101.698C25.6978 101.821 24.9866 101.686 24.8106 101.272C24.3811 100.262 23.7595 99.3077 23.875 98.1191C23.9203 97.6557 24.1994 97.524 24.4962 97.3251Z" fill="#DDA619"/>
<path fill-rule="evenodd" clip-rule="evenodd" d="M70.0305 71.7802C70.3835 71.8838 70.7521 71.9916 71.2051 72.1244C71.3972 71.6667 71.4539 71.2273 71.0489 70.8186C71.5466 70.3661 71.8777 71.0482 72.3656 70.9743C72.4109 70.728 72.4593 70.4687 72.5062 70.2146C72.8883 69.8054 73.233 70.5603 73.6948 70.2042C74.167 69.8398 74.2862 70.6265 74.6877 70.7165C74.9131 70.767 75.124 71.0018 75.2848 71.1997C75.818 71.8536 75.9013 72.7788 76.6193 73.35C76.7911 73.4864 76.6994 73.9555 76.738 74.3725C75.9419 73.9815 75.8935 75.2446 75.1266 74.9452C74.8907 75.3268 75.1136 76.0188 74.2508 76.1016C74.1597 75.9464 74.0171 75.7033 73.814 75.3565C73.6412 75.7173 73.5573 75.8923 73.4714 76.0724C72.9883 76.1869 72.767 75.7704 72.6082 75.5054C72.0808 74.6229 71.3977 73.9477 70.5142 73.4197C69.9706 73.0948 69.6723 72.5653 70.0305 71.7802Z" fill="#DDA619"/>
<path fill-rule="evenodd" clip-rule="evenodd" d="M63.1219 34.056C62.4519 34.5809 61.9578 34.9682 61.32 35.4686H60.1272C59.6628 34.7969 59.5118 33.9134 58.8271 33.3589C58.7553 32.4238 58.1087 31.8444 57.5469 31.1925C57.3683 30.9848 57.4068 30.5901 57.3308 30.2038C57.5359 30.1465 57.739 30.1507 57.8452 30.0512C58.9349 29.0323 59.9616 29.6051 60.8301 30.3001C61.5715 30.8931 62.1973 31.6777 62.7226 32.4764C63.0204 32.9289 63.0126 33.5823 63.1219 34.056Z" fill="#DDA619"/>
</svg>
