<svg width="214" height="158" viewBox="0 0 214 158" fill="none" xmlns="http://www.w3.org/2000/svg">
<path fill-rule="evenodd" clip-rule="evenodd" d="M192.11 38.8708C192.04 38.8302 191.97 38.7901 191.901 38.7495C191.732 38.9786 191.602 39.2599 191.386 39.4235C191.15 39.602 190.757 39.5992 190.569 39.8034C190.176 40.2303 189.671 40.4226 189.186 40.6688C189.024 41.4359 188.317 41.6521 187.805 42.0652C187.404 42.3893 186.989 42.6982 186.606 43.0435C186.493 43.1454 186.471 43.3501 186.407 43.5078C186.825 43.3358 187.054 42.9499 187.527 43.0818C187.878 43.18 187.843 42.8637 187.975 42.689C188.086 42.5438 188.578 42.5825 188.591 42.4926C188.666 41.9951 189.064 41.9172 189.386 41.7112C189.75 41.4783 190.138 41.2395 190.406 40.9113C190.678 40.5793 191.031 40.6042 191.348 40.5079C191.269 40.3064 191.194 40.1118 191.07 39.7965H192.11V38.8708ZM72.4024 14.2906C71.5614 14.7503 71.2694 15.587 70.8831 16.3551C70.5191 17.0794 70.3482 17.8986 70.0189 18.6238C69.6489 19.4389 69.4612 20.289 69.4275 21.1203C69.3924 21.9893 68.8143 22.8298 69.2526 23.7357C69.377 23.5199 69.5191 23.3281 69.6002 23.1128C69.6553 22.9672 69.6016 22.7832 69.6366 22.6255C69.7633 22.0534 69.9072 21.4854 70.0439 20.916C70.192 20.302 70.4822 19.7151 70.392 19.0553C71.0353 17.6948 71.2776 16.1656 72.1141 14.8858C72.2334 14.7028 72.3072 14.4893 72.4024 14.2906V14.2906ZM199.611 47.8296C199.774 47.8462 199.885 47.8927 199.928 47.8563C200.633 47.2528 201.365 46.6747 202.023 46.0205C203.387 44.6646 204.48 43.0741 205.495 41.4545C205.952 40.7251 206.489 39.9889 206.701 39.0797C206.796 38.6699 206.457 38.7621 206.415 38.5698C205.564 40.2406 204.805 41.9708 203.6 43.4083C202.339 44.9145 200.971 46.3312 199.611 47.8296V47.8296ZM189.924 16.5397C190.154 16.6914 190.345 16.8218 190.54 16.9445C190.736 17.0676 190.937 17.1824 191.136 17.3008C190.812 17.9011 190.813 17.8956 191.218 18.1925C191.376 18.3087 191.605 18.453 191.626 18.6092C191.709 19.2219 192.079 18.8633 192.251 18.8919C192.213 18.4493 192.177 18.0316 192.141 17.6143C192.672 17.2667 192.159 16.9145 192.124 16.5733C192.103 16.3608 191.938 16.1455 191.786 15.9791C191.757 15.9473 191.49 16.1381 191.299 16.2446C191.16 15.9413 191.05 15.7011 190.871 15.3124C191.231 15.4613 191.418 15.5388 191.602 15.6149C191.822 15.0676 191.217 15.2774 191.169 15.051C191.113 14.7832 191.156 14.4937 191.156 14.1281H189.479C189.4 13.9128 189.357 13.7961 189.25 13.5075C189.185 14.4784 189.185 14.4784 189.604 14.8473C189.653 14.7016 189.702 14.5559 189.754 14.4024C189.976 14.6135 190.174 14.8012 190.35 14.968C190.572 14.8431 190.708 14.767 190.945 14.6333C190.837 15.4069 190.286 15.5512 189.924 15.8371V16.5397ZM173.656 119.196C173.486 119.536 173.255 119.865 173.306 119.917C173.657 120.283 173.467 120.711 173.497 121.103C173.529 121.52 173.598 121.971 173.478 122.351C173.353 122.744 173.935 123.057 173.518 123.415C173.91 123.731 173.723 124.172 173.747 124.562C173.772 124.979 173.753 125.399 173.753 125.818C173.753 127.41 173.75 129.003 173.756 130.595C173.757 130.753 173.812 130.911 173.841 131.069C173.933 130.404 174.171 129.785 174.217 129.169C174.327 127.698 174.2 126.218 174.477 124.747C174.594 124.125 174.337 123.462 174.299 122.84C174.224 121.626 173.944 120.478 173.656 119.196V119.196ZM173.905 148.478C174.219 148.01 174.523 147.637 174.739 147.218C175.449 145.843 176.626 144.695 176.754 143.031C176.759 142.968 176.871 142.918 176.922 142.852C177.294 142.367 177.517 141.819 177.474 141.201C177.428 140.538 177.633 139.945 177.892 139.362C178.013 139.088 178.073 138.842 177.709 138.558C177.545 138.773 177.331 138.96 177.245 139.194C177.111 139.559 177.095 139.967 176.977 140.34C176.651 141.374 176.458 142.457 175.888 143.404C175.81 143.533 175.723 143.711 175.751 143.842C175.895 144.508 175.536 145.095 175.208 145.492C174.529 146.312 174.37 147.427 173.503 148.072L173.905 148.478ZM81.9057 12.7793C81.3331 12.4782 80.8629 12.2306 80.3868 11.9803C80.3053 12.0541 80.1846 12.1638 80.0679 12.2694C80.155 12.3694 80.231 12.4561 80.2743 12.5059C79.7126 12.9517 79.1618 13.3892 78.6169 13.8221C78.662 13.8779 78.8156 14.0176 78.7955 14.0508C78.6128 14.3546 78.3837 14.6298 78.1983 14.9323C77.7841 15.6091 77.3085 16.2775 77.6812 17.1678C78.221 16.7925 78.514 16.0415 79.2912 16.1134C79.2105 15.9036 79.0347 15.657 79.0939 15.5643C79.3727 15.1277 79.6447 14.6197 80.0566 14.3564C80.4757 14.0877 80.8351 13.7018 80.9363 13.35C81.0921 12.8079 81.4611 12.9757 81.9057 12.7793V12.7793ZM116.372 100.523L116.547 100.345C116.481 100.286 116.41 100.171 116.35 100.177C115.87 100.223 115.287 100.217 115.121 100.042C114.465 99.3512 113.652 99.6237 112.944 99.7601C112.288 99.8865 111.69 100.317 111.065 100.611C110.867 100.704 110.671 100.829 110.464 100.859C110.376 100.871 110.266 100.59 110.117 100.821C110.019 100.972 109.939 101.136 109.724 101.525C110.474 101.223 110.967 102.096 111.559 101.436C111.569 101.425 111.852 101.577 111.862 101.668C111.897 102.004 112.175 101.991 112.304 101.914C112.936 101.538 113.639 101.752 114.308 101.645C114.348 101.39 114.385 101.16 114.395 101.096C114.565 101.267 114.773 101.478 114.946 101.651C114.898 101.668 114.753 101.719 114.804 101.701C114.967 101.866 115.177 102.078 115.357 102.261C115.464 101.866 115.082 101.156 115.867 100.906C116.251 101.227 116.655 101.271 117.15 101.042C116.865 100.852 116.618 100.687 116.372 100.523V100.523ZM119.721 104.69C119.402 105.191 118.862 104.54 118.534 104.946C118.147 104.531 117.614 104.786 117.154 104.645C116.927 104.696 117.385 104.016 116.803 104.32C116.436 104.512 115.933 104.437 115.437 104.486C115.381 104.198 115.331 103.942 115.251 103.535C115.148 103.835 115.097 103.982 115.037 104.155C114.727 103.947 114.421 103.742 114.07 103.508C114.137 103.27 114.208 103.015 114.284 102.746C113.804 102.441 113.252 102.298 112.498 102.572C113.008 102.817 113.412 103.011 113.849 103.22C113.72 103.486 113.61 103.714 113.5 103.943C113.275 103.834 113.436 103.146 112.842 103.578C112.944 103.807 113.051 104.048 113.157 104.287C113.063 104.337 112.986 104.409 112.954 104.392C112.545 104.174 112.142 103.943 111.737 103.715C111.361 104.412 110.668 104.666 109.843 104.919C109.923 104.685 109.981 104.515 110.069 104.26C109.834 104.112 109.736 103.641 109.229 103.695C109.301 104.087 109.368 104.455 109.434 104.809C109.028 104.993 108.971 105.103 109.1 105.367C108.524 105.826 108.425 104.943 107.965 104.891C107.92 105.191 107.885 105.422 107.849 105.662C107.599 105.624 107.468 105.297 107.124 105.57C106.646 105.948 106.006 106.117 105.531 106.498C105.051 106.882 104.672 106.693 104.201 106.481C104.185 106.705 104.17 106.903 104.148 107.201C103.498 107.078 102.994 107.508 102.412 107.695C101.021 108.141 99.6851 108.727 98.3225 109.243C97.1043 109.704 95.9143 110.239 94.7061 110.727C93.7107 111.13 92.7152 111.533 91.7061 111.897C90.3353 112.392 89.0159 113.019 87.6624 113.557C86.605 113.977 85.5454 114.453 84.4921 114.915C84.1445 115.067 83.8324 115.377 83.3877 115.265C83.2939 115.242 83.1458 115.302 83.067 115.374C82.1144 116.241 80.7586 116.243 79.7404 116.967C79.6816 117.008 79.5846 117.027 79.514 117.012C78.4798 116.805 77.724 117.494 76.8798 117.868C75.5377 118.463 74.16 118.937 72.7368 119.282C72.437 119.354 72.1163 119.399 71.8525 119.545C71.6024 119.684 71.3368 119.581 71.1181 119.68C70.8375 119.807 70.5519 119.983 70.3478 120.211C70.0607 120.531 69.8744 119.875 69.5382 120.207C69.2926 120.45 68.8056 120.42 68.4703 120.598C67.9218 120.889 67.228 120.772 66.7496 121.276C66.6503 121.381 66.3191 121.359 66.151 121.277C65.8467 121.129 65.7341 121.08 65.5428 121.471C65.438 121.685 64.9268 121.732 64.5879 121.787C63.5114 121.961 62.5433 122.587 61.4189 122.549C60.546 123.162 59.4891 123.099 58.5201 123.359C58.2968 123.419 58.08 123.507 57.854 123.551C57.4321 123.633 57.0066 123.447 56.5675 123.772C56.2586 124.001 55.6964 123.629 55.3101 124.041C55.2353 124.121 54.9037 124.046 54.7543 123.946C54.362 123.681 54.5533 124.106 54.4654 124.153C54.3256 124.228 54.1078 124.145 53.9602 124.212C53.2896 124.519 52.5862 124.647 51.8673 124.553C50.5957 124.387 49.3812 124.874 48.1165 124.843C47.7343 124.834 47.3434 125.105 46.9566 124.812C46.2382 125.186 45.5188 124.654 44.8022 124.815C44.502 124.882 44.1448 125.13 43.9229 125.034C43.3357 124.783 42.7443 124.854 42.1503 124.805C41.5607 124.755 40.9762 124.644 40.389 124.561C40.3106 124.549 40.189 124.568 40.1608 124.524C39.9075 124.132 39.5002 124.365 39.2223 124.266C38.5895 124.039 37.8947 124.182 37.2938 123.818C36.8442 123.545 36.4268 123.325 36.2059 123.045C36.1234 123.222 36.0451 123.392 35.933 123.633C35.0241 122.929 33.6793 123.04 32.9216 121.829H32C31.8843 121.621 31.7927 121.314 31.7025 121.314C31.0693 121.318 30.5435 121.283 30.5895 120.407C30.5964 120.272 30.2524 120.118 29.8369 119.786C30.0009 120.271 30.0711 120.479 30.1955 120.847C29.713 120.523 29.3659 120.305 29.0365 120.062C28.7258 119.833 28.375 119.622 28.149 119.321C27.8852 118.97 27.4424 118.864 27.2133 118.485C27.0082 118.145 26.7859 117.802 26.5071 117.528C26.2142 117.24 26.0652 116.849 25.6748 116.608C25.4155 116.447 25.365 115.941 25.2174 115.582C25.2976 115.495 25.4087 115.373 25.5162 115.256C25.6119 115.342 25.698 115.42 25.8975 115.599C25.8629 115.338 25.8889 115.167 25.8183 115.064C25.5386 114.652 25.0989 114.455 24.6684 114.245C24.4944 114.16 24.2679 114.051 24.2064 113.895C24.1203 113.679 24.2279 113.383 24.1386 113.169C24.0666 112.996 23.6825 112.893 23.6848 112.763C23.6962 112.107 23.2434 111.524 23.4124 110.855C22.9459 109.788 23.2411 108.661 23.165 107.564C23.0238 105.526 23.5919 103.604 24.2547 101.734C25.0014 99.6257 26.1007 97.6935 27.4688 95.9103C28.4219 94.6683 29.3276 93.3972 30.3681 92.2198C31.7918 90.6089 33.0428 88.8501 34.2433 87.0604C34.6109 86.5132 34.7927 85.8659 35.1913 85.314C35.5663 84.7949 35.7918 84.144 35.9909 83.5211C36.1704 82.961 36.241 82.3625 36.3289 81.7766C36.3991 81.3054 36.1927 80.796 36.5699 80.3617C36.6442 80.2769 36.5781 80.0427 36.5389 79.8873C36.4915 79.701 36.3512 79.5282 36.3417 79.3451C36.2027 76.6481 34.7544 74.4167 32.718 72.9373C31.4752 72.0342 30.1458 71.308 28.8766 70.4717C27.0875 69.2938 25.1864 68.3118 23.4074 67.1178C22.0233 66.1892 20.5573 65.3866 19.1295 64.5254C17.5277 63.5595 15.8238 62.7574 14.4024 61.5029C13.6202 61.3738 13.2043 60.6435 12.52 60.3351C11.7551 59.9903 11.243 59.278 10.5419 58.8091C9.73959 58.2725 9.07171 57.5302 8.34234 56.8806C7.9232 56.5067 7.60385 56.0305 7.04895 55.7926C6.76604 55.6718 6.46809 55.3795 6.35921 55.0932C6.13962 54.5146 5.64987 54.2099 5.28131 53.7853C3.51641 51.7499 2.1228 49.5107 1.26904 46.9141C0.915973 45.8409 0.793878 44.7012 0.301854 43.6754C0.474063 42.7635 0.012563 41.9161 0.0462757 41.013C0.0790773 40.1343 -0.102698 39.2164 0.0900111 38.3819C0.378847 37.1311 0.343312 35.7831 1.04718 34.6407C1.2777 32.9155 2.94101 29.8764 3.69727 28.7105C4.58337 27.3454 5.78427 26.2574 6.98016 25.2071C7.58517 24.6756 8.32047 24.156 9.18834 23.9605C9.74825 23.8342 10.2553 23.5447 10.8339 23.4059C11.3646 23.2787 11.776 23.1676 12.2949 23.3787C12.4863 23.4566 12.7765 23.2422 13.0252 23.2266C13.479 23.198 13.9396 23.1837 14.3906 23.2298C14.7282 23.2644 15.0434 23.5968 15.401 23.2842C15.7851 23.6747 16.2767 23.3432 16.6885 23.4797C17.0498 23.5995 17.371 23.8416 17.7313 23.9647C18.3149 24.1629 18.9181 24.3021 19.5094 24.4792C19.6917 24.5336 19.8794 24.6036 20.0347 24.7111C20.9732 25.3597 22.0953 25.5497 23.1258 25.9632C24.2274 26.4058 25.3859 26.7179 26.4474 27.2559C27.2055 27.6404 28.0214 27.8783 28.7968 28.1951C29.6123 28.5284 30.3959 28.9451 31.2269 29.2416C32.9312 29.8497 34.507 30.7413 36.1339 31.5195C38.2123 32.514 40.2865 33.5181 42.3535 34.5369C45.973 36.3202 49.5803 38.1284 53.2039 39.9019C54.0982 40.3399 55.0144 40.7627 55.9643 41.0393C56.4244 41.1734 56.7884 41.4667 57.2394 41.5764C57.9173 41.741 58.5898 41.9295 59.2713 42.0724C59.8112 42.1859 60.4039 42.1434 60.8973 42.3527C61.7674 42.7211 62.7068 42.734 63.5979 43.0286C64.5387 43.3393 65.5464 42.929 66.3437 42.2536C66.6917 41.9586 66.981 41.5944 67.3163 41.2832C68.6316 40.0633 68.9446 38.6055 68.3965 36.9085C68.1551 36.1607 67.8644 35.4161 67.8931 34.6043C67.3943 34.1409 67.9031 33.3853 67.4147 32.9187C67.52 31.9944 67.2562 31.0806 67.586 30.1185C67.8043 29.4822 68.0015 28.7414 67.9081 27.9784C67.6712 26.037 68.0826 24.108 68.2002 22.1782C68.2817 20.8384 68.6198 19.4733 68.9961 18.1391C69.2525 17.2304 69.6603 16.3918 69.9724 15.5219C70.3218 14.5473 71.0074 13.6865 71.6001 12.8133C72.848 10.9766 74.5099 9.58015 76.3459 8.38194C77.6753 7.51429 79.0643 6.75451 80.57 6.26121C81.1955 6.05652 81.8852 5.99013 82.5085 5.81632C83.1987 5.62361 83.9107 5.80895 84.5176 5.57705C85.1659 5.32902 85.7909 5.32763 86.4151 5.38249C87.5945 5.48623 88.769 5.6734 89.9371 5.87441C91.0797 6.07127 92.1376 6.5512 93.2164 6.96428C94.6355 7.50875 95.9662 8.2026 97.174 9.13526C97.3608 9.27956 97.6036 9.37591 97.7412 9.55618C98.4897 10.5359 99.2714 11.4971 99.9325 12.5358C101.053 14.2965 102.321 15.5505 103.877 16.7726C104.13 16.9704 104.297 17.2779 104.506 17.5361C104.914 17.39 105.203 17.2102 105.495 17.2028C105.834 17.1949 106.094 17.041 106.391 16.952C106.696 16.8607 107.072 16.8547 107.373 16.9524C107.695 17.0576 107.87 16.5702 108.214 16.8344C108.31 16.9068 108.598 16.7201 108.798 16.6518C109.017 16.5776 109.257 16.5398 109.447 16.42C109.739 16.236 109.849 16.7832 110.17 16.5486C110.341 16.4241 110.632 16.4808 110.861 16.4241C111.121 16.36 111.368 16.2351 111.63 16.1834C111.995 16.1111 112.317 16.3383 112.65 16.3895C112.882 16.425 113.151 16.017 113.437 15.9446C113.812 15.8501 114.192 15.8792 114.588 15.7146C114.941 15.568 115.561 15.4384 115.74 16.1585C115.752 16.2056 116.106 16.165 116.338 16.165C116.228 15.9354 116.151 15.7731 116.07 15.6035C116.474 15.4357 116.777 14.9036 117.268 15.3743C117.438 15.0991 117.592 15.3983 117.703 15.3845C118.023 15.3444 118.141 14.5565 118.658 15.1185C118.999 14.9756 119.332 14.7962 119.686 14.7091C119.831 14.6736 120.049 14.9304 120.188 14.8907C120.389 14.8331 120.546 14.4795 120.787 14.7718C121.011 15.0433 121.115 14.6307 121.223 14.7192C121.327 14.805 121.348 14.9935 121.406 15.1374C122.245 14.8668 122.245 14.8668 122.448 14.1162C122.663 14.2195 122.889 14.29 123.068 14.4255C123.225 14.544 123.329 14.7354 123.442 14.876C123.578 14.6478 123.718 14.4126 123.853 14.1867C125.598 14.6524 125.728 14.615 126.35 13.4555H127.192C127.248 13.5736 127.325 13.7409 127.415 13.9341C127.571 13.3025 127.571 13.3025 128.199 12.9544C128.464 12.8825 127.991 13.6289 128.557 13.2721C128.864 13.0789 129.215 13.0826 129.571 13.3076C129.73 13.409 130.031 13.3818 130.227 13.3066C130.618 13.1568 131.179 13.1614 131.105 12.4579C131.092 12.3371 131.298 12.1176 131.629 12.3491C131.95 12.5731 132.446 12.5423 132.946 12.6391C132.873 12.4196 132.802 12.208 132.711 11.9342C133.407 12.1886 133.982 12.3574 134.517 11.7746C134.688 11.5879 134.935 12.001 135.305 11.7737C135.812 11.4616 136.494 11.4422 137.186 11.2772C137.205 11.1527 137.24 10.9222 137.272 10.7078C137.333 10.6788 137.369 10.6437 137.401 10.6479C137.7 10.6848 138.863 10.5045 139.206 10.3976C139.795 10.2145 140.391 10.0495 140.987 9.8918C143.778 9.15462 146.452 8.04631 149.213 7.23168C151.174 6.65309 153.136 6.05744 155.128 5.56506C156.804 5.15106 158.492 4.72184 160.148 4.19397C161.073 3.89891 162.058 3.79979 163.014 3.60062C163.315 3.53746 163.605 3.41667 163.906 3.35674C164.407 3.2567 164.914 3.18478 165.418 3.10087C165.922 3.01696 166.448 2.99898 166.926 2.83578C168.002 2.46834 169.152 2.5149 170.237 2.13133C170.845 1.91603 171.569 2.10413 172.241 1.86578C172.79 1.67169 173.494 1.8289 173.972 1.55182C174.525 1.23094 175.113 1.40936 175.678 1.14427C176.24 0.880562 177 1.10186 177.672 0.869498C177.937 0.777753 178.346 0.997202 178.648 1.1558C179.078 1.38216 179.45 1.46929 179.843 1.09632C180.021 0.927587 182.2 0.0442586 182.283 0.126322C182.745 0.582278 183.146 0.170119 183.698 0C183.632 0.272467 183.596 0.437976 183.552 0.60118C183.515 0.737183 183.47 0.870881 183.404 1.08388C183.975 0.893932 183.993 0.494221 183.932 0.049791C184.166 0.185794 184.356 0.355452 184.41 0.31857C184.695 0.124016 184.919 0.208384 185.218 0.305661C185.426 0.372971 185.716 0.149373 185.977 0.0899003C186.135 0.0539402 186.311 0.0599336 186.472 0.0885173C186.708 0.131393 186.891 0.575362 187.18 0.195015C187.454 -0.16597 187.694 0.419535 187.858 0.243884C188.327 -0.25587 188.667 0.322258 189.062 0.35914C189.396 0.39049 189.832 0.45319 189.923 0.958476C189.931 1.00827 190.23 1.08065 190.319 1.02348C190.491 0.913295 190.634 0.716898 190.837 0.907763C191.388 1.42965 192.201 1.49834 192.734 2.05388C192.862 2.18804 193.07 2.34018 193.23 2.32819C193.601 2.30099 193.753 2.57115 193.917 2.77907C194.15 3.07505 194.397 3.33553 194.698 3.56374C195.014 3.80348 195.219 4.11651 195.717 4.14879C196.098 4.17322 196.298 4.73844 196.759 4.90948C198.063 5.39402 199.267 6.1395 200.397 6.91726C201.5 7.67611 202.662 8.37687 203.67 9.30584C204.293 9.88028 204.953 10.4252 205.562 11.0241C206.538 11.9849 207.199 13.202 208.069 14.237C209.28 15.6754 209.974 17.3706 210.779 19.0211C211.502 20.4996 211.94 22.0597 212.312 23.6668C212.54 24.653 212.511 25.7138 213.013 26.6349C213.03 26.6672 213.021 26.7188 213.014 26.7594C212.829 27.7543 213.304 28.6879 213.271 29.6731C213.238 30.6357 213.286 31.6016 213.252 32.5642C213.238 32.951 213.074 33.33 213.022 33.7186C212.974 34.0736 213.008 34.4083 212.797 34.7638C212.639 35.0316 212.725 35.4383 212.552 35.7896C212.45 35.997 212.704 36.37 212.761 36.6752C212.824 37.0131 212.799 37.3308 212.341 37.3543C212.246 38.0325 211.691 38.5663 211.596 39.168C211.409 40.3523 210.493 41.1453 210.232 42.2541C209.671 42.5883 209.802 43.3444 209.288 43.7626C208.886 44.0894 208.702 44.68 208.381 45.1226C208.027 45.6113 207.625 46.0645 207.246 46.5356C207.173 46.6269 207.044 46.7482 207.062 46.8275C207.226 47.5536 206.663 47.862 206.276 48.2645C205.641 48.9252 205.014 49.5973 204.341 50.217C203.191 51.2745 202.024 52.3082 200.711 53.1726C199.848 53.7406 199.148 54.5824 198.254 55.0799C197.26 55.6336 196.362 56.3159 195.404 56.912C194.189 57.6676 192.933 58.3499 191.688 59.0535C190.377 59.7953 189.017 60.4393 187.715 61.1931C186.943 61.6403 186.231 62.2299 185.414 62.5531C184.285 62.9994 183.326 63.7255 182.28 64.2981C180.982 65.0086 179.795 65.9269 178.563 66.76C177.503 67.4764 176.676 68.4524 175.761 69.3325C175.387 69.6926 175.064 70.0891 174.567 70.3468C174.13 70.5745 173.807 71.0406 173.576 71.5404C173.119 72.5242 172.657 73.5071 172.369 74.5537C172.252 74.9773 172.322 75.4504 172.252 75.892C172.199 76.229 172.545 76.7671 171.845 76.8477C171.802 76.8528 171.769 77.1414 171.768 77.2986C171.761 78.1783 171.778 79.0588 171.76 79.9385C171.748 80.5097 172.198 81.0016 172.013 81.5945C172.521 82.0993 172.144 82.8167 172.469 83.4211C172.751 83.9471 172.629 84.6806 172.77 85.303C172.951 86.0983 173.363 86.8663 173.405 87.6611C173.455 88.6062 173.949 89.3831 174.093 90.2876C174.224 91.1128 174.773 91.8703 174.905 92.696C175.081 93.7933 175.438 94.8223 175.727 95.8785C175.756 95.9877 175.595 96.15 175.512 96.3086C175.63 96.3497 175.774 96.3999 175.955 96.4626C175.995 97.2381 176.143 98.0043 176.429 98.7502C176.541 99.0411 176.445 99.4077 176.494 99.7318C176.54 100.038 176.69 100.33 176.725 100.636C176.765 100.995 176.757 101.332 176.964 101.674C177.138 101.959 177.205 102.345 177.216 102.69C177.228 103.064 177.288 103.402 177.481 103.716C177.662 104.01 177.002 104.327 177.526 104.626C177.893 104.836 177.588 105.293 177.747 105.529C178.124 106.093 177.987 106.759 178.181 107.36C178.305 107.747 178.392 108.198 178.465 108.625C178.536 109.046 178.355 109.511 178.685 109.887C178.284 110.103 178.716 110.262 178.73 110.448C178.746 110.639 178.848 110.822 178.872 111.013C178.9 111.237 178.892 111.467 178.885 111.693C178.883 111.783 178.798 111.929 178.827 111.952C179.482 112.477 179.136 113.318 179.445 113.963C179.587 114.258 179.578 114.644 179.676 114.991C179.811 115.473 180.088 115.949 179.986 116.513C179.943 116.749 180.073 117.071 180.226 117.276C180.501 117.642 180.476 118.039 180.456 118.438C180.426 119.042 180.533 119.014 180.675 119.664C180.81 120.283 181.182 120.837 181.188 121.46C181.193 122.024 181.871 122.574 181.248 123.163C181.243 123.169 181.432 123.387 181.531 123.505C181.788 123.81 181.755 124.198 181.853 124.548C181.98 124.995 181.988 125.366 181.735 125.759C181.878 125.792 181.99 125.818 182.103 125.844C182.133 125.874 182.184 125.901 182.188 125.933C182.278 126.651 182.356 127.37 182.453 128.087C182.538 128.723 182.233 129.396 182.685 130.006C182.832 130.205 182.287 130.493 182.677 130.819C182.763 130.89 182.579 131.293 182.519 131.543C182.658 131.592 182.802 131.643 182.94 131.692C182.904 132.413 182.121 133.004 182.661 133.777C182.277 133.937 181.656 133.822 181.715 134.613C181.939 134.502 182.097 134.423 182.243 134.35C182.328 134.414 182.443 134.464 182.441 134.507C182.426 134.788 182.386 135.067 182.352 135.347C182.341 135.436 182.303 135.598 182.317 135.603C182.955 135.819 182.286 136.396 182.662 136.787C183.004 137.145 182.548 137.713 182.409 138.144C182.282 138.539 182.237 138.913 182.195 139.31C182.137 139.865 182.171 140.492 181.916 140.945C181.647 141.425 181.858 141.924 181.637 142.342C181.412 142.766 181.129 143.154 181.207 143.672C180.625 144.346 180.675 145.297 180.204 146.014C180.111 146.155 179.893 146.21 179.723 146.31V147.551C179.394 147.748 178.951 147.824 178.954 148.342C178.351 148.67 179.139 149.039 178.914 149.415C178.813 149.425 178.656 149.487 178.596 149.435C178.437 149.298 178.346 149.161 178.139 149.4C177.994 149.568 178.081 149.614 178.139 149.771C178.292 150.182 177.957 150.758 177.883 150.683C177.418 150.208 177.374 150.823 177.156 150.93C177.071 150.972 176.973 151.141 176.993 151.224C177.187 152.003 176.561 152.196 176.107 152.466C174.81 153.238 174.802 153.223 173.753 153.263C173.753 153.5 173.72 153.747 173.76 153.981C173.82 154.332 173.643 154.559 173.397 154.708C172.638 155.172 171.883 155.653 171.083 156.035C170.324 156.397 169.529 156.797 168.715 156.901C167.5 157.057 166.363 157.603 165.098 157.52C163.902 157.441 162.697 157.491 161.496 157.506C160.218 157.522 159.019 157.132 157.795 156.841C156.961 156.643 156.173 156.382 155.394 156.019C154.91 155.793 154.348 155.643 153.767 155.737C152.991 155.863 152.298 155.543 151.615 155.237C149.747 154.402 148.345 153.368 146.763 152.21C145.954 151.619 145.117 151.086 144.419 150.342C143.267 149.114 142.473 147.763 141.677 145.829C141.265 144.828 140.702 143.877 140.111 142.967C138.965 141.205 138.241 139.514 137.18 137.281C136.296 135.418 135.65 133.473 134.901 131.57C134.507 130.569 134.063 129.574 133.724 128.54C133.387 127.515 133.034 126.495 132.432 125.554C132.074 124.992 131.858 124.281 131.494 123.696C130.814 122.603 130.317 121.423 129.774 120.265C129.116 118.864 128.393 117.483 127.826 116.053C127.32 114.777 126.52 113.679 126.017 112.41C125.52 111.153 124.837 109.97 124.218 108.764C123.627 107.611 122.852 106.642 121.618 106.119C120.878 105.805 120.222 105.349 119.721 104.69V104.69Z" fill="#7ED328"/>
<path d="M111.266 38.248C112.706 37.384 114.002 37.576 115.154 38.824C116.402 40.072 116.45 41.32 115.298 42.568C112.418 45.448 110.402 47.752 109.25 49.48C108.098 51.208 107.378 53.08 107.09 55.096C106.802 56.92 107.33 57.832 108.674 57.832C111.266 57.832 113.474 58.936 115.298 61.144C117.122 63.352 118.034 66.184 118.034 69.64C118.034 73.672 116.882 76.936 114.578 79.432C112.274 81.832 109.202 83.032 105.362 83.032C101.714 83.032 98.5936 81.688 96.0016 79C93.4096 76.216 92.1136 72.472 92.1136 67.768C92.1136 56.152 98.4976 46.312 111.266 38.248ZM144.386 38.248C145.826 37.384 147.122 37.576 148.274 38.824C149.522 40.072 149.522 41.32 148.274 42.568C145.394 45.448 143.378 47.752 142.226 49.48C141.074 51.208 140.402 53.08 140.21 55.096C139.922 56.92 140.45 57.832 141.794 57.832C144.386 57.832 146.546 58.936 148.274 61.144C150.098 63.352 151.01 66.184 151.01 69.64C151.01 73.672 149.858 76.936 147.554 79.432C145.25 81.832 142.226 83.032 138.482 83.032C134.738 83.032 131.57 81.688 128.978 79C126.482 76.216 125.234 72.472 125.234 67.768C125.234 56.152 131.618 46.312 144.386 38.248Z" fill="#F6FFF3"/>
</svg>
