<svg width="130" height="131" viewBox="0 0 130 131" fill="none" xmlns="http://www.w3.org/2000/svg">
<g filter="url(#filter0_d_30_119)">
<path fill-rule="evenodd" clip-rule="evenodd" d="M56.3848 84.7706C56.3848 84.7789 56.3848 84.7874 56.385 84.7957H57.9101V84.7706H56.3848ZM55.0627 41.3236C55.5574 41.1684 55.9845 40.8937 56.3875 40.5761C55.899 40.7426 55.4619 40.9995 55.0627 41.3236ZM83.0496 35.8906C83.0893 36.2278 82.8344 36.5975 83.1769 36.9439C83.3473 36.5414 83.1978 36.216 83.0496 35.8906ZM34.0303 60.9464C34.5812 60.6699 35.1059 60.3713 35.5454 59.9457C34.9928 60.2117 34.4835 60.5444 34.0303 60.9464ZM71.6947 80.6459C71.0662 80.8048 70.4375 80.9637 69.809 81.1227C70.4817 81.1073 71.1274 80.9914 71.6947 80.6459ZM22.4428 52.4665C21.9438 52.9534 21.537 53.7599 21.5295 54.1862C21.8553 53.5727 22.1491 53.0196 22.4428 52.4665ZM36.4248 29.6635C36.8807 29.2373 37.3505 28.8305 37.6642 28.289C37.0791 28.5958 36.7429 29.1258 36.4248 29.6635ZM21.2588 49.5201C20.7956 49.7842 20.4906 50.1705 20.2457 50.6072C20.2072 50.6758 20.13 50.7459 20.2207 50.822C20.3099 50.8969 20.379 50.827 20.425 50.76C20.7057 50.3486 20.9813 49.9337 21.2588 49.5201ZM61.1777 49.5638C61.804 49.3992 62.3373 49.0923 62.7988 48.6628C62.1518 48.7798 61.6763 49.201 61.1777 49.5638ZM62.9307 32.6863C62.9113 32.6392 62.8919 32.5923 62.8725 32.5453L60.8684 33.3769C60.8847 33.417 60.9013 33.457 60.9177 33.4969C61.563 33.1647 62.3214 33.1067 62.9307 32.6863ZM19.9342 54.741C20.2987 53.9349 20.6634 53.1287 21.0277 52.3223C20.4978 53.0532 20.0988 53.8422 19.9342 54.741ZM30.537 47.7796C30.0358 48.488 29.5344 49.1963 29.0332 49.9047C29.7202 49.3336 30.1974 48.6142 30.537 47.7796ZM36.1305 54.5664C36.0987 54.5253 36.0669 54.4843 36.0352 54.4431C35.2971 55.0118 34.5683 55.591 33.9749 56.3286C34.6936 55.7412 35.412 55.1539 36.1305 54.5664ZM59.4592 47.4797C60.0461 47.4094 61.8609 46.2393 62.2353 45.7596C61.2623 46.3624 60.3607 46.9211 59.4592 47.4797ZM60.9805 44.1652C59.9794 44.7753 58.9782 45.3855 57.9769 45.9955C57.9991 46.0315 58.0213 46.0675 58.0434 46.1036C59.1011 45.5837 60.0908 44.9514 60.9805 44.1652ZM35.3303 63.5151C35.354 63.5535 35.3776 63.5921 35.4013 63.6305C36.3344 63.3341 37.0621 62.7029 37.8255 62.1292C37.8028 62.0921 37.7799 62.0552 37.7571 62.0181C36.9483 62.5172 36.1393 63.0163 35.3303 63.5151ZM49.2369 26.0999C48.0034 26.5161 45.7349 27.9948 45.4463 28.5716C46.1177 28.1364 46.7505 27.7562 47.3498 27.3291C47.9644 26.8913 48.6173 26.5163 49.2369 26.0999ZM48.972 17.6609C49.7186 17.3097 50.4738 17.002 51.2505 16.7599C52.0164 16.5211 52.7992 16.3378 53.5746 16.13C51.8437 16.2278 49.7734 16.9231 48.972 17.6609ZM33.8761 57.7732C35.0307 56.8929 36.2247 56.0588 37.2223 54.9933C36.0333 55.8331 34.8659 56.6985 33.8761 57.7732ZM41.1433 28.512C40.0284 29.3687 38.8312 30.1411 38.1531 31.4471C39.1357 30.4543 40.15 29.4938 41.1433 28.512ZM75.6638 23.8455C76.5369 24.8584 77.4567 25.8211 78.552 26.6005C77.7624 25.5042 76.7582 24.6277 75.6638 23.8455ZM53.8495 46.6245C52.7271 46.9238 50.0868 48.5753 49.5678 49.3051C51.0124 48.4007 52.3852 47.5414 53.8495 46.6245ZM24.5901 52.4076C25.3095 52.2189 27.0068 50.0871 27.14 49.213C26.1168 50.2188 25.4309 51.3766 24.5901 52.4076ZM36.4822 37.2036C37.7492 35.6804 39.3118 34.4296 40.4958 32.8394C38.8813 34.0459 37.5704 35.5278 36.4822 37.2036ZM38.3731 55.7054C38.3191 55.6374 38.2652 55.5695 38.2114 55.5018C36.6747 56.6559 35.1376 57.8094 33.7752 59.1825C35.4628 58.221 36.8787 56.9131 38.3731 55.7054ZM30.668 63.957C32.6205 62.6831 34.6583 61.5333 36.5003 59.854C34.281 60.8779 31.0316 63.1493 30.668 63.957ZM55.77 85.1855C59.7052 85.2303 63.638 85.0238 67.5644 84.6513C67.5677 84.6918 67.5711 84.7324 67.5744 84.7728C66.768 84.8496 65.9608 84.9199 65.1552 85.0042C62.665 85.2645 60.1647 85.3215 57.6649 85.3865C55.8136 85.4344 53.9874 85.2359 52.1767 84.8429C50.0256 84.376 47.8308 84.2233 45.6475 83.986C41.454 83.5303 37.2941 82.8716 33.2241 81.7358C32.9033 81.6463 32.5329 81.594 32.2741 81.444C31.6329 81.0723 30.8928 80.9158 30.2937 80.4442C29.975 80.1934 29.5166 80.1482 29.1863 79.8424C28.2901 79.0126 27.1783 78.5155 26.1295 77.9163C24.5121 76.992 22.8649 76.0479 21.6903 74.5775C19.5815 71.9371 17.7154 69.1196 16.6668 65.8722C15.5816 62.5115 15.4482 59.1166 16.4626 55.6782C16.8997 54.1971 17.233 52.6981 18.0651 51.3711C18.4967 50.683 19.0095 50.0568 19.5266 49.4341C20.1466 48.6881 20.6554 47.8594 21.3982 47.2029C22.4265 46.2945 23.4563 45.3995 24.5696 44.5904C25.739 43.7407 26.1537 42.4484 26.4198 41.0776C26.7482 39.3839 26.8896 37.6569 27.3749 35.9903C28.7318 31.3299 31.4184 27.6685 35.4184 24.8975C37.4371 23.4989 39.577 22.3166 41.6691 21.0501C43.6333 19.8612 45.6937 18.8248 47.6461 17.6239C52.0578 14.9097 56.7998 14.8778 61.6635 15.6616C63.8228 16.0095 65.8686 16.771 67.8934 17.5947C70.1048 18.4943 72.3522 19.3003 74.3759 20.607C78.0165 22.9578 80.8756 25.9728 82.5739 30.0138C83.3918 31.9596 84.207 33.907 84.6061 35.9883C84.9987 38.0353 85.0894 40.0885 84.7482 42.1697C84.3365 44.6803 83.5865 47.1143 83.1558 49.6185C83.0729 50.1015 83.042 50.5828 83.0446 51.0686C83.0511 52.3515 82.8793 53.6359 83.0099 54.9158C83.168 56.4637 83.4132 58.0032 83.5676 59.5515C83.8039 61.9222 83.7437 64.2883 83.4815 66.661C83.2349 68.8944 82.7934 71.0808 82.1813 73.2346C81.8161 74.5196 81.3186 75.7696 80.6555 76.9235C80.3431 77.4676 80.2051 78.2062 79.49 78.4694C78.2823 80.478 76.2036 81.3772 74.3155 82.5167C73.4878 83.0161 72.5704 83.3288 71.7019 83.7379C70.9945 84.0711 70.2578 84.0513 69.5423 84.1982C67.5903 84.5995 65.5965 84.7065 63.6127 84.8614C61.0051 85.0649 58.3911 85.1286 55.77 85.1855Z" fill="#7ED328"/>
</g>
<path fill-rule="evenodd" clip-rule="evenodd" d="M59.9605 32.7621L58.8978 36.8371L58.9584 35.9501L53.6135 38.5066V35.0876L47.4659 36.9688V40.148L45.9114 34.349L40.9916 38.9483L43.1345 46.9429C43.2355 46.9955 43.3294 47.0632 43.4129 47.1431C44.1418 47.8483 44.8435 48.4885 45.5206 49.0655L42.9614 39.5113L44.9726 37.6319L47.4659 46.9288V50.5831C48.0657 51.0064 48.6497 51.3735 49.2223 51.6809V38.2686L51.857 37.4632V52.7155C52.5245 52.8718 53.1832 52.9429 53.8436 52.9271L54.7271 39.9205L57.0017 38.8315L56.0699 52.553C56.7786 52.3334 57.4979 52.0155 58.2356 51.6027L60.2801 43.9736L62.7743 43.2253L61.053 49.6469C61.8797 48.9679 62.6776 48.2545 63.4444 47.5084L65.3308 40.4703L63.779 40.8673L66.2108 32.7621H59.9605ZM63.8501 34.5185L61.7924 41.3758L59.3668 41.9958L61.3182 34.5185H63.8501Z" fill="white"/>
<path fill-rule="evenodd" clip-rule="evenodd" d="M63.7904 49.5968C60.3205 52.7848 57.1158 54.6923 53.6539 54.6871C50.1901 54.6818 46.9565 52.7602 43.433 49.5687L45.503 66.1348H61.7239L63.7904 49.5968ZM42.6093 46.8137C41.9242 46.8137 41.3938 47.4144 41.479 48.0942L43.7615 66.3526C43.8145 66.7772 44.0208 67.1678 44.3414 67.4511C44.6621 67.7344 45.0751 67.8909 45.503 67.8912H61.7239C62.152 67.8911 62.5652 67.7347 62.8861 67.4514C63.2069 67.1681 63.4132 66.7773 63.4663 66.3526L65.7497 48.0898C65.7798 47.8541 65.7352 47.6148 65.6222 47.4058C65.5092 47.1967 65.3334 47.0284 65.1196 46.9245C64.9059 46.8206 64.6649 46.7864 64.4307 46.8268C64.1965 46.8671 63.9808 46.9799 63.8141 47.1492C55.9627 54.8741 51.3784 54.8425 43.4128 47.1431C43.1974 46.9339 42.9095 46.8159 42.6093 46.8137Z" fill="white"/>
<defs>
<filter id="filter0_d_30_119" x="0.772278" y="0.218262" width="129.187" height="130.175" filterUnits="userSpaceOnUse" color-interpolation-filters="sRGB">
<feFlood flood-opacity="0" result="BackgroundImageFix"/>
<feColorMatrix in="SourceAlpha" type="matrix" values="0 0 0 0 0 0 0 0 0 0 0 0 0 0 0 0 0 0 127 0" result="hardAlpha"/>
<feOffset dx="15" dy="15"/>
<feGaussianBlur stdDeviation="15"/>
<feComposite in2="hardAlpha" operator="out"/>
<feColorMatrix type="matrix" values="0 0 0 0 0.492318 0 0 0 0 0.829167 0 0 0 0 0.155469 0 0 0 0.3 0"/>
<feBlend mode="normal" in2="BackgroundImageFix" result="effect1_dropShadow_30_119"/>
<feBlend mode="normal" in="SourceGraphic" in2="effect1_dropShadow_30_119" result="shape"/>
</filter>
</defs>
</svg>
