<svg width="26" height="36" viewBox="0 0 26 36" fill="none" xmlns="http://www.w3.org/2000/svg">
<path fill-rule="evenodd" clip-rule="evenodd" d="M18.9689 0L17.9062 4.07498L17.9668 3.18797L12.6219 5.7445V2.32555L6.47431 4.20672V7.38591L4.91984 1.58696L0 6.18625L2.14288 14.1808C2.24388 14.2335 2.33785 14.3011 2.42128 14.381C3.15021 15.0862 3.85191 15.7265 4.52903 16.3034L1.96987 6.74919L3.98101 4.86978L6.47431 14.1667V17.821C7.07414 18.2443 7.65816 18.6114 8.23077 18.9188V5.5065L10.8655 4.70116V19.9534C11.5329 20.1097 12.1916 20.1808 12.852 20.165L13.7355 7.15845L16.0101 6.06944L15.0783 19.7909C15.7871 19.5713 16.5063 19.2534 17.244 18.8407L19.2886 11.2115L21.7827 10.4632L20.0614 16.8848C20.8882 16.2058 21.686 15.4924 22.4528 14.7464L24.3392 7.70822L22.7874 8.10518L25.2192 0H18.9689ZM22.8586 1.75646L20.8009 8.61367L18.3752 9.2337L20.3266 1.75646H22.8586Z" fill="#DDA619"/>
<path fill-rule="evenodd" clip-rule="evenodd" d="M22.7988 16.8348C19.3289 20.0227 16.1243 21.9302 12.6623 21.925C9.19855 21.9197 5.96491 19.9981 2.44145 16.8067L4.51144 33.3727H20.7323L22.7988 16.8348ZM1.61768 14.0517C0.932656 14.0517 0.402205 14.6524 0.487393 15.3321L2.76991 33.5905C2.82297 34.0151 3.02919 34.4057 3.34985 34.689C3.67051 34.9723 4.08356 35.1288 4.51144 35.1292H20.7323C21.1604 35.129 21.5736 34.9726 21.8945 34.6893C22.2153 34.406 22.4217 34.0152 22.4747 33.5905L24.7581 15.3277C24.7883 15.092 24.7437 14.8527 24.6306 14.6437C24.5176 14.4346 24.3418 14.2663 24.1281 14.1624C23.9143 14.0585 23.6733 14.0244 23.4391 14.0647C23.2049 14.105 22.9893 14.2178 22.8225 14.3871C14.9712 22.112 10.3868 22.0804 2.42126 14.381C2.20583 14.1718 1.91796 14.0538 1.61768 14.0517Z" fill="#DDA619"/>
</svg>
