<svg width="33" height="29" viewBox="0 0 33 29" fill="none" xmlns="http://www.w3.org/2000/svg">
<path fill-rule="evenodd" clip-rule="evenodd" d="M7.61796 25.0573C8.67335 25.0573 9.53215 25.9146 9.53215 26.97C9.53215 28.0254 8.67335 28.8842 7.61796 28.8842C6.56257 28.8842 5.70525 28.0254 5.70525 26.97C5.70525 25.9146 6.56257 25.0573 7.61796 25.0573ZM24.2918 25.0573C25.3487 25.0573 26.2075 25.9146 26.2075 26.97C26.2075 28.0254 25.3487 28.8842 24.2918 28.8842C23.2364 28.8842 22.3791 28.0254 22.3791 26.97C22.3791 25.9146 23.2364 25.0573 24.2918 25.0573ZM1.29773 0.0140232L4.37226 0.546154C4.86744 0.633364 5.24436 1.04429 5.28723 1.54686L5.63459 5.68713L6.92626 5.68769C7.13704 5.68778 7.34558 5.68787 7.55192 5.68796L9.9233 5.68909C10.1123 5.68919 10.2992 5.68928 10.4841 5.68938L13.1024 5.69081C13.2669 5.69091 13.4294 5.69101 13.59 5.6911L15.4249 5.69227C15.5702 5.69237 15.7138 5.69247 15.8554 5.69257L17.4693 5.69376C17.5967 5.69386 17.7224 5.69396 17.8464 5.69406L19.2535 5.69527C19.3642 5.69537 19.4732 5.69547 19.5807 5.69557L20.5055 5.69649C20.6036 5.69659 20.7002 5.6967 20.7953 5.6968L21.8664 5.69804C21.9499 5.69815 22.032 5.69825 22.1127 5.69836L23.017 5.69962C23.0871 5.69972 23.156 5.69983 23.2235 5.69994L23.7982 5.7009C23.8585 5.701 23.9175 5.70111 23.9754 5.70122L24.6156 5.70251C24.6645 5.70262 24.7124 5.70273 24.7592 5.70284L25.1532 5.70383C25.194 5.70394 25.2339 5.70405 25.2727 5.70416L25.6951 5.70549C25.7268 5.7056 25.7576 5.70571 25.7875 5.70583L26.0356 5.70684C26.0608 5.70695 26.0852 5.70706 26.1089 5.70718L26.3598 5.70854C26.378 5.70866 26.3956 5.70877 26.4126 5.70889L26.5493 5.70992C26.5628 5.71004 26.5758 5.71016 26.5882 5.71027L26.6866 5.71132C26.6961 5.71144 26.7052 5.71156 26.7139 5.71167L26.7808 5.71273C26.7871 5.71285 26.7931 5.71297 26.7987 5.71309L26.8411 5.71416C26.845 5.71428 26.8486 5.7144 26.8519 5.71452L26.8826 5.71597C26.8845 5.71609 26.8863 5.71621 26.8879 5.71633C26.9023 5.71768 26.9044 5.71792 26.9065 5.71817C27.7298 5.8379 28.4541 6.26804 28.9478 6.93025C29.4415 7.59097 29.6485 8.40543 29.5302 9.22136L28.1275 18.915C27.8629 20.7597 26.2606 22.1507 24.3981 22.1507H8.25533C6.30862 22.1507 4.6605 20.6311 4.50234 18.6874L3.14836 2.58451L0.9208 2.20019C0.316241 2.09377 -0.0872915 1.52173 0.0161783 0.917167C0.122604 0.312608 0.70647 -0.0805779 1.29773 0.0140232ZM6.62972 7.90484L5.82084 7.90434L6.71216 18.5056C6.77719 19.3215 7.44383 19.9335 8.25829 19.9335H24.3951C25.1653 19.9335 25.823 19.3599 25.9324 18.5987L27.3366 8.90356C27.3692 8.67297 27.3115 8.44238 27.1711 8.25614C27.0322 8.06841 26.8282 7.94721 26.5976 7.91469C26.5869 7.9151 26.5614 7.91547 26.5217 7.91581L26.3609 7.91673C26.3273 7.91686 26.2903 7.91699 26.2501 7.91711L25.4127 7.91839C25.342 7.91844 25.2686 7.91848 25.1924 7.91852L23.2236 7.91844C23.1137 7.9184 23.0018 7.91835 22.8878 7.9183L20.6409 7.91693C20.5063 7.91684 20.3702 7.91673 20.2327 7.91663L18.9613 7.91561C18.8165 7.91549 18.6706 7.91537 18.5237 7.91524L17.177 7.91406C17.0249 7.91392 16.8721 7.91378 16.7186 7.91364L15.791 7.91279C15.6353 7.91265 15.4792 7.9125 15.3228 7.91235L13.9072 7.91103C13.7493 7.91088 13.5914 7.91074 13.4334 7.91059L12.4865 7.90971C12.3289 7.90956 12.1715 7.90942 12.0143 7.90927L11.0754 7.90842C10.9197 7.90828 10.7644 7.90814 10.6097 7.90801L9.23427 7.90682C9.08362 7.9067 8.93377 7.90657 8.78482 7.90645L7.04664 7.90513C6.90637 7.90503 6.76737 7.90494 6.62972 7.90484ZM22.0211 11.1508C22.6331 11.1508 23.1297 11.6474 23.1297 12.2594C23.1297 12.8713 22.6331 13.368 22.0211 13.368H17.9237C17.3103 13.368 16.8151 12.8713 16.8151 12.2594C16.8151 11.6474 17.3103 11.1508 17.9237 11.1508H22.0211Z" fill="#339710"/>
<circle cx="28.3005" cy="4.46849" r="4.46849" fill="#DDA619"/>
</svg>
