<svg width="50" height="50" viewBox="0 0 50 50" fill="none" xmlns="http://www.w3.org/2000/svg">
<rect width="50" height="50" rx="25" fill="#DDA619"/>
<path d="M24.4977 20.1387C22.0843 20.1387 20.1365 22.0865 20.1365 24.5C20.1365 26.9135 22.0843 28.8613 24.4977 28.8613C26.9112 28.8613 28.859 26.9135 28.859 24.5C28.859 22.0865 26.9112 20.1387 24.4977 20.1387ZM24.4977 27.3345C22.9369 27.3345 21.6632 26.0608 21.6632 24.5C21.6632 22.9392 22.9369 21.6655 24.4977 21.6655C26.0585 21.6655 27.3322 22.9392 27.3322 24.5C27.3322 26.0608 26.0585 27.3345 24.4977 27.3345ZM29.0376 18.9436C28.4741 18.9436 28.019 19.3987 28.019 19.9622C28.019 20.5257 28.4741 20.9807 29.0376 20.9807C29.6011 20.9807 30.0561 20.5278 30.0561 19.9622C30.0563 19.8284 30.0301 19.6959 29.9789 19.5722C29.9278 19.4485 29.8528 19.3362 29.7582 19.2416C29.6636 19.147 29.5512 19.0719 29.4276 19.0208C29.3039 18.9697 29.1714 18.9435 29.0376 18.9436ZM32.9991 24.5C32.9991 23.3262 33.0097 22.163 32.9438 20.9914C32.8778 19.6305 32.5674 18.4226 31.5722 17.4275C30.575 16.4302 29.3693 16.1218 28.0084 16.0559C26.8346 15.99 25.6715 16.0006 24.4998 16.0006C23.3261 16.0006 22.1629 15.99 20.9913 16.0559C19.6304 16.1218 18.4226 16.4323 17.4274 17.4275C16.4302 18.4248 16.1218 19.6305 16.0559 20.9914C15.99 22.1652 16.0006 23.3283 16.0006 24.5C16.0006 25.6717 15.99 26.837 16.0559 28.0086C16.1218 29.3695 16.4323 30.5774 17.4274 31.5725C18.4247 32.5698 19.6304 32.8782 20.9913 32.9441C22.1651 33.01 23.3282 32.9994 24.4998 32.9994C25.6736 32.9994 26.8368 33.01 28.0084 32.9441C29.3693 32.8782 30.5771 32.5677 31.5722 31.5725C32.5695 30.5752 32.8778 29.3695 32.9438 28.0086C33.0118 26.837 32.9991 25.6738 32.9991 24.5ZM31.1278 29.5141C30.9726 29.9011 30.7855 30.1903 30.4857 30.488C30.1858 30.7879 29.8988 30.975 29.5118 31.1302C28.3933 31.5747 25.7374 31.4747 24.4977 31.4747C23.258 31.4747 20.6 31.5747 19.4815 31.1324C19.0945 30.9771 18.8054 30.79 18.5077 30.4902C18.2078 30.1903 18.0207 29.9033 17.8655 29.5163C17.4232 28.3956 17.5231 25.7397 17.5231 24.5C17.5231 23.2603 17.4232 20.6022 17.8655 19.4837C18.0207 19.0967 18.2078 18.8075 18.5077 18.5098C18.8075 18.2121 19.0945 18.0229 19.4815 17.8676C20.6 17.4253 23.258 17.5253 24.4977 17.5253C25.7374 17.5253 28.3954 17.4253 29.5139 17.8676C29.9009 18.0229 30.1901 18.21 30.4878 18.5098C30.7876 18.8097 30.9747 19.0967 31.1299 19.4837C31.5722 20.6022 31.4723 23.2603 31.4723 24.5C31.4723 25.7397 31.5722 28.3956 31.1278 29.5141Z" fill="white"/>
</svg>
