<svg width="336" height="150" viewBox="0 0 336 150" fill="none" xmlns="http://www.w3.org/2000/svg">
<path d="M182.456 36.92C183.192 36.92 183.56 37.176 183.56 37.688V37.88C183.56 38.232 183.208 38.712 182.504 39.32C181.8 39.928 181.272 40.664 180.92 41.528L169.4 68.984C168.824 70.328 167.864 71 166.52 71C165.368 71 164.504 70.376 163.928 69.128L151.208 41.576C150.856 40.776 150.328 40.056 149.624 39.416C148.952 38.776 148.616 38.264 148.616 37.88V37.688C148.616 37.176 149 36.92 149.768 36.92H160.52C161.256 36.92 161.624 37.176 161.624 37.688V37.88C161.624 38.136 161.48 38.408 161.192 38.696C160.904 38.952 160.616 39.192 160.328 39.416C160.04 39.64 159.8 39.944 159.608 40.328C159.448 40.712 159.464 41.128 159.656 41.576L168.536 62.984L176.936 41.528C177.16 40.952 177.096 40.456 176.744 40.04C176.392 39.592 175.976 39.192 175.496 38.84C175.048 38.488 174.824 38.168 174.824 37.88V37.688C174.824 37.176 175.192 36.92 175.928 36.92H182.456ZM193.399 43.4C192.567 44.168 191.447 44.552 190.039 44.552C188.631 44.552 187.479 44.168 186.583 43.4C185.719 42.6 185.287 41.576 185.287 40.328C185.287 39.112 185.719 38.12 186.583 37.352C187.479 36.552 188.631 36.152 190.039 36.152C191.447 36.152 192.567 36.552 193.399 37.352C194.263 38.12 194.695 39.112 194.695 40.328C194.695 41.576 194.263 42.6 193.399 43.4ZM185.671 71C184.967 71 184.615 70.728 184.615 70.184V69.992C184.615 69.672 184.919 69.176 185.527 68.504C186.135 67.832 186.439 67.112 186.439 66.344V55.496C186.439 54.696 186.135 53.944 185.527 53.24C184.919 52.536 184.615 52.056 184.615 51.8V51.656C184.615 51.336 184.951 51 185.623 50.648L191.623 47.672C192.231 47.416 192.711 47.4 193.063 47.624C193.415 47.816 193.591 48.152 193.591 48.632V66.344C193.591 67.112 193.927 67.832 194.599 68.504C195.271 69.176 195.607 69.672 195.607 69.992V70.184C195.607 70.728 195.239 71 194.503 71H185.671ZM199.211 71C198.475 71 198.107 70.728 198.107 70.184V69.992C198.107 69.672 198.411 69.176 199.019 68.504C199.659 67.832 199.979 67.128 199.979 66.392V42.776C199.979 41.944 199.659 41.192 199.019 40.52C198.411 39.848 198.107 39.384 198.107 39.128V38.936C198.107 38.552 198.427 38.232 199.067 37.976L205.115 35C205.755 34.744 206.235 34.712 206.555 34.904C206.907 35.096 207.083 35.416 207.083 35.864V66.392C207.083 67.128 207.419 67.832 208.091 68.504C208.795 69.176 209.147 69.672 209.147 69.992V70.184C209.147 70.728 208.779 71 208.043 71H199.211ZM212.665 71C211.929 71 211.561 70.728 211.561 70.184V69.992C211.561 69.672 211.865 69.176 212.473 68.504C213.113 67.832 213.433 67.128 213.433 66.392V42.776C213.433 41.944 213.113 41.192 212.473 40.52C211.865 39.848 211.561 39.384 211.561 39.128V38.936C211.561 38.552 211.881 38.232 212.521 37.976L218.569 35C219.209 34.744 219.689 34.712 220.009 34.904C220.361 35.096 220.537 35.416 220.537 35.864V66.392C220.537 67.128 220.873 67.832 221.545 68.504C222.249 69.176 222.601 69.672 222.601 69.992V70.184C222.601 70.728 222.233 71 221.497 71H212.665ZM246.95 66.2C247.046 66.936 247.222 67.528 247.478 67.976C247.766 68.424 248.054 68.712 248.342 68.84C248.63 68.936 248.886 69.064 249.11 69.224C249.334 69.384 249.446 69.608 249.446 69.896C249.446 70.824 247.91 71.288 244.838 71.288C243.43 71.288 242.39 71.112 241.718 70.76C241.078 70.376 240.694 69.688 240.566 68.696C239.318 70.552 237.19 71.48 234.182 71.48C231.494 71.48 229.318 70.856 227.654 69.608C225.99 68.36 225.158 66.568 225.158 64.232C225.126 61.928 225.942 60.136 227.606 58.856C229.27 57.576 231.35 56.936 233.846 56.936C235.958 56.936 237.702 57.416 239.078 58.376L239.03 57.8C238.71 54.76 238.262 52.616 237.686 51.368C237.11 50.12 236.134 49.496 234.758 49.496C233.894 49.496 233.19 49.816 232.646 50.456C232.102 51.096 231.718 51.8 231.494 52.568C231.27 53.336 230.902 54.04 230.39 54.68C229.878 55.32 229.222 55.64 228.422 55.64C227.558 55.64 226.854 55.4 226.31 54.92C225.798 54.408 225.542 53.752 225.542 52.952C225.542 51.288 226.422 49.96 228.182 48.968C229.974 47.976 232.166 47.48 234.758 47.48C237.862 47.48 240.406 48.36 242.39 50.12C244.374 51.88 245.542 54.28 245.894 57.32L246.95 66.2ZM236.294 69.368C237.35 69.368 238.198 68.936 238.838 68.072C239.478 67.176 239.766 66.168 239.702 65.048L239.558 63.368C239.43 61.992 239.014 60.936 238.31 60.2C237.638 59.464 236.79 59.096 235.766 59.096C234.742 59.096 233.894 59.464 233.222 60.2C232.582 60.936 232.262 61.912 232.262 63.128C232.262 64.856 232.63 66.328 233.366 67.544C234.134 68.76 235.11 69.368 236.294 69.368ZM271.772 47.96C272.988 47.96 273.788 48.088 274.172 48.344C274.588 48.568 274.716 48.92 274.556 49.4C274.46 49.88 274.252 50.232 273.932 50.456C273.612 50.648 273.068 50.808 272.3 50.936C271.532 51.064 271.068 51.16 270.908 51.224C272.7 53.08 273.596 55.128 273.596 57.368C273.596 59.224 273.116 60.888 272.156 62.36C271.228 63.8 269.916 64.92 268.22 65.72C272.06 66.584 273.98 68.408 273.98 71.192C273.98 73.208 272.828 74.824 270.524 76.04C268.252 77.288 265.388 77.912 261.932 77.912C258.476 77.912 255.74 77.288 253.724 76.04C251.74 74.792 250.748 73.208 250.748 71.288C250.748 70.552 250.988 69.928 251.468 69.416C251.948 68.872 252.652 68.6 253.58 68.6C254.444 68.6 255.18 68.984 255.788 69.752C256.396 70.488 256.86 71.304 257.18 72.2C257.532 73.128 258.124 73.96 258.956 74.696C259.788 75.464 260.828 75.864 262.076 75.896C263.548 75.896 264.716 75.48 265.58 74.648C266.476 73.816 266.924 72.728 266.924 71.384C266.924 68.856 265.932 67.384 263.948 66.968C263.116 67.032 262.492 67.064 262.076 67.064C258.844 67.064 256.156 66.168 254.012 64.376C251.9 62.552 250.844 60.28 250.844 57.56C250.844 54.552 251.9 52.12 254.012 50.264C256.124 48.408 258.86 47.48 262.22 47.48C263.084 47.48 264.444 47.56 266.3 47.72C268.156 47.88 269.98 47.96 271.772 47.96ZM257.612 54.392C257.612 57.016 258.156 59.432 259.244 61.64C260.364 63.816 261.66 64.904 263.132 64.904C264.252 64.904 265.132 64.472 265.772 63.608C266.444 62.712 266.78 61.544 266.78 60.104C266.78 58.536 266.556 56.952 266.108 55.352C265.66 53.752 264.988 52.392 264.092 51.272C263.196 50.152 262.22 49.592 261.164 49.592C260.076 49.592 259.212 50.024 258.572 50.888C257.932 51.752 257.612 52.92 257.612 54.392ZM296.726 63.704C297.014 63.32 297.366 63.192 297.782 63.32C298.198 63.448 298.39 63.752 298.358 64.232C298.198 65.896 297.238 67.528 295.478 69.128C293.718 70.696 291.43 71.48 288.614 71.48C285.222 71.48 282.438 70.36 280.262 68.12C278.086 65.88 276.998 62.936 276.998 59.288C276.998 55.864 278.134 53.048 280.406 50.84C282.678 48.6 285.414 47.48 288.614 47.48C291.526 47.48 293.766 48.168 295.334 49.544C296.902 50.92 297.686 52.504 297.686 54.296C297.686 55.768 296.982 56.824 295.574 57.464L284.918 62.312C286.23 65.096 288.342 66.488 291.254 66.488C292.47 66.488 293.558 66.232 294.518 65.72C295.51 65.176 296.246 64.504 296.726 63.704ZM287.75 49.592C286.502 49.592 285.51 50.2 284.774 51.416C284.038 52.6 283.67 54.12 283.67 55.976C283.67 57.544 283.83 58.92 284.15 60.104L290.342 56.984C291.174 56.568 291.59 55.816 291.59 54.728C291.59 53.64 291.238 52.52 290.534 51.368C289.83 50.184 288.902 49.592 287.75 49.592ZM166.568 114.48C162.12 114.48 158.28 112.672 155.048 109.056C151.848 105.408 150.248 101.232 150.248 96.528C150.248 91.568 151.72 87.488 154.664 84.288C157.64 81.088 161.48 79.488 166.184 79.488C169.864 79.488 173.064 80.432 175.784 82.32C178.504 84.176 179.864 86.256 179.864 88.56C179.864 89.52 179.56 90.304 178.952 90.912C178.344 91.488 177.512 91.776 176.456 91.776C175.496 91.776 174.648 91.456 173.912 90.816C173.176 90.176 172.536 89.408 171.992 88.512C171.448 87.584 170.872 86.656 170.264 85.728C169.688 84.8 168.92 84.016 167.96 83.376C167 82.736 165.896 82.416 164.648 82.416C162.632 82.416 160.904 83.328 159.464 85.152C158.024 86.944 157.304 89.296 157.304 92.208C157.304 96.784 158.44 100.56 160.712 103.536C163.016 106.512 165.688 108 168.728 108C172.504 108 175.528 105.984 177.8 101.952C178.184 101.408 178.68 101.232 179.288 101.424C179.896 101.584 180.168 102.016 180.104 102.72C179.816 106.016 178.504 108.8 176.168 111.072C173.832 113.344 170.632 114.48 166.568 114.48ZM207.218 109.296C207.282 110.064 207.586 110.784 208.13 111.456C208.674 112.128 208.946 112.64 208.946 112.992V113.184C208.946 113.728 208.594 114 207.89 114H199.538C198.834 114 198.482 113.728 198.482 113.184V112.992C198.482 112.672 198.77 112.176 199.346 111.504C199.954 110.832 200.242 110.112 200.21 109.344L199.73 100.128C199.506 95.52 198.114 93.216 195.554 93.216C194.274 93.216 193.266 93.696 192.53 94.656C191.826 95.616 191.474 96.896 191.474 98.496V109.392C191.474 110.128 191.81 110.832 192.482 111.504C193.186 112.176 193.538 112.672 193.538 112.992V113.184C193.538 113.728 193.154 114 192.386 114H183.506C182.77 114 182.402 113.728 182.402 113.184V112.992C182.402 112.672 182.738 112.176 183.41 111.504C184.082 110.832 184.418 110.128 184.418 109.392V85.488C184.418 84.72 184.05 84.032 183.314 83.424C182.61 82.816 182.258 82.352 182.258 82.032V81.888C182.258 81.408 182.578 81.008 183.218 80.688L189.554 77.904C190.098 77.68 190.514 77.648 190.802 77.808C191.122 77.968 191.282 78.288 191.282 78.768L191.234 93.168C192.738 91.376 194.834 90.48 197.522 90.48C199.954 90.48 202.018 91.28 203.714 92.88C205.41 94.448 206.37 96.928 206.594 100.32L207.218 109.296ZM220.118 86.4C219.286 87.168 218.166 87.552 216.758 87.552C215.35 87.552 214.198 87.168 213.302 86.4C212.438 85.6 212.006 84.576 212.006 83.328C212.006 82.112 212.438 81.12 213.302 80.352C214.198 79.552 215.35 79.152 216.758 79.152C218.166 79.152 219.286 79.552 220.118 80.352C220.982 81.12 221.414 82.112 221.414 83.328C221.414 84.576 220.982 85.6 220.118 86.4ZM212.39 114C211.686 114 211.334 113.728 211.334 113.184V112.992C211.334 112.672 211.638 112.176 212.246 111.504C212.854 110.832 213.158 110.112 213.158 109.344V98.496C213.158 97.696 212.854 96.944 212.246 96.24C211.638 95.536 211.334 95.056 211.334 94.8V94.656C211.334 94.336 211.67 94 212.342 93.648L218.342 90.672C218.95 90.416 219.43 90.4 219.782 90.624C220.134 90.816 220.31 91.152 220.31 91.632V109.344C220.31 110.112 220.646 110.832 221.318 111.504C221.99 112.176 222.326 112.672 222.326 112.992V113.184C222.326 113.728 221.958 114 221.222 114H212.39ZM236.97 114.48C233.418 114.48 230.458 113.296 228.09 110.928C225.754 108.56 224.586 105.728 224.586 102.432C224.586 98.848 225.754 95.968 228.09 93.792C230.458 91.616 233.322 90.512 236.682 90.48C239.434 90.448 241.77 91.088 243.69 92.4C245.642 93.712 246.618 95.312 246.618 97.2C246.618 97.904 246.378 98.496 245.898 98.976C245.418 99.424 244.666 99.632 243.642 99.6C242.874 99.568 242.202 99.296 241.626 98.784C241.05 98.272 240.57 97.68 240.186 97.008C239.834 96.336 239.466 95.664 239.082 94.992C238.698 94.32 238.218 93.76 237.642 93.312C237.066 92.832 236.394 92.592 235.626 92.592C234.282 92.592 233.194 93.2 232.362 94.416C231.562 95.632 231.162 97.152 231.162 98.976C231.162 102.176 231.898 104.736 233.37 106.656C234.874 108.576 236.858 109.536 239.322 109.536C241.85 109.536 243.77 108.416 245.082 106.176C245.274 105.92 245.498 105.776 245.754 105.744C246.042 105.68 246.282 105.744 246.474 105.936C246.698 106.096 246.794 106.336 246.762 106.656C246.602 108.8 245.658 110.64 243.93 112.176C242.234 113.712 239.914 114.48 236.97 114.48ZM273.347 110.4C273.539 110.656 274.019 111.056 274.787 111.6C275.555 112.112 275.939 112.592 275.939 113.04V113.184C275.939 113.728 275.619 114 274.979 114H266.051C265.411 114 265.091 113.712 265.091 113.136V113.04C265.091 112.72 265.315 112.304 265.763 111.792C266.243 111.28 266.339 110.816 266.051 110.4L260.867 103.104L258.035 105.744V109.392C258.035 110.128 258.371 110.832 259.043 111.504C259.747 112.176 260.099 112.672 260.099 112.992V113.184C260.099 113.728 259.731 114 258.995 114H250.163C249.459 114 249.107 113.728 249.107 113.184V112.992C249.107 112.672 249.411 112.176 250.019 111.504C250.627 110.832 250.931 110.128 250.931 109.392V85.776C250.931 84.944 250.563 84.192 249.827 83.52C249.123 82.848 248.771 82.384 248.771 82.128V81.936C248.771 81.552 249.091 81.232 249.731 80.976L256.115 78C256.691 77.744 257.155 77.712 257.507 77.904C257.859 78.096 258.035 78.416 258.035 78.864V102.096L265.619 95.52C265.971 95.264 266.099 94.96 266.003 94.608C265.939 94.256 265.795 93.968 265.571 93.744C265.347 93.488 265.107 93.2 264.851 92.88C264.595 92.528 264.467 92.224 264.467 91.968V91.776C264.467 91.232 264.787 90.96 265.427 90.96H272.291C272.931 90.96 273.251 91.216 273.251 91.728V91.92C273.251 92.272 273.043 92.624 272.627 92.976C272.243 93.296 271.667 93.696 270.899 94.176C270.163 94.656 269.571 95.088 269.123 95.472L265.235 99.072L273.347 110.4ZM294.851 106.704C295.139 106.32 295.491 106.192 295.907 106.32C296.323 106.448 296.515 106.752 296.483 107.232C296.323 108.896 295.363 110.528 293.603 112.128C291.843 113.696 289.555 114.48 286.739 114.48C283.347 114.48 280.563 113.36 278.387 111.12C276.211 108.88 275.123 105.936 275.123 102.288C275.123 98.864 276.259 96.048 278.531 93.84C280.803 91.6 283.539 90.48 286.739 90.48C289.651 90.48 291.891 91.168 293.459 92.544C295.027 93.92 295.811 95.504 295.811 97.296C295.811 98.768 295.107 99.824 293.699 100.464L283.043 105.312C284.355 108.096 286.467 109.488 289.379 109.488C290.595 109.488 291.683 109.232 292.643 108.72C293.635 108.176 294.371 107.504 294.851 106.704ZM285.875 92.592C284.627 92.592 283.635 93.2 282.899 94.416C282.163 95.6 281.795 97.12 281.795 98.976C281.795 100.544 281.955 101.92 282.275 103.104L288.467 99.984C289.299 99.568 289.715 98.816 289.715 97.728C289.715 96.64 289.363 95.52 288.659 94.368C287.955 93.184 287.027 92.592 285.875 92.592ZM323.853 109.344C323.917 110.112 324.221 110.832 324.765 111.504C325.309 112.176 325.581 112.688 325.581 113.04V113.232C325.581 113.776 325.213 114.048 324.477 114.048H316.173C315.437 114.048 315.069 113.776 315.069 113.232V113.04C315.069 112.72 315.357 112.224 315.933 111.552C316.541 110.88 316.829 110.144 316.797 109.344L316.317 100.464C316.093 95.632 314.701 93.216 312.141 93.216C310.861 93.216 309.853 93.696 309.117 94.656C308.413 95.616 308.061 96.896 308.061 98.496V109.392C308.061 110.16 308.397 110.88 309.069 111.552C309.773 112.224 310.125 112.72 310.125 113.04V113.232C310.125 113.776 309.757 114.048 309.021 114.048H300.093C299.357 114.048 298.989 113.776 298.989 113.232V113.04C298.989 112.72 299.325 112.224 299.997 111.552C300.701 110.88 301.053 110.16 301.053 109.392V98.208C301.053 97.728 300.925 97.296 300.669 96.912C300.445 96.528 300.173 96.256 299.853 96.096C299.565 95.904 299.293 95.68 299.037 95.424C298.813 95.168 298.701 94.912 298.701 94.656V94.464C298.701 94.112 299.021 93.776 299.661 93.456L305.373 90.672C305.917 90.416 306.317 90.4 306.573 90.624C306.861 90.816 307.005 91.168 307.005 91.68V94.368C308.381 91.776 310.749 90.48 314.109 90.48C316.541 90.48 318.605 91.296 320.301 92.928C322.029 94.56 323.021 97.152 323.277 100.704L323.853 109.344Z" fill="#339710"/>
<path fill-rule="evenodd" clip-rule="evenodd" d="M109.938 104.23C110.207 103.908 110.364 103.642 110.522 103.351C110.782 102.873 110.966 102.367 111.205 101.886C111.569 101.152 111.758 100.361 112.016 99.5948C112.1 99.3447 112.204 99.077 112.238 98.7962C112.271 98.5248 112.316 98.2482 112.415 97.9864C112.459 97.8689 112.274 97.9204 112.217 98.0319C112.191 98.0806 112.169 98.1356 112.153 98.2049C112.014 98.8197 111.766 99.4053 111.573 100.006C111.368 100.649 111.115 101.272 110.843 101.884C110.698 102.21 110.562 102.551 110.425 102.876C110.256 103.278 109.993 103.667 109.938 104.23ZM98.8547 65.7218C98.9961 65.8269 98.9327 66.0022 99.1395 66.0776C99.3449 66.1521 99.5331 66.1228 99.726 66.1564C99.9955 66.203 100.214 66.0809 100.374 65.9021C100.397 65.8768 100.418 65.8602 100.438 65.8499C100.609 65.763 100.787 65.8312 100.9 65.6768C101.206 65.2596 100.656 64.8951 100.163 65.0508C99.7006 65.1965 99.2462 65.3556 98.8547 65.7218ZM75.5909 117.532C74.7768 117.342 72.9877 117.269 71.8424 117.47C71.5531 117.521 71.62 117.899 71.8575 117.726C71.9619 117.65 72.1555 117.71 72.2939 117.664C72.493 117.599 72.5508 117.861 72.7505 117.816C72.9575 117.769 73.2127 117.857 73.3889 117.77C73.6308 117.65 73.8272 117.819 74.0464 117.77C74.2531 117.724 74.4914 117.656 74.6759 117.717C74.8924 117.789 75.1008 117.57 75.2744 117.734C75.5381 117.983 76.033 117.75 76.394 117.781C76.5298 117.793 76.6659 117.796 76.8025 117.761C76.9942 117.711 76.8803 117.477 76.6843 117.449C76.6271 117.441 76.5695 117.437 76.5122 117.435C76.3083 117.427 76.2334 117.261 76.0707 117.138C76.0617 117.131 76.0513 117.126 76.039 117.121C76.0038 117.108 75.9533 117.091 75.9292 117.12C75.8193 117.25 75.7127 117.383 75.5909 117.532ZM78.1686 122.902C77.5505 122.686 76.9393 122.896 76.3318 122.823C75.7028 122.748 75.0722 122.75 74.4421 122.752C73.9116 122.754 73.3813 122.779 72.8533 122.799C72.6841 122.806 72.5973 123.026 72.7655 123.006C72.9488 122.985 73.1261 123.025 73.3024 123.074C73.8563 123.227 74.5336 123.221 75.1082 123.235C75.4716 123.243 75.8789 123.285 76.2407 123.321C76.2979 123.327 76.3562 123.337 76.4173 123.353C76.4855 123.37 76.557 123.37 76.6301 123.364C76.8794 123.346 77.1541 123.036 77.3963 123.097C77.431 123.106 77.4708 123.12 77.5168 123.138C77.6388 123.185 77.6925 123.141 77.7567 123.027C77.7771 122.991 77.8371 122.959 77.8778 122.952C77.9587 122.938 78.0637 122.92 78.1686 122.902ZM77.2383 98.0047C78.4485 97.7247 79.5819 97.2795 80.7008 96.8022C82.0483 96.2279 83.38 95.6154 84.7229 95.0298C84.9068 94.9497 84.7461 94.7838 84.5582 94.8539C82.1241 95.7617 79.7697 96.8159 77.3947 97.8197C77.3282 97.8476 77.2896 97.9416 77.2383 98.0047ZM62.0909 42.454C61.7842 42.4856 61.497 42.493 61.2197 42.5497C60.9474 42.6051 60.6748 42.5609 60.3977 42.605C60.0268 42.6643 59.6782 42.8079 59.3014 42.8357C58.5542 42.8905 57.8295 43.0715 57.0988 43.2311C55.9537 43.4815 54.8747 43.9197 53.7798 44.3144C53.6769 44.3514 53.7277 44.5014 53.8344 44.4772C56.5706 43.856 59.2459 43.0185 62.0209 42.6076C62.0417 42.6044 62.0534 42.5389 62.0909 42.454ZM42.7341 112.293C42.6374 112.495 42.3457 112.629 42.1631 112.759C42.0888 112.812 42.0086 112.857 41.9059 112.834C41.8666 112.825 41.8318 112.803 41.7995 112.779C41.5318 112.578 41.2587 112.295 40.8691 112.174C40.6568 112.108 40.739 112.417 40.9117 112.557C40.9832 112.615 41.0565 112.668 41.1356 112.706C41.287 112.78 41.3634 112.858 41.3537 113.026C41.351 113.072 41.3925 113.107 41.4278 113.137C41.7156 113.384 41.9825 113.703 42.3216 113.831C42.7197 113.98 42.9766 114.268 43.293 114.495C43.6217 114.732 43.9254 115.004 44.2402 115.26C44.323 115.327 44.4031 115.398 44.4899 115.46C44.5498 115.502 44.6368 115.454 44.6879 115.401C44.6909 115.398 44.6939 115.395 44.6969 115.392C44.7678 115.316 44.7051 115.217 44.608 115.18C44.3943 115.1 44.3992 115.046 44.3534 114.766C44.3242 114.588 44.4849 114.619 44.5161 114.542C44.6031 114.33 44.3638 114.252 44.3143 114.104C44.3078 114.085 44.3021 114.064 44.3029 114.044C44.3106 113.845 44.3041 113.858 44.1666 114.002C44.1357 114.035 44.1023 114.063 44.0632 114.081C43.9315 114.143 43.8174 114.001 43.7373 113.879C43.6586 113.76 43.5868 113.773 43.346 113.851C43.3038 113.864 43.2515 113.887 43.2566 113.931C43.2748 114.087 43.1766 114.142 43.109 114C43.0877 113.956 43.0933 113.895 43.1502 113.799C43.1659 113.772 43.1588 113.732 43.141 113.687C43.0717 113.513 42.8186 113.519 42.7586 113.342C42.7183 113.221 42.7476 113.115 42.7786 113.013C42.8095 112.911 42.8979 112.828 43.0041 112.823C43.1128 112.819 43.1481 112.679 43.0423 112.654C42.9768 112.638 42.9014 112.654 42.8423 112.633C42.7816 112.611 42.7673 112.536 42.7586 112.472C42.7528 112.43 42.7452 112.374 42.7341 112.293ZM56.1647 102.252C56.4676 101.91 56.9277 101.83 57.2767 101.565C57.7052 101.241 58.16 100.953 58.5956 100.638C58.9674 100.369 59.3499 100.12 59.703 99.8201C60.065 99.5128 60.4921 99.287 60.8744 98.9971C61.2701 98.6971 61.6569 98.3772 62.0808 98.1177C62.3185 97.9723 62.5595 97.8404 62.7779 97.6625C63.024 97.4616 63.2769 97.2546 63.5594 97.118C63.8466 96.9791 63.9934 96.6065 64.3869 96.6447C64.482 96.654 64.5435 96.5203 64.5822 96.4242C64.6014 96.3761 64.5943 96.2728 64.6043 96.2721C64.8656 96.2535 65.0221 96.0717 65.2078 95.9134C65.3052 95.8304 65.2904 95.6358 65.1829 95.7053C64.5684 96.102 63.9288 96.4598 63.318 96.862C62.8915 97.1425 62.4228 97.4235 62.0117 97.7262C61.7579 97.913 61.5231 98.1263 61.2815 98.3179C60.8257 98.6792 60.3418 99.01 59.8762 99.3488C59.1013 99.9123 58.3472 100.507 57.5595 101.053C57.0532 101.405 56.2251 101.638 56.1647 102.252ZM28.4547 70.6659C28.4909 70.4991 28.5636 70.3393 28.5425 70.1931C28.5309 70.1126 28.4455 70.0664 28.5029 69.9366C28.7349 69.4108 28.9661 68.8813 29.1395 68.3347C29.2282 68.0552 29.3952 67.7963 29.3805 67.4778C29.3405 66.6254 29.3218 65.7719 29.2974 64.9189C29.2952 64.8388 29.2458 64.7581 29.3134 64.6758C29.4074 64.561 29.3317 64.4298 29.3197 64.3098C29.3011 64.126 29.145 64.1506 29.0998 64.3297C28.8958 65.1376 28.7735 65.9296 28.6619 66.7225C28.5394 67.595 28.4289 68.4695 28.3373 69.3456C28.2956 69.7442 28.2108 70.132 28.1381 70.5235C28.1232 70.6052 28.2216 70.6637 28.3046 70.6645C28.3525 70.6649 28.4009 70.6654 28.4547 70.6659ZM78.6438 65.1881C78.8818 65.3251 78.9934 65.0787 79.1943 65.0755C79.3931 65.0724 79.5946 65.0229 79.7978 64.9648C80.5651 64.7449 81.3523 64.5921 82.1335 64.4209C82.6969 64.2978 83.2703 64.1881 83.8176 64.0337C84.366 63.879 84.933 63.8011 85.4707 63.617C85.7031 63.5377 85.9486 63.5031 86.1906 63.4569C86.7177 63.3564 86.8912 62.6078 86.3652 62.7141C85.827 62.8227 85.2966 62.972 84.7657 63.1145C84.3955 63.2141 84.0362 63.3606 83.6619 63.4346C82.9238 63.5801 82.2198 63.8417 81.5124 64.0763C80.6571 64.3603 79.8023 64.6477 78.9435 64.9209C78.7817 64.9727 78.6946 65.0442 78.6438 65.1881ZM69.0628 118.723C69.4099 118.683 69.7296 118.81 70.0614 118.874C70.4538 118.951 70.8581 118.965 71.2532 119.03C71.5275 119.076 71.8547 118.935 72.1267 118.877C72.606 118.776 73.0962 118.798 73.5929 118.829C73.6598 118.833 73.717 118.878 73.7361 118.943C73.7375 118.948 73.7389 118.952 73.7403 118.957C73.7594 119.021 73.8207 119.063 73.8874 119.058C73.8987 119.057 73.91 119.057 73.9212 119.056C73.9793 119.051 74.0231 118.999 74.0202 118.941C74.0179 118.895 74.0478 118.848 74.0922 118.861C74.1569 118.879 74.202 118.954 74.2617 118.989C74.3282 119.028 74.3625 118.93 74.324 118.864C74.294 118.812 74.3014 118.747 74.3422 118.703C74.5404 118.489 74.5691 118.502 74.8657 118.653C74.92 118.68 74.9644 118.689 75.0054 118.655C75.0221 118.641 75.041 118.621 75.0527 118.603C75.1253 118.489 75.1384 118.372 75.2732 118.374C75.2754 118.374 75.2775 118.374 75.2796 118.374C75.4597 118.375 75.3803 118.16 75.2011 118.141C74.9045 118.11 74.6132 118.18 74.3242 118.174C73.876 118.165 73.4288 118.122 72.9767 118.142C72.5398 118.161 72.1004 118.175 71.6655 118.175C71.1753 118.174 70.6838 118.104 70.1911 118.16C70.0211 118.179 69.8309 118.251 69.6856 118.199C69.4913 118.13 69.3175 118.166 69.1349 118.179C68.8228 118.2 68.7894 118.318 69.0123 118.538C69.0501 118.575 69.0713 118.632 69.0628 118.723ZM54.8259 127.781C54.8687 127.926 54.9671 127.987 55.0942 128.021C55.6311 128.161 56.1483 128.37 56.6687 128.553C57.6064 128.88 58.5588 129.143 59.5167 129.389C61.1529 129.809 62.8053 130.159 64.4776 130.405C65.1921 130.51 65.9092 130.605 66.6284 130.668C67.398 130.735 68.173 130.742 68.9431 130.806C69.6821 130.867 70.421 130.823 71.1594 130.849C71.78 130.871 72.3989 130.755 73.0209 130.836C73.1447 130.852 73.2763 130.817 73.4036 130.8C73.4275 130.796 73.4518 130.794 73.4763 130.792C73.6482 130.78 73.7089 130.578 73.5386 130.604C73.1447 130.664 72.7383 130.64 72.3542 130.613C71.4317 130.549 70.5103 130.594 69.5897 130.556C69.0977 130.536 68.5925 130.563 68.1153 130.5C67.0407 130.358 65.9587 130.292 64.8839 130.144C63.4386 129.946 62.0171 129.639 60.5819 129.4C60.2416 129.343 59.9431 129.17 59.6137 129.116C58.8864 128.998 58.1674 128.841 57.4795 128.587C56.9578 128.395 56.4073 128.316 55.8898 128.09C55.5701 127.95 55.2059 127.812 54.8259 127.781ZM47.991 36.1386C48.1355 36.1204 48.2446 35.9752 48.288 35.8361C48.2934 35.8187 48.299 35.8014 48.3044 35.7841C48.3309 35.6987 48.3874 35.5958 48.4705 35.6288C48.534 35.654 48.5879 35.7208 48.6463 35.7662C48.7693 35.8617 48.7857 35.715 48.7515 35.5631C48.747 35.5431 48.7498 35.5204 48.7647 35.493C48.8502 35.3397 49.0061 35.3008 49.1487 35.2429C49.2223 35.2131 49.3039 35.2089 49.3602 35.2649C49.4416 35.3458 49.5259 35.2555 49.5574 35.1452C49.5825 35.0576 49.6355 34.9862 49.7506 34.9524C50.1355 34.8395 50.4589 34.5427 50.8873 34.5634C51.137 34.5751 51.3666 34.2361 51.5988 34.1434C51.7119 34.0983 51.8359 34.0721 51.9476 34.0295C52.7311 33.73 53.5118 33.4187 54.3107 33.1657C55.3713 32.8299 56.4363 32.4921 57.5215 32.2552C58.2699 32.0918 59.0112 31.8565 59.7867 31.821C59.9472 31.8139 59.8325 31.655 59.672 31.6626C56.7778 31.7986 54.0922 32.7023 51.4772 33.8767C51.3617 33.9286 51.2703 33.828 51.171 33.7495C51.1368 33.7224 51.0814 33.7268 51.0423 33.7461C50.8511 33.8404 50.6623 33.9516 50.4588 34.011C50.3583 34.0404 50.277 34.0801 50.2154 34.1309C50.022 34.2906 49.9192 34.5775 49.6884 34.6754C49.6775 34.6801 49.6667 34.6847 49.6559 34.6892C49.5011 34.7549 49.3417 34.592 49.1851 34.6533C48.975 34.7361 48.736 34.7779 48.5602 34.9147C48.4249 35.02 48.1577 35.1151 48.0032 35.1896C47.8999 35.2394 47.8039 35.3329 47.6983 35.3776C47.5638 35.4345 47.3801 35.4432 47.3846 35.6757C47.389 35.9098 47.2155 35.9991 46.9893 35.9299C46.9737 35.9252 46.9632 35.9141 46.9615 35.8979C46.9575 35.8584 46.8934 35.8345 46.8568 35.8498C46.7396 35.8987 46.5802 35.8702 46.5271 36.0063C46.5202 36.024 46.5176 36.0441 46.5242 36.0619C46.5314 36.081 46.5441 36.0903 46.5597 36.0944C46.7071 36.134 46.632 36.2492 46.5002 36.326C46.2547 36.4691 46.0034 36.6224 45.7319 36.719C45.6851 36.7357 45.6447 36.7546 45.609 36.7758C45.4593 36.865 45.6041 37.0009 45.7716 36.9528C45.909 36.9133 46.021 36.748 46.1539 36.6953C46.1708 36.6886 46.1904 36.6829 46.2131 36.6782C46.3904 36.6418 46.4867 36.7403 46.6073 36.8232C46.6338 36.8416 46.659 36.8355 46.6735 36.8183C46.6928 36.7955 46.6812 36.7678 46.6657 36.7423C46.6031 36.6394 46.6432 36.4995 46.7525 36.4488C47.0978 36.2885 47.4272 36.1104 47.7873 35.9989C47.8841 35.9689 47.9806 36.0379 47.991 36.1386ZM54.1085 37.651C54.6547 37.7499 55.1045 37.5383 55.5688 37.4855C55.9671 37.4401 56.3731 37.3235 56.7718 37.2292C57.2028 37.1274 57.6437 37.1127 58.0666 37.0114C58.6915 36.8612 59.313 36.7074 59.9538 36.6449C60.1236 36.6285 60.3182 36.6548 60.4577 36.58C60.8329 36.3788 61.2413 36.4509 61.631 36.3882C62.0218 36.3254 62.3894 36.1547 62.7963 36.163C62.9038 36.1652 62.978 36.2387 63.1277 36.191C63.5379 36.0613 63.9732 36.0528 64.4008 35.9955C64.8099 35.9406 65.2502 35.7848 65.663 35.7814C65.6812 35.7812 65.6994 35.7808 65.7176 35.7802C66.0134 35.7699 66.0844 35.6093 65.7917 35.5654C65.0663 35.4558 64.3297 35.4166 63.5975 35.456C62.1652 35.5327 60.7514 35.7684 59.3541 36.0811C59.0073 36.1587 58.6523 36.1814 58.3149 36.2728C57.1637 36.5844 56.0179 36.9177 54.8768 37.2646C54.6252 37.3413 54.3607 37.4371 54.1085 37.651ZM86.571 34.2939C86.5164 34.0739 86.4016 34.007 86.2673 33.9835C86.1731 33.9669 86.0804 34.0134 86.02 34.0876C85.9186 34.2122 85.7251 34.2165 85.568 34.2503C85.3679 34.2933 85.1727 34.4804 84.9114 34.4073C84.6399 34.3316 84.3262 34.407 84.0267 34.441C83.9547 34.4492 83.8866 34.5033 83.9252 34.5647C83.9934 34.6736 84.163 34.8 84.2907 34.7854C84.4268 34.7699 84.5592 34.766 84.6788 34.8293C84.7638 34.8744 84.8773 34.878 84.9381 34.8033C84.982 34.7494 85.0565 34.7337 85.124 34.7505C85.3267 34.8011 85.5335 34.7518 85.7393 34.731C85.7465 34.7303 85.7536 34.7298 85.7608 34.7294C86.147 34.711 86.7293 34.5581 87.1037 34.6546C87.3173 34.71 87.5658 34.6353 87.7983 34.6116C88.0446 34.5867 88.29 34.4946 88.5208 34.4741C88.7536 34.4534 88.9776 34.3618 89.2101 34.3791C89.4536 34.3975 89.7096 34.495 89.9334 34.3634C90.0896 34.2717 90.2401 34.2533 90.3952 34.2706C90.5458 34.2873 90.683 34.197 90.8175 34.1272C90.9434 34.0618 91.0888 34.1251 91.2366 34.2044C91.2917 34.2339 91.356 34.1819 91.3496 34.1197C91.3473 34.0977 91.3545 34.0833 91.3729 34.071C91.4607 34.0123 91.5149 34.1767 91.6067 34.1324C91.8812 34.0001 92.1686 33.8332 92.4692 33.8728C92.8069 33.9177 93.1016 33.7837 93.4175 33.752C94.6597 33.6275 95.9029 33.5278 97.1499 33.4706C97.2347 33.4667 97.3373 33.4217 97.4015 33.4548C97.7839 33.6522 98.175 33.5083 98.5631 33.5166C98.9821 33.5253 99.4098 33.4418 99.8105 33.4931C100.363 33.5644 100.909 33.6274 101.447 33.579C101.537 33.5709 101.573 33.6393 101.618 33.7178C101.629 33.7364 101.647 33.7292 101.668 33.7274C101.993 33.7009 102.327 33.587 102.549 33.6977C102.562 33.7041 102.575 33.71 102.587 33.7154C102.785 33.8012 102.893 33.4397 102.678 33.452C102.577 33.4578 102.468 33.3841 102.382 33.331C102.361 33.3179 102.338 33.3069 102.313 33.2969C102.123 33.2182 101.843 33.249 101.643 33.3006C101.559 33.3224 101.467 33.2991 101.357 33.1865C101.304 33.1317 101.236 33.1256 101.184 33.1516C100.794 33.3456 100.397 33.172 100.007 33.1628C99.8626 33.1594 99.7078 33.1619 99.5632 33.1363C99.2831 33.0866 98.9584 33.0157 98.6759 33.0497C98.5679 33.0627 98.4612 33.0599 98.3534 33.0434C98.3072 33.0364 98.2714 32.9905 98.2649 32.9443C98.2545 32.8694 98.1748 32.835 98.1072 32.8687C98.0416 32.9013 97.9761 32.9339 97.9102 32.9667C97.8186 33.0123 97.7102 32.9987 97.6173 32.9558C97.5026 32.9029 97.3776 32.8756 97.2503 32.8525C97.1877 32.8411 97.1239 32.8651 97.0838 32.9145C97.0288 32.982 96.9327 32.9953 96.8475 32.977C96.7121 32.9478 96.5737 32.9778 96.4393 32.9994C96.2725 33.0264 96.119 32.8948 95.9276 33.0321C95.807 33.119 95.6061 33.0944 95.4285 33.1016C95.386 33.1033 95.3427 33.0967 95.3084 33.0716C95.2281 33.013 95.1579 32.929 95.0506 32.8862C95.0084 32.8693 94.9728 32.9084 94.9951 32.9479C95.0251 33.001 94.9433 33.0989 94.8823 33.1005C94.7375 33.1044 94.6164 33.1976 94.4802 33.2028C94.3049 33.2095 94.13 33.2261 93.9553 33.2455C93.6537 33.279 93.22 33.147 93.0415 33.3925C92.8999 33.5877 92.8147 33.2303 92.6678 33.2963C92.65 33.3043 92.6409 33.3419 92.6407 33.3614C92.6401 33.3996 92.607 33.3765 92.569 33.3804C92.1934 33.4194 91.8402 33.4559 91.4886 33.4925C91.4395 33.4976 91.3695 33.5109 91.3709 33.4615C91.3723 33.4109 91.3958 33.3339 91.2965 33.3526C91.0847 33.3754 91.2715 33.6223 91.1699 33.7042C91.1138 33.7495 91.0298 33.7083 91.0282 33.6363C91.0278 33.6171 91.0261 33.5986 91.0167 33.5838C90.9917 33.5445 90.9296 33.5594 90.8973 33.5929C90.8862 33.6044 90.8761 33.6172 90.8663 33.6307C90.782 33.7463 90.748 33.58 90.6124 33.5341C90.4651 33.4923 90.4337 33.5563 90.3956 33.6046C90.36 33.6497 90.3235 33.6921 90.2851 33.7299C90.0282 33.9828 89.5239 33.8352 89.1728 33.9175C88.9658 33.9658 88.7327 33.9249 88.5382 33.9968C87.9097 34.2285 87.2462 34.1622 86.571 34.2939ZM37.1375 41.6284C37.0674 41.4223 37.2126 41.2786 37.3375 41.1987C38.1288 40.6919 38.8304 40.0647 39.6043 39.5323C40.0111 39.2523 40.4179 38.9364 40.7829 38.5851C41.072 38.3068 41.4527 38.1537 41.7528 37.8798C42.0757 37.585 42.4755 37.3856 42.8214 37.111C43.1132 36.8795 43.4816 36.759 43.7888 36.5304C44.2337 36.1991 44.7088 35.9066 45.1857 35.6218C45.4907 35.4397 45.7773 35.2088 46.1396 35.1432C46.235 35.1261 46.2746 35.0554 46.342 35.0151C46.6304 34.8426 46.9127 34.6626 47.224 34.5242C47.875 34.2346 48.498 33.8818 49.1527 33.6022C49.6282 33.3994 50.0888 33.1693 50.5568 32.9531C51.0073 32.7451 51.4622 32.546 51.9207 32.3563C52.9953 31.9115 54.0888 31.5163 55.2078 31.2003C56.0831 30.953 56.9743 30.7775 57.8751 30.6296C58.6051 30.51 59.3338 30.3681 60.0685 30.3469C60.658 30.3298 61.2483 30.2271 61.8282 30.2632C62.375 30.2974 62.9275 30.3019 63.4716 30.3219C64.7316 30.3689 65.9854 30.4671 67.2341 30.6126C67.9692 30.6983 68.7075 30.8003 69.4415 30.8741C70.3023 30.9606 71.1471 31.1441 72.0074 31.2332C72.5109 31.2855 73.0256 31.4069 73.5334 31.4928C74.0252 31.576 74.502 31.7272 74.9988 31.7796C75.495 31.832 75.9832 31.9609 76.4655 32.0622C76.573 32.0848 76.6836 32.102 76.7952 32.1186C77.4792 32.2208 78.2183 32.5026 78.8994 32.6222C79.2481 32.6834 79.6043 32.7701 79.9528 32.8096C80.3121 32.8502 80.6773 32.9015 81.0318 32.9516C81.7515 33.0536 82.4764 33.0863 83.192 33.1859C83.6291 33.2467 84.0517 33.1712 84.4814 33.193C85.2994 33.2344 86.1274 33.1803 86.9447 33.0576C87.272 33.0085 87.606 32.9851 87.932 33.0361C88.1805 33.0746 88.3468 32.881 88.5841 32.8783C88.9678 32.8741 89.3508 32.8055 89.7346 32.772C89.7743 32.7686 89.813 32.7645 89.8496 32.7569C89.9812 32.7295 90.152 32.6893 90.2648 32.7624C90.3087 32.7908 90.3828 32.8162 90.3892 32.7643C90.3904 32.7546 90.3879 32.7435 90.3845 32.7319C90.3667 32.6709 90.4212 32.6343 90.483 32.6194C90.6098 32.5889 90.7418 32.5553 90.8857 32.614C91.055 32.6829 91.1641 32.4999 91.3387 32.5041C91.3655 32.5047 91.3922 32.5037 91.4187 32.5014C92.0941 32.4417 92.8722 32.2955 93.5253 32.1131C93.7001 32.0644 93.8914 32.0506 94.0713 32.1412C94.3307 32.2722 94.689 31.9853 94.9759 31.9393C95.409 31.87 95.8572 31.952 96.2862 31.9424C97.2247 31.9215 98.1672 31.8294 99.116 31.9678C99.5906 32.0371 100.104 31.9715 100.589 32.0327C101.679 32.1706 102.78 32.2343 103.853 32.5039C104.296 32.6152 104.765 32.6276 105.207 32.7428C106.145 32.9869 107.084 33.2303 108.002 33.5463C108.173 33.6055 108.356 33.6322 108.49 33.7862C108.634 33.9515 108.849 33.8065 109.04 33.879C109.266 33.9645 109.429 34.1513 109.688 34.202C109.831 34.2299 110.018 34.3635 110.184 34.3964C110.723 34.5028 111.136 34.9057 111.678 34.9994C111.882 35.0349 112.036 35.2098 112.193 35.3224C112.729 35.7049 113.411 35.8212 113.894 36.276C114.159 36.5252 114.469 36.6729 114.804 36.7648C114.912 36.7944 115.026 36.8201 115.068 36.9006C115.216 37.1825 115.518 37.2621 115.747 37.428C115.992 37.6054 116.296 37.6958 116.529 37.9107C116.765 38.1278 116.995 38.3942 117.28 38.5057C117.79 38.7054 118.148 39.0857 118.553 39.4096C118.756 39.5716 119.046 39.6618 119.093 39.9949C119.117 40.17 119.453 39.9305 119.47 40.2176C119.48 40.3879 119.604 40.4418 119.768 40.4757C119.918 40.5067 119.896 40.784 120.065 40.7843C120.231 40.785 120.447 40.8525 120.434 40.9422C120.402 41.1672 120.71 41.074 120.67 41.2572C120.667 41.272 120.683 41.2988 120.698 41.308C121.182 41.6147 121.441 42.15 121.911 42.4817C122.187 42.6756 122.414 42.9646 122.598 43.2518C122.774 43.5272 122.999 43.7615 123.21 43.9949C123.577 44.4013 123.806 44.9009 124.174 45.3C124.181 45.3067 124.186 45.3142 124.19 45.3222C124.306 45.5514 124.551 45.8404 124.687 46.0585C124.827 46.2811 124.913 46.5318 125.062 46.7485C125.156 46.8851 125.234 47.0411 125.322 47.1988C125.632 47.7549 125.916 48.3224 126.152 48.9082C126.476 49.7138 126.843 50.5147 126.907 51.3984C126.92 51.5804 127.109 51.5934 127.137 51.7512C127.305 52.6694 127.565 53.5668 127.566 54.518C127.567 54.9163 127.713 55.3293 127.717 55.7377C127.725 56.5577 127.843 57.3703 127.73 58.2022C127.664 58.696 127.673 59.2159 127.618 59.7219C127.503 60.7725 127.348 61.8175 126.985 62.8155C126.714 63.5618 126.459 64.314 126.127 65.0394C126.013 65.2889 125.818 65.4877 125.736 65.7265C125.651 65.974 125.525 66.1724 125.362 66.3551C125.233 66.4998 125.308 66.7128 125.141 66.8553C125.011 66.9665 124.861 67.0936 124.878 67.3339C124.885 67.4438 124.711 67.567 124.618 67.6832C124.483 67.8499 124.368 68.0417 124.206 68.1734C124 68.3398 123.889 68.8041 123.709 68.9987C123.684 69.0261 123.66 69.054 123.64 69.0837C123.53 69.2415 123.399 69.3843 123.277 69.5338L122.871 70.0322C122.75 70.1814 122.579 70.3132 122.517 70.4843C122.399 70.8145 122.117 71.0207 121.961 71.3261C121.789 71.6617 121.5 71.941 121.244 72.2288C121.021 72.4799 120.992 72.834 120.738 73.075C120.492 73.3093 120.223 73.5697 120.102 73.8734C119.966 74.2165 119.643 74.4398 119.557 74.7609C119.455 75.1437 119.11 75.3205 118.977 75.6418C118.687 76.3431 118.186 76.9284 117.887 77.61C117.511 78.4702 117.03 79.2784 116.694 80.1608C116.475 80.7351 116.274 81.3187 116.055 81.8929C115.838 82.4619 115.734 83.0779 115.616 83.6803C115.468 84.4337 115.407 85.1974 115.382 85.9668C115.357 86.7391 115.449 87.5057 115.436 88.2751C115.43 88.6257 115.489 88.9698 115.472 89.323C115.454 89.7039 115.584 90.0914 115.568 90.4725C115.558 90.7079 115.563 90.943 115.575 91.178C115.648 92.6053 115.694 94.0541 115.574 95.4781C115.534 95.9495 115.492 96.4209 115.49 96.8936C115.486 97.4862 115.317 98.0774 115.231 98.6702C115.089 99.6551 114.85 100.618 114.618 101.584C114.406 102.473 114.116 103.335 113.789 104.186C113.555 104.798 113.29 105.399 113.067 106.015C112.894 106.494 112.532 106.939 112.316 107.401C112.28 107.477 112.245 107.554 112.208 107.629C112.001 108.059 111.791 108.52 111.48 108.881C111.393 108.981 111.3 109.076 111.212 109.173C111.021 109.38 111.058 109.682 110.831 109.875C110.623 110.052 110.392 110.273 110.315 110.52C110.174 110.969 109.842 111.257 109.575 111.597C108.953 112.388 108.318 113.169 107.668 113.937C107.454 114.19 107.324 114.525 106.983 114.664C106.684 114.785 106.638 115.185 106.306 115.285C106.185 115.322 106.297 115.499 106.177 115.585C105.943 115.753 105.88 116.084 105.555 116.189C105.304 116.269 105.276 116.65 104.956 116.704C104.594 116.765 104.478 117.314 104.192 117.546C104.079 117.638 103.962 117.725 103.852 117.821C103.635 118.011 103.553 118.321 103.238 118.434C102.728 118.618 102.392 119.239 101.968 119.575C101.87 119.653 101.776 119.737 101.698 119.838C101.503 120.089 101.23 120.287 100.97 120.48C100.568 120.779 100.174 121.09 99.7899 121.41C99.6479 121.527 99.5004 121.625 99.3496 121.725C99.2661 121.78 99.1564 121.749 99.0772 121.848C98.5761 122.475 97.8775 122.863 97.2238 123.287C96.8302 123.543 96.4523 123.842 96.0057 124.031C95.8842 124.082 95.7527 124.252 95.6054 124.278C95.1719 124.356 94.8499 124.641 94.5 124.858C94.3068 124.978 94.1199 125.076 93.9065 125.135C93.8659 125.146 93.8018 125.128 93.7821 125.152C93.4133 125.59 92.8536 125.686 92.3772 125.926C91.9171 126.158 91.4128 126.305 90.9595 126.548C90.0455 127.039 89.0469 127.328 88.1176 127.78C87.9631 127.855 87.8005 127.914 87.6465 127.965C87.3773 128.054 87.2771 128.278 87.0624 128.463C86.8525 128.634 86.5064 128.627 86.2665 128.752C86.0397 128.871 85.7666 128.909 85.527 128.996C84.6196 129.327 83.6957 129.62 82.7644 129.875C82.1517 130.043 81.5439 130.225 80.9053 130.319C78.882 130.619 76.8499 130.84 74.8135 131.005C74.0373 131.068 73.2569 131.135 72.4782 131.156C71.8163 131.175 71.149 131.198 70.4904 131.174C68.9501 131.119 67.4087 131.062 65.873 130.89C64.699 130.759 63.5387 130.558 62.3761 130.359C61.6309 130.231 60.8954 130.072 60.164 129.882C58.9947 129.58 57.8346 129.254 56.6792 128.898C55.8608 128.646 55.095 128.265 54.2961 127.975C53.7787 127.787 53.2774 127.535 52.7657 127.332C52.7036 127.307 52.6411 127.283 52.5788 127.259C51.9558 127.018 51.349 126.651 50.7608 126.334C50.4597 126.172 50.1041 126.083 49.8543 125.807C49.7403 125.682 49.5068 125.728 49.3687 125.573C49.3567 125.56 49.3446 125.546 49.3321 125.533C49.1504 125.342 48.6958 125.311 48.5574 125.087C48.462 124.932 48.2884 124.779 48.1174 124.726C47.6981 124.595 47.4482 124.194 47.0759 124.061C46.672 123.917 46.4508 123.557 46.0932 123.412C45.6542 123.234 45.4836 122.775 45.0878 122.569C45.0699 122.559 45.0633 122.528 45.0594 122.492C45.0525 122.429 45.0112 122.369 44.9589 122.405C44.8832 122.458 44.7925 122.437 44.7641 122.35C44.729 122.241 44.6926 122.132 44.6258 122.047C44.5497 121.951 44.4489 121.874 44.3397 121.793C44.2253 121.708 44.0802 121.673 43.9405 121.701C43.7616 121.737 43.5757 121.668 43.4327 121.555C43.3314 121.474 43.2362 121.4 43.1797 121.271C43.1374 121.173 42.8987 121.099 42.7486 121.015C42.5523 120.907 42.5592 120.59 42.3698 120.574C42.1175 120.553 41.9974 120.386 41.842 120.26C40.3924 119.09 38.9476 117.914 37.5074 116.732C37.2653 116.534 36.9351 116.113 36.705 115.901C36.6941 115.891 36.682 115.882 36.6685 115.875C36.4948 115.783 36.3893 115.595 36.267 115.428C36.0587 115.144 35.7173 114.96 35.4422 114.722C35.2584 114.562 35.0464 114.447 34.9487 114.177C34.8707 113.961 34.6028 113.856 34.4477 113.646C34.2607 113.394 34.0765 113.107 33.8158 112.902C33.6395 112.763 33.4688 112.631 33.3757 112.396C33.2319 112.034 32.8136 111.784 32.5838 111.47C32.456 111.295 32.3409 111.11 32.2061 110.94C31.5718 110.143 31.0034 109.303 30.4699 108.437C30.0226 107.711 29.5631 106.993 29.1231 106.263C28.9805 106.026 28.8452 105.781 28.7208 105.536C28.2723 104.654 27.7975 103.776 27.4508 102.852C27.1422 102.029 26.795 101.219 26.5215 100.38C26.3761 99.9336 26.1372 99.5095 25.9683 99.0628C25.5706 98.0107 25.2027 96.9492 24.8888 95.8687C24.6137 94.9212 24.3131 93.9804 24.2233 92.9884C24.1999 92.7276 24.1013 92.4745 24.0612 92.2144C24.0158 91.9183 24.0413 91.6044 23.9549 91.3236C23.8423 90.9582 23.8431 90.5789 23.749 90.2198C23.6759 89.941 23.9261 89.6754 23.6906 89.3859C23.3641 88.9838 23.6238 88.266 23.5456 87.7539C23.5311 87.6586 23.5267 87.5614 23.546 87.4609C23.6194 87.0781 23.4879 86.6561 23.4462 86.2513C23.4047 85.846 23.3181 85.439 23.3314 85.0349C23.3558 84.2915 23.1946 83.56 23.2037 82.8264C23.212 82.1266 23.0673 81.4219 23.2204 80.7293C23.2567 80.5653 23.1144 80.5293 23.1083 80.4017C23.1022 80.2685 23.1965 80.1728 23.1768 80.0455C23.0959 79.5289 23.108 79.0069 23.1103 78.4873C23.1137 77.7487 23.1379 77.0078 23.1354 76.2713C23.1313 75.1262 23.2397 73.9949 23.3549 72.8616C23.43 72.123 23.5313 71.3874 23.625 70.6509C23.7338 69.7957 23.8352 68.9397 23.9621 68.0874C24.0593 67.4378 24.2 66.7948 24.3046 66.1465C24.3875 65.6323 24.4505 65.115 24.5127 64.5979C24.5986 63.8827 24.71 63.1696 24.8003 62.4576C24.9283 61.444 25.1284 60.45 25.3671 59.4631C25.4874 58.9656 25.6045 58.4647 25.7903 57.9775C25.9066 57.6719 26.0128 57.3355 26.0826 57.0154C26.2253 56.3609 26.5331 55.7847 26.7683 55.1737C26.8509 54.9587 26.9828 54.7799 27.0738 54.5819C27.159 54.3964 27.2589 54.225 27.3526 54.0461C27.6329 53.5107 28.0127 53.0274 28.2007 52.4435C28.2129 52.4057 28.2328 52.3655 28.2607 52.338C28.7466 51.8627 28.9489 51.1903 29.4182 50.6973C29.5784 50.5291 29.7031 50.3341 29.8216 50.134C30.1916 49.5092 30.733 48.928 31.0561 48.2777C31.496 47.3929 32.207 46.7179 32.8 45.9528C33.3904 45.1917 34.0148 44.4571 34.6203 43.7073C35.0494 43.1757 35.5999 42.7725 36.104 42.3226C36.2127 42.2252 36.3866 42.1684 36.4805 42.0313C36.6407 41.7969 36.8652 41.6759 37.1375 41.6284Z" fill="#DDA619"/>
<path fill-rule="evenodd" clip-rule="evenodd" d="M68.9347 98.928H79.7599V101.207H68.9347V98.928Z" fill="white"/>
<path fill-rule="evenodd" clip-rule="evenodd" d="M75.7716 94.3699C76.0738 94.3699 76.3636 94.4899 76.5773 94.7036C76.791 94.9173 76.9111 95.2072 76.9111 95.5094V100.067C76.9111 100.37 76.791 100.659 76.5773 100.873C76.3636 101.087 76.0738 101.207 75.7716 101.207C75.4694 101.207 75.1795 101.087 74.9658 100.873C74.7521 100.659 74.6321 100.37 74.6321 100.067V95.5094C74.6321 95.2072 74.7521 94.9173 74.9658 94.7036C75.1795 94.4899 75.4694 94.3699 75.7716 94.3699Z" fill="white"/>
<path fill-rule="evenodd" clip-rule="evenodd" d="M66.6556 77.2776C66.9578 77.2776 67.2477 77.3976 67.4614 77.6113C67.675 77.825 67.7951 78.1149 67.7951 78.4171C67.7951 85.409 73.0983 90.9515 79.4909 90.9515C83.0392 90.9515 86.2367 89.2559 88.3926 86.5451C88.4858 86.428 88.6012 86.3304 88.7321 86.2579C88.8631 86.1854 89.007 86.1394 89.1557 86.1225C89.3044 86.1056 89.455 86.1182 89.5989 86.1595C89.7427 86.2009 89.877 86.2701 89.9941 86.3633C90.1112 86.4566 90.2088 86.5719 90.2813 86.7029C90.3538 86.8338 90.3998 86.9778 90.4167 87.1265C90.4336 87.2752 90.421 87.4258 90.3797 87.5696C90.3384 87.7135 90.2691 87.8478 90.1759 87.9649C87.6246 91.1703 83.7936 93.2305 79.4909 93.2305C71.7058 93.2305 65.5161 86.5303 65.5161 78.4171C65.5161 78.1149 65.6362 77.825 65.8499 77.6113C66.0636 77.3976 66.3534 77.2776 66.6556 77.2776Z" fill="white"/>
<path fill-rule="evenodd" clip-rule="evenodd" d="M63.2099 63.6032C62.7473 63.6032 62.2915 63.7137 61.8803 63.9255C61.4692 64.1373 61.1145 64.4443 60.846 64.8208C60.5774 65.1974 60.4027 65.6327 60.3364 66.0904C60.2701 66.5482 60.3142 67.0151 60.4648 67.4524L61.1166 69.3428C61.79 71.2948 61.8573 73.404 61.3126 75.3947L60.7485 77.4526C59.7207 81.205 59.5304 85.004 61.5428 87.7821C64.4223 91.7601 69.2047 94.3695 74.6321 94.3695C82.4194 94.3695 88.8656 88.9991 90.2911 81.9445C90.6796 80.0165 91.2574 77.9358 92.4903 76.1616L78.6477 78.3916C77.2913 78.6103 75.9005 78.4152 74.6565 77.8319C73.4126 77.2485 72.3732 76.3039 71.674 75.1212L65.7088 65.0287C65.452 64.5945 65.0865 64.2347 64.6483 63.9847C64.2101 63.7347 63.7143 63.6032 63.2099 63.6032ZM58.31 68.1954C57.1512 64.8304 59.6512 61.3242 63.211 61.3242C65.0433 61.3242 66.74 62.2928 67.6721 63.8687L73.6374 73.9612C74.1034 74.7498 74.7962 75.3797 75.6255 75.7687C76.4549 76.1578 77.3821 76.2879 78.2865 76.1422L92.6213 73.8324C94.4787 73.5328 95.7435 75.6659 94.5904 77.1529C93.4851 78.5784 92.9278 80.4005 92.5256 82.3946C90.879 90.5454 83.4723 96.6485 74.6321 96.6485C68.4629 96.6485 62.9979 93.6779 59.6968 89.1187C57.0486 85.461 57.4793 80.7606 58.5505 76.8498L59.1145 74.793C59.5391 73.2445 59.4863 71.6038 58.963 70.0858L58.3112 68.1954H58.31Z" fill="white"/>
<path fill-rule="evenodd" clip-rule="evenodd" d="M64.4747 57.9061C65.9105 56.4703 68.3649 57.4868 68.3649 59.5173V61.3246H70.1722C72.2027 61.3246 73.2192 63.779 71.7834 65.2148L69.7403 67.2579C69.5254 67.4655 69.2375 67.5803 68.9388 67.5777C68.64 67.5751 68.3542 67.4553 68.1429 67.244C67.9317 67.0328 67.8118 66.747 67.8092 66.4482C67.8066 66.1494 67.9215 65.8616 68.1291 65.6467L70.1722 63.6036H68.3649C67.7605 63.6036 67.1808 63.3635 66.7534 62.9361C66.3261 62.5087 66.0859 61.929 66.0859 61.3246V59.5173L56.3023 69.301H59.249C59.5512 69.301 59.841 69.4211 60.0547 69.6348C60.2684 69.8485 60.3885 70.1383 60.3885 70.4405C60.3885 70.7427 60.2684 71.0326 60.0547 71.2463C59.841 71.46 59.5512 71.58 59.249 71.58H56.3023C54.2717 71.58 53.2552 69.1256 54.691 67.6898L64.4747 57.9061Z" fill="white"/>
<path d="M64.3766 65.8824C64.3766 66.1846 64.2566 66.4745 64.0429 66.6882C63.8292 66.9019 63.5394 67.0219 63.2371 67.0219C62.9349 67.0219 62.6451 66.9019 62.4314 66.6882C62.2177 66.4745 62.0977 66.1846 62.0977 65.8824C62.0977 65.5802 62.2177 65.2904 62.4314 65.0767C62.6451 64.863 62.9349 64.7429 63.2371 64.7429C63.5394 64.7429 63.8292 64.863 64.0429 65.0767C64.2566 65.2904 64.3766 65.5802 64.3766 65.8824Z" fill="white"/>
</svg>
