<svg width="571" height="168" viewBox="0 0 571 168" fill="none" xmlns="http://www.w3.org/2000/svg">
<path d="M570.439 5.34297C570.629 4.82423 570.362 4.25006 569.843 4.06054L561.389 0.972289C560.871 0.782777 560.297 1.04968 560.107 1.56845C559.917 2.08719 560.184 2.66134 560.703 2.85085L568.217 5.59598L565.472 13.1103C565.283 13.629 565.55 14.2032 566.068 14.3927C566.587 14.5822 567.161 14.3153 567.351 13.7965L570.439 5.34297ZM8.15196 57.7418C7.73324 57.3817 7.10186 57.4292 6.74174 57.8479L0.873441 64.6716C0.513328 65.0904 0.560857 65.7218 0.979605 66.0819C1.39832 66.442 2.02971 66.3944 2.38982 65.9757L7.6061 59.9102L13.6716 65.1265C14.0904 65.4866 14.7217 65.439 15.0818 65.0203C15.4419 64.6016 15.3944 63.9702 14.9757 63.6101L8.15196 57.7418ZM569.078 4.09304C567.539 4.80866 566.003 5.522 564.471 6.23307L565.313 8.04715C566.846 7.33594 568.382 6.62244 569.921 5.90664L569.078 4.09304ZM555.325 10.4721C552.291 11.8759 549.272 13.2706 546.269 14.6562L547.106 16.4723C550.111 15.0864 553.13 13.6913 556.165 12.2871L555.325 10.4721ZM537.302 18.7855C534.277 20.1763 531.267 21.5576 528.272 22.9294L529.105 24.7476C532.101 23.3755 535.111 21.9938 538.137 20.6026L537.302 18.7855ZM519.094 27.1262C516.05 28.5151 513.023 29.894 510.012 31.2628L510.84 33.0835C513.852 31.7143 516.88 30.335 519.924 28.9457L519.094 27.1262ZM501.027 35.3389C497.986 36.7154 494.962 38.0814 491.954 39.4368L492.776 41.2602C495.785 39.9043 498.81 38.5378 501.851 37.1609L501.027 35.3389ZM482.757 43.5723C479.709 44.9397 476.678 46.296 473.664 47.6412L474.48 49.4675C477.494 48.1218 480.527 46.765 483.576 45.3971L482.757 43.5723ZM464.675 51.6434C461.599 53.0097 458.54 54.3641 455.501 55.7065L456.308 57.5361C459.35 56.193 462.409 54.8381 465.487 53.4713L464.675 51.6434ZM446.302 59.7567C443.255 61.0946 440.226 62.4201 437.216 63.7333L438.016 65.5664C441.027 64.2526 444.057 62.9264 447.106 61.5881L446.302 59.7567ZM428.202 67.6533C425.082 69.0059 421.982 70.3449 418.902 71.6703L419.693 73.5074C422.774 72.1813 425.876 70.8416 428.998 69.4883L428.202 67.6533ZM409.724 75.6056C406.685 76.9038 403.666 78.1883 400.668 79.4591L401.448 81.3006C404.448 80.029 407.469 78.7437 410.51 77.4449L409.724 75.6056ZM391.426 83.3592C388.317 84.6659 385.229 85.9574 382.164 87.2338L382.932 89.0801C386 87.8029 389.089 86.5105 392.201 85.203L391.426 83.3592ZM373.034 91.0172C369.945 92.2908 366.879 93.5486 363.837 94.7904L364.592 96.6421C367.637 95.3993 370.705 94.1407 373.796 92.8662L373.034 91.0172ZM354.5 98.5794C351.412 99.8255 348.349 101.055 345.309 102.267L346.05 104.124C349.092 102.911 352.158 101.681 355.249 100.434L354.5 98.5794ZM336.098 105.916C332.94 107.159 329.808 108.383 326.703 109.588L327.427 111.453C330.535 110.247 333.669 109.021 336.83 107.777L336.098 105.916ZM317.467 113.146C314.343 114.34 311.247 115.514 308.179 116.668L308.883 118.54C311.955 117.385 315.054 116.21 318.181 115.014L317.467 113.146ZM298.747 120.184C295.632 121.334 292.547 122.463 289.49 123.57L290.171 125.451C293.232 124.342 296.321 123.212 299.44 122.06L298.747 120.184ZM280.058 126.951C276.88 128.077 273.733 129.18 270.619 130.258L271.273 132.148C274.392 131.068 277.543 129.964 280.727 128.836L280.058 126.951ZM261.354 133.425C258.111 134.52 254.904 135.586 251.732 136.625L252.355 138.526C255.532 137.485 258.745 136.416 261.993 135.32L261.354 133.425ZM242.325 139.659C239.106 140.68 235.926 141.671 232.783 142.632L233.368 144.544C236.518 143.581 239.705 142.588 242.93 141.565L242.325 139.659ZM223.224 145.497C220.016 146.438 216.85 147.346 213.725 148.221L214.264 150.147C217.398 149.269 220.572 148.359 223.787 147.416L223.224 145.497ZM204.028 150.864C200.811 151.716 197.64 152.531 194.513 153.309L194.996 155.25C198.133 154.469 201.314 153.652 204.54 152.797L204.028 150.864ZM184.706 155.661C181.458 156.409 178.261 157.114 175.115 157.777L175.528 159.734C178.686 159.069 181.895 158.361 185.155 157.609L184.706 155.661ZM165.238 159.746C161.94 160.365 158.701 160.934 155.521 161.451L155.842 163.425C159.039 162.905 162.294 162.334 165.607 161.712L165.238 159.746ZM145.636 162.919C142.274 163.369 138.982 163.757 135.76 164.083L135.961 166.073C139.206 165.745 142.519 165.354 145.901 164.902L145.636 162.919ZM125.959 164.896C122.534 165.114 119.194 165.256 115.937 165.32L115.977 167.32C119.265 167.255 122.634 167.112 126.087 166.891L125.959 164.896ZM106.041 165.27C102.678 165.164 99.4121 164.967 96.2429 164.677L96.0606 166.668C99.2719 166.962 102.577 167.162 105.978 167.269L106.041 165.27ZM86.3651 163.423C83.0116 162.87 79.7791 162.199 76.665 161.409L76.1732 163.347C79.3453 164.152 82.6335 164.835 86.0398 165.396L86.3651 163.423ZM67.2373 158.524C64.0845 157.381 61.0716 156.094 58.195 154.662L57.3038 156.452C60.2512 157.919 63.3342 159.236 66.5555 160.405L67.2373 158.524ZM49.6934 149.749C46.9514 147.921 44.356 145.931 41.9035 143.777L40.5839 145.28C43.1032 147.492 45.7689 149.536 48.5842 151.413L49.6934 149.749ZM34.9691 136.822C32.8367 134.384 30.8375 131.785 28.9686 129.024L27.3125 130.146C29.226 132.972 31.2752 135.636 33.4635 138.139L34.9691 136.822ZM23.9042 120.551C22.4048 117.705 21.0142 114.718 19.7303 111.589L17.88 112.348C19.1867 115.532 20.604 118.577 22.1347 121.483L23.9042 120.551ZM16.3747 102.341C15.401 99.2912 14.5116 96.1263 13.705 92.8459L11.7629 93.3234C12.5797 96.6451 13.4811 99.8537 14.4694 102.95L16.3747 102.341ZM11.6212 83.1423C11.0265 79.9403 10.4998 76.6414 10.0397 73.2451L8.05783 73.5135C8.52203 76.9403 9.05383 80.2715 9.65481 83.5075L11.6212 83.1423ZM8.92576 63.4922C8.76869 61.8243 8.62586 60.1352 8.49712 58.4249L6.50275 58.575C6.63241 60.2975 6.77629 61.999 6.93457 63.6797L8.92576 63.4922Z" fill="#7ED328"/>
</svg>
