<svg width="570" height="167" viewBox="0 0 570 167" fill="none" xmlns="http://www.w3.org/2000/svg">
<path d="M0.0607425 4.97103C-0.128763 4.45229 0.138133 3.87811 0.656884 3.6886L9.11044 0.600341C9.6292 0.410828 10.2034 0.677737 10.3929 1.1965C10.5824 1.71524 10.3155 2.28939 9.79672 2.47891L2.28245 5.22403L5.02758 12.7383C5.21708 13.2571 4.95019 13.8312 4.43143 14.0207C3.91268 14.2103 3.33852 13.9434 3.149 13.4246L0.0607425 4.97103ZM562.348 57.3698C562.767 57.0097 563.398 57.0573 563.758 57.476L569.626 64.2997C569.987 64.7184 569.939 65.3498 569.52 65.7099C569.102 66.07 568.47 66.0225 568.11 65.6038L562.894 59.5382L556.828 64.7545C556.41 65.1146 555.778 65.0671 555.418 64.6484C555.058 64.2296 555.105 63.5982 555.524 63.2381L562.348 57.3698ZM1.42157 3.72109C2.96101 4.43671 4.49669 5.15005 6.0286 5.86112L5.18654 7.67521C3.65429 6.96399 2.11828 6.25049 0.578488 5.5347L1.42157 3.72109ZM15.1749 10.1001C18.2087 11.504 21.2275 12.8987 24.2313 14.2843L23.3936 16.1004C20.389 14.7144 17.3695 13.3194 14.335 11.9152L15.1749 10.1001ZM33.198 18.4135C36.2232 19.8043 39.2331 21.1856 42.2276 22.5574L41.3946 24.3757C38.3993 23.0035 35.3886 21.6218 32.3626 20.2307L33.198 18.4135ZM51.4061 26.7543C54.4495 28.1432 57.4767 29.522 60.4879 30.8908L59.6602 32.7115C56.6481 31.3423 53.62 29.9631 50.5758 28.5738L51.4061 26.7543ZM69.4733 34.9669C72.514 36.3434 75.538 37.7094 78.5455 39.0649L77.7237 40.8882C74.7152 39.5323 71.6902 38.1659 68.6485 36.7889L69.4733 34.9669ZM87.7426 43.2003C90.7908 44.5677 93.8218 45.924 96.8354 47.2692L96.0202 49.0956C93.0054 47.7499 89.9734 46.393 86.924 45.0251L87.7426 43.2003ZM105.825 51.2715C108.901 52.6378 111.959 53.9921 114.999 55.3346L114.191 57.1641C111.15 55.8211 108.091 54.4662 105.013 53.0994L105.825 51.2715ZM124.198 59.3848C127.245 60.7226 130.274 62.0481 133.284 63.3614L132.484 65.1945C129.473 63.8806 126.443 62.5545 123.394 61.2161L124.198 59.3848ZM142.298 67.2813C145.418 68.6339 148.518 69.973 151.598 71.2984L150.807 73.1354C147.726 71.8093 144.624 70.4697 141.502 69.1164L142.298 67.2813ZM160.776 75.2337C163.815 76.5318 166.834 77.8163 169.832 79.0872L169.052 80.9286C166.051 79.657 163.031 78.3718 159.99 77.0729L160.776 75.2337ZM179.074 82.9873C182.183 84.2939 185.271 85.5855 188.336 86.8618L187.567 88.7082C184.5 87.431 181.41 86.1386 178.299 84.8311L179.074 82.9873ZM197.466 90.6453C200.555 91.9189 203.62 93.1766 206.663 94.4184L205.907 96.2701C202.862 95.0274 199.795 93.7688 196.704 92.4942L197.466 90.6453ZM215.999 98.2075C219.087 99.4535 222.151 100.683 225.191 101.895L224.45 103.752C221.408 102.539 218.342 101.309 215.251 100.062L215.999 98.2075ZM234.402 105.544C237.56 106.787 240.692 108.011 243.797 109.216L243.073 111.081C239.965 109.875 236.831 108.649 233.67 107.405L234.402 105.544ZM253.033 112.774C256.156 113.968 259.253 115.142 262.321 116.297L261.617 118.169C258.545 117.013 255.446 115.838 252.319 114.642L253.033 112.774ZM271.753 119.812C274.868 120.962 277.953 122.091 281.01 123.198L280.329 125.079C277.268 123.97 274.179 122.84 271.06 121.688L271.753 119.812ZM290.442 126.579C293.62 127.706 296.767 128.808 299.881 129.886L299.227 131.776C296.108 130.696 292.956 129.592 289.773 128.464L290.442 126.579ZM309.146 133.053C312.389 134.148 315.596 135.214 318.768 136.253L318.145 138.154C314.968 137.113 311.755 136.045 308.507 134.948L309.146 133.053ZM328.175 139.287C331.393 140.308 334.574 141.299 337.717 142.26L337.132 144.172C333.982 143.209 330.795 142.216 327.57 141.193L328.175 139.287ZM347.276 145.125C350.484 146.066 353.65 146.974 356.775 147.849L356.236 149.775C353.102 148.897 349.928 147.987 346.713 147.044L347.276 145.125ZM366.472 150.492C369.689 151.344 372.86 152.159 375.987 152.937L375.504 154.878C372.367 154.097 369.186 153.28 365.959 152.425L366.472 150.492ZM385.794 155.289C389.042 156.037 392.239 156.742 395.384 157.405L394.972 159.362C391.814 158.697 388.605 157.989 385.345 157.238L385.794 155.289ZM405.262 159.374C408.56 159.993 411.799 160.562 414.979 161.079L414.658 163.053C411.461 162.533 408.206 161.962 404.893 161.34L405.262 159.374ZM424.864 162.547C428.226 162.997 431.517 163.385 434.74 163.711L434.539 165.701C431.294 165.373 427.981 164.982 424.599 164.53L424.864 162.547ZM444.541 164.524C447.965 164.742 451.306 164.884 454.563 164.948L454.523 166.948C451.235 166.883 447.866 166.74 444.413 166.52L444.541 164.524ZM464.459 164.898C467.822 164.792 471.088 164.595 474.257 164.305L474.439 166.297C471.228 166.59 467.923 166.79 464.522 166.897L464.459 164.898ZM484.135 163.051C487.488 162.498 490.721 161.827 493.835 161.037L494.327 162.975C491.155 163.78 487.866 164.463 484.46 165.024L484.135 163.051ZM503.263 158.152C506.415 157.009 509.428 155.722 512.305 154.29L513.196 156.081C510.249 157.548 507.166 158.864 503.944 160.033L503.263 158.152ZM520.806 149.377C523.549 147.549 526.144 145.559 528.596 143.405L529.916 144.908C527.397 147.121 524.731 149.164 521.916 151.041L520.806 149.377ZM535.531 136.45C537.663 134.012 539.662 131.413 541.531 128.653L543.187 129.774C541.274 132.6 539.225 135.264 537.036 137.767L535.531 136.45ZM546.596 120.179C548.095 117.333 549.486 114.346 550.77 111.217L552.62 111.976C551.313 115.16 549.896 118.205 548.365 121.112L546.596 120.179ZM554.125 101.969C555.099 98.9192 555.988 95.7543 556.795 92.4739L558.737 92.9515C557.92 96.2732 557.019 99.4818 556.03 102.578L554.125 101.969ZM558.879 82.7704C559.473 79.5683 560 76.2694 560.46 72.8731L562.442 73.1416C561.978 76.5683 561.446 79.8995 560.845 83.1356L558.879 82.7704ZM561.574 63.1203C561.731 61.4524 561.874 59.7633 562.003 58.053L563.997 58.2031C563.867 59.9255 563.724 61.6271 563.565 63.3078L561.574 63.1203Z" fill="#7ED328"/>
</svg>
