<svg width="208" height="70" viewBox="0 0 208 70" fill="none" xmlns="http://www.w3.org/2000/svg">
<path d="M85.728 17.96C86.096 17.96 86.28 18.088 86.28 18.344V18.44C86.28 18.616 86.104 18.856 85.752 19.16C85.4 19.464 85.136 19.832 84.96 20.264L79.2 33.992C78.912 34.664 78.432 35 77.76 35C77.184 35 76.752 34.688 76.464 34.064L70.104 20.288C69.928 19.888 69.664 19.528 69.312 19.208C68.976 18.888 68.808 18.632 68.808 18.44V18.344C68.808 18.088 69 17.96 69.384 17.96H74.76C75.128 17.96 75.312 18.088 75.312 18.344V18.44C75.312 18.568 75.24 18.704 75.096 18.848C74.952 18.976 74.808 19.096 74.664 19.208C74.52 19.32 74.4 19.472 74.304 19.664C74.224 19.856 74.232 20.064 74.328 20.288L78.768 30.992L82.968 20.264C83.08 19.976 83.048 19.728 82.872 19.52C82.696 19.296 82.488 19.096 82.248 18.92C82.024 18.744 81.912 18.584 81.912 18.44V18.344C81.912 18.088 82.096 17.96 82.464 17.96H85.728ZM91.1996 21.2C90.7836 21.584 90.2236 21.776 89.5196 21.776C88.8156 21.776 88.2396 21.584 87.7916 21.2C87.3596 20.8 87.1436 20.288 87.1436 19.664C87.1436 19.056 87.3596 18.56 87.7916 18.176C88.2396 17.776 88.8156 17.576 89.5196 17.576C90.2236 17.576 90.7836 17.776 91.1996 18.176C91.6316 18.56 91.8476 19.056 91.8476 19.664C91.8476 20.288 91.6316 20.8 91.1996 21.2ZM87.3356 35C86.9836 35 86.8076 34.864 86.8076 34.592V34.496C86.8076 34.336 86.9596 34.088 87.2636 33.752C87.5676 33.416 87.7196 33.056 87.7196 32.672V27.248C87.7196 26.848 87.5676 26.472 87.2636 26.12C86.9596 25.768 86.8076 25.528 86.8076 25.4V25.328C86.8076 25.168 86.9756 25 87.3116 24.824L90.3116 23.336C90.6156 23.208 90.8556 23.2 91.0316 23.312C91.2076 23.408 91.2956 23.576 91.2956 23.816V32.672C91.2956 33.056 91.4636 33.416 91.7996 33.752C92.1356 34.088 92.3036 34.336 92.3036 34.496V34.592C92.3036 34.864 92.1196 35 91.7516 35H87.3356ZM94.1057 35C93.7377 35 93.5537 34.864 93.5537 34.592V34.496C93.5537 34.336 93.7057 34.088 94.0097 33.752C94.3297 33.416 94.4897 33.064 94.4897 32.696V20.888C94.4897 20.472 94.3297 20.096 94.0097 19.76C93.7057 19.424 93.5537 19.192 93.5537 19.064V18.968C93.5537 18.776 93.7137 18.616 94.0337 18.488L97.0577 17C97.3777 16.872 97.6177 16.856 97.7777 16.952C97.9537 17.048 98.0417 17.208 98.0417 17.432V32.696C98.0417 33.064 98.2097 33.416 98.5457 33.752C98.8977 34.088 99.0737 34.336 99.0737 34.496V34.592C99.0737 34.864 98.8897 35 98.5217 35H94.1057ZM100.832 35C100.464 35 100.28 34.864 100.28 34.592V34.496C100.28 34.336 100.432 34.088 100.736 33.752C101.056 33.416 101.216 33.064 101.216 32.696V20.888C101.216 20.472 101.056 20.096 100.736 19.76C100.432 19.424 100.28 19.192 100.28 19.064V18.968C100.28 18.776 100.44 18.616 100.76 18.488L103.784 17C104.104 16.872 104.344 16.856 104.504 16.952C104.68 17.048 104.768 17.208 104.768 17.432V32.696C104.768 33.064 104.936 33.416 105.272 33.752C105.624 34.088 105.8 34.336 105.8 34.496V34.592C105.8 34.864 105.616 35 105.248 35H100.832ZM117.975 32.6C118.023 32.968 118.111 33.264 118.239 33.488C118.383 33.712 118.527 33.856 118.671 33.92C118.815 33.968 118.943 34.032 119.055 34.112C119.167 34.192 119.223 34.304 119.223 34.448C119.223 34.912 118.455 35.144 116.919 35.144C116.215 35.144 115.695 35.056 115.359 34.88C115.039 34.688 114.847 34.344 114.783 33.848C114.159 34.776 113.095 35.24 111.591 35.24C110.247 35.24 109.159 34.928 108.327 34.304C107.495 33.68 107.079 32.784 107.079 31.616C107.063 30.464 107.471 29.568 108.303 28.928C109.135 28.288 110.175 27.968 111.423 27.968C112.479 27.968 113.351 28.208 114.039 28.688L114.015 28.4C113.855 26.88 113.631 25.808 113.343 25.184C113.055 24.56 112.567 24.248 111.879 24.248C111.447 24.248 111.095 24.408 110.823 24.728C110.551 25.048 110.359 25.4 110.247 25.784C110.135 26.168 109.951 26.52 109.695 26.84C109.439 27.16 109.111 27.32 108.711 27.32C108.279 27.32 107.927 27.2 107.655 26.96C107.399 26.704 107.271 26.376 107.271 25.976C107.271 25.144 107.711 24.48 108.591 23.984C109.487 23.488 110.583 23.24 111.879 23.24C113.431 23.24 114.703 23.68 115.695 24.56C116.687 25.44 117.271 26.64 117.447 28.16L117.975 32.6ZM112.647 34.184C113.175 34.184 113.599 33.968 113.919 33.536C114.239 33.088 114.383 32.584 114.351 32.024L114.279 31.184C114.215 30.496 114.007 29.968 113.655 29.6C113.319 29.232 112.895 29.048 112.383 29.048C111.871 29.048 111.447 29.232 111.111 29.6C110.791 29.968 110.631 30.456 110.631 31.064C110.631 31.928 110.815 32.664 111.183 33.272C111.567 33.88 112.055 34.184 112.647 34.184ZM130.386 23.48C130.994 23.48 131.394 23.544 131.586 23.672C131.794 23.784 131.858 23.96 131.778 24.2C131.73 24.44 131.626 24.616 131.466 24.728C131.306 24.824 131.034 24.904 130.65 24.968C130.266 25.032 130.034 25.08 129.954 25.112C130.85 26.04 131.298 27.064 131.298 28.184C131.298 29.112 131.058 29.944 130.578 30.68C130.114 31.4 129.458 31.96 128.61 32.36C130.53 32.792 131.49 33.704 131.49 35.096C131.49 36.104 130.914 36.912 129.762 37.52C128.626 38.144 127.194 38.456 125.466 38.456C123.738 38.456 122.37 38.144 121.362 37.52C120.37 36.896 119.874 36.104 119.874 35.144C119.874 34.776 119.994 34.464 120.234 34.208C120.474 33.936 120.826 33.8 121.29 33.8C121.722 33.8 122.09 33.992 122.394 34.376C122.698 34.744 122.93 35.152 123.09 35.6C123.266 36.064 123.562 36.48 123.978 36.848C124.394 37.232 124.914 37.432 125.538 37.448C126.274 37.448 126.858 37.24 127.29 36.824C127.738 36.408 127.962 35.864 127.962 35.192C127.962 33.928 127.466 33.192 126.474 32.984C126.058 33.016 125.746 33.032 125.538 33.032C123.922 33.032 122.578 32.584 121.506 31.688C120.45 30.776 119.922 29.64 119.922 28.28C119.922 26.776 120.45 25.56 121.506 24.632C122.562 23.704 123.93 23.24 125.61 23.24C126.042 23.24 126.722 23.28 127.65 23.36C128.578 23.44 129.49 23.48 130.386 23.48ZM123.306 26.696C123.306 28.008 123.578 29.216 124.122 30.32C124.682 31.408 125.33 31.952 126.066 31.952C126.626 31.952 127.066 31.736 127.386 31.304C127.722 30.856 127.89 30.272 127.89 29.552C127.89 28.768 127.778 27.976 127.554 27.176C127.33 26.376 126.994 25.696 126.546 25.136C126.098 24.576 125.61 24.296 125.082 24.296C124.538 24.296 124.106 24.512 123.786 24.944C123.466 25.376 123.306 25.96 123.306 26.696ZM142.863 31.352C143.007 31.16 143.183 31.096 143.391 31.16C143.599 31.224 143.695 31.376 143.679 31.616C143.599 32.448 143.119 33.264 142.239 34.064C141.359 34.848 140.215 35.24 138.807 35.24C137.111 35.24 135.719 34.68 134.631 33.56C133.543 32.44 132.999 30.968 132.999 29.144C132.999 27.432 133.567 26.024 134.703 24.92C135.839 23.8 137.207 23.24 138.807 23.24C140.263 23.24 141.383 23.584 142.167 24.272C142.951 24.96 143.343 25.752 143.343 26.648C143.343 27.384 142.991 27.912 142.287 28.232L136.959 30.656C137.615 32.048 138.671 32.744 140.127 32.744C140.735 32.744 141.279 32.616 141.759 32.36C142.255 32.088 142.623 31.752 142.863 31.352ZM138.375 24.296C137.751 24.296 137.255 24.6 136.887 25.208C136.519 25.8 136.335 26.56 136.335 27.488C136.335 28.272 136.415 28.96 136.575 29.552L139.671 27.992C140.087 27.784 140.295 27.408 140.295 26.864C140.295 26.32 140.119 25.76 139.767 25.184C139.415 24.592 138.951 24.296 138.375 24.296ZM77.784 57.24C75.56 57.24 73.64 56.336 72.024 54.528C70.424 52.704 69.624 50.616 69.624 48.264C69.624 45.784 70.36 43.744 71.832 42.144C73.32 40.544 75.24 39.744 77.592 39.744C79.432 39.744 81.032 40.216 82.392 41.16C83.752 42.088 84.432 43.128 84.432 44.28C84.432 44.76 84.28 45.152 83.976 45.456C83.672 45.744 83.256 45.888 82.728 45.888C82.248 45.888 81.824 45.728 81.456 45.408C81.088 45.088 80.768 44.704 80.496 44.256C80.224 43.792 79.936 43.328 79.632 42.864C79.344 42.4 78.96 42.008 78.48 41.688C78 41.368 77.448 41.208 76.824 41.208C75.816 41.208 74.952 41.664 74.232 42.576C73.512 43.472 73.152 44.648 73.152 46.104C73.152 48.392 73.72 50.28 74.856 51.768C76.008 53.256 77.344 54 78.864 54C80.752 54 82.264 52.992 83.4 50.976C83.592 50.704 83.84 50.616 84.144 50.712C84.448 50.792 84.584 51.008 84.552 51.36C84.408 53.008 83.752 54.4 82.584 55.536C81.416 56.672 79.816 57.24 77.784 57.24ZM98.109 54.648C98.141 55.032 98.293 55.392 98.565 55.728C98.837 56.064 98.973 56.32 98.973 56.496V56.592C98.973 56.864 98.797 57 98.445 57H94.269C93.917 57 93.741 56.864 93.741 56.592V56.496C93.741 56.336 93.885 56.088 94.173 55.752C94.477 55.416 94.621 55.056 94.605 54.672L94.365 50.064C94.253 47.76 93.557 46.608 92.277 46.608C91.637 46.608 91.133 46.848 90.765 47.328C90.413 47.808 90.237 48.448 90.237 49.248V54.696C90.237 55.064 90.405 55.416 90.741 55.752C91.093 56.088 91.269 56.336 91.269 56.496V56.592C91.269 56.864 91.077 57 90.693 57H86.253C85.885 57 85.701 56.864 85.701 56.592V56.496C85.701 56.336 85.869 56.088 86.205 55.752C86.541 55.416 86.709 55.064 86.709 54.696V42.744C86.709 42.36 86.525 42.016 86.157 41.712C85.805 41.408 85.629 41.176 85.629 41.016V40.944C85.629 40.704 85.789 40.504 86.109 40.344L89.277 38.952C89.549 38.84 89.757 38.824 89.901 38.904C90.061 38.984 90.141 39.144 90.141 39.384L90.117 46.584C90.869 45.688 91.917 45.24 93.261 45.24C94.477 45.24 95.509 45.64 96.357 46.44C97.205 47.224 97.685 48.464 97.797 50.16L98.109 54.648ZM104.559 43.2C104.143 43.584 103.583 43.776 102.879 43.776C102.175 43.776 101.599 43.584 101.151 43.2C100.719 42.8 100.503 42.288 100.503 41.664C100.503 41.056 100.719 40.56 101.151 40.176C101.599 39.776 102.175 39.576 102.879 39.576C103.583 39.576 104.143 39.776 104.559 40.176C104.991 40.56 105.207 41.056 105.207 41.664C105.207 42.288 104.991 42.8 104.559 43.2ZM100.695 57C100.343 57 100.167 56.864 100.167 56.592V56.496C100.167 56.336 100.319 56.088 100.623 55.752C100.927 55.416 101.079 55.056 101.079 54.672V49.248C101.079 48.848 100.927 48.472 100.623 48.12C100.319 47.768 100.167 47.528 100.167 47.4V47.328C100.167 47.168 100.335 47 100.671 46.824L103.671 45.336C103.975 45.208 104.215 45.2 104.391 45.312C104.567 45.408 104.655 45.576 104.655 45.816V54.672C104.655 55.056 104.823 55.416 105.159 55.752C105.495 56.088 105.663 56.336 105.663 56.496V56.592C105.663 56.864 105.479 57 105.111 57H100.695ZM112.985 57.24C111.209 57.24 109.729 56.648 108.545 55.464C107.377 54.28 106.793 52.864 106.793 51.216C106.793 49.424 107.377 47.984 108.545 46.896C109.729 45.808 111.161 45.256 112.841 45.24C114.217 45.224 115.385 45.544 116.345 46.2C117.321 46.856 117.809 47.656 117.809 48.6C117.809 48.952 117.689 49.248 117.449 49.488C117.209 49.712 116.833 49.816 116.321 49.8C115.937 49.784 115.601 49.648 115.313 49.392C115.025 49.136 114.785 48.84 114.593 48.504C114.417 48.168 114.233 47.832 114.041 47.496C113.849 47.16 113.609 46.88 113.321 46.656C113.033 46.416 112.697 46.296 112.313 46.296C111.641 46.296 111.097 46.6 110.681 47.208C110.281 47.816 110.081 48.576 110.081 49.488C110.081 51.088 110.449 52.368 111.185 53.328C111.937 54.288 112.929 54.768 114.161 54.768C115.425 54.768 116.385 54.208 117.041 53.088C117.137 52.96 117.249 52.888 117.377 52.872C117.521 52.84 117.641 52.872 117.737 52.968C117.849 53.048 117.897 53.168 117.881 53.328C117.801 54.4 117.329 55.32 116.465 56.088C115.617 56.856 114.457 57.24 112.985 57.24ZM131.174 55.2C131.27 55.328 131.51 55.528 131.894 55.8C132.278 56.056 132.47 56.296 132.47 56.52V56.592C132.47 56.864 132.31 57 131.99 57H127.526C127.206 57 127.046 56.856 127.046 56.568V56.52C127.046 56.36 127.158 56.152 127.382 55.896C127.622 55.64 127.67 55.408 127.526 55.2L124.934 51.552L123.518 52.872V54.696C123.518 55.064 123.686 55.416 124.022 55.752C124.374 56.088 124.55 56.336 124.55 56.496V56.592C124.55 56.864 124.366 57 123.998 57H119.582C119.23 57 119.054 56.864 119.054 56.592V56.496C119.054 56.336 119.206 56.088 119.51 55.752C119.814 55.416 119.966 55.064 119.966 54.696V42.888C119.966 42.472 119.782 42.096 119.414 41.76C119.062 41.424 118.886 41.192 118.886 41.064V40.968C118.886 40.776 119.046 40.616 119.366 40.488L122.558 39C122.846 38.872 123.078 38.856 123.254 38.952C123.43 39.048 123.518 39.208 123.518 39.432V51.048L127.31 47.76C127.486 47.632 127.55 47.48 127.502 47.304C127.47 47.128 127.398 46.984 127.286 46.872C127.174 46.744 127.054 46.6 126.926 46.44C126.798 46.264 126.734 46.112 126.734 45.984V45.888C126.734 45.616 126.894 45.48 127.214 45.48H130.646C130.966 45.48 131.126 45.608 131.126 45.864V45.96C131.126 46.136 131.022 46.312 130.814 46.488C130.622 46.648 130.334 46.848 129.95 47.088C129.582 47.328 129.286 47.544 129.062 47.736L127.118 49.536L131.174 55.2ZM141.926 53.352C142.07 53.16 142.246 53.096 142.454 53.16C142.662 53.224 142.758 53.376 142.742 53.616C142.662 54.448 142.182 55.264 141.302 56.064C140.422 56.848 139.278 57.24 137.87 57.24C136.174 57.24 134.782 56.68 133.694 55.56C132.606 54.44 132.062 52.968 132.062 51.144C132.062 49.432 132.63 48.024 133.766 46.92C134.902 45.8 136.27 45.24 137.87 45.24C139.326 45.24 140.446 45.584 141.23 46.272C142.014 46.96 142.406 47.752 142.406 48.648C142.406 49.384 142.054 49.912 141.35 50.232L136.022 52.656C136.678 54.048 137.734 54.744 139.19 54.744C139.798 54.744 140.342 54.616 140.822 54.36C141.318 54.088 141.686 53.752 141.926 53.352ZM137.438 46.296C136.814 46.296 136.318 46.6 135.95 47.208C135.582 47.8 135.398 48.56 135.398 49.488C135.398 50.272 135.478 50.96 135.638 51.552L138.734 49.992C139.15 49.784 139.358 49.408 139.358 48.864C139.358 48.32 139.182 47.76 138.83 47.184C138.478 46.592 138.014 46.296 137.438 46.296ZM156.427 54.672C156.459 55.056 156.611 55.416 156.883 55.752C157.155 56.088 157.291 56.344 157.291 56.52V56.616C157.291 56.888 157.107 57.024 156.739 57.024H152.587C152.219 57.024 152.035 56.888 152.035 56.616V56.52C152.035 56.36 152.179 56.112 152.467 55.776C152.771 55.44 152.915 55.072 152.899 54.672L152.659 50.232C152.547 47.816 151.851 46.608 150.571 46.608C149.931 46.608 149.427 46.848 149.059 47.328C148.707 47.808 148.531 48.448 148.531 49.248V54.696C148.531 55.08 148.699 55.44 149.035 55.776C149.387 56.112 149.563 56.36 149.563 56.52V56.616C149.563 56.888 149.379 57.024 149.011 57.024H144.547C144.179 57.024 143.995 56.888 143.995 56.616V56.52C143.995 56.36 144.163 56.112 144.499 55.776C144.851 55.44 145.027 55.08 145.027 54.696V49.104C145.027 48.864 144.963 48.648 144.835 48.456C144.723 48.264 144.587 48.128 144.427 48.048C144.283 47.952 144.147 47.84 144.019 47.712C143.907 47.584 143.851 47.456 143.851 47.328V47.232C143.851 47.056 144.011 46.888 144.331 46.728L147.187 45.336C147.459 45.208 147.659 45.2 147.787 45.312C147.931 45.408 148.003 45.584 148.003 45.84V47.184C148.691 45.888 149.875 45.24 151.555 45.24C152.771 45.24 153.803 45.648 154.651 46.464C155.515 47.28 156.011 48.576 156.139 50.352L156.427 54.672Z" fill="#339710"/>
<path fill-rule="evenodd" clip-rule="evenodd" d="M51.0699 48.4185C51.195 48.2689 51.2679 48.1454 51.3414 48.0101C51.4623 47.7884 51.5475 47.5532 51.6586 47.3295C51.8276 46.9889 51.9153 46.6211 52.0355 46.2653C52.0746 46.1491 52.1229 46.0248 52.1386 45.8944C52.1538 45.7683 52.1748 45.6398 52.2209 45.5182C52.2413 45.4636 52.1552 45.4875 52.1285 45.5393C52.1169 45.5619 52.1063 45.5875 52.099 45.6197C52.0344 45.9053 51.9191 46.1773 51.8298 46.4563C51.7344 46.755 51.6169 47.0444 51.4904 47.3287C51.423 47.4802 51.3599 47.6386 51.2963 47.7894C51.2176 47.9763 51.0958 48.1569 51.0699 48.4185ZM45.9215 30.5301C45.9872 30.5789 45.9577 30.6603 46.0538 30.6953C46.1492 30.7299 46.2366 30.7163 46.3262 30.7319C46.4514 30.7536 46.553 30.6969 46.6274 30.6138C46.6379 30.6021 46.6477 30.5943 46.6571 30.5896C46.7364 30.5492 46.8189 30.5809 46.8716 30.5091C47.0138 30.3153 46.7584 30.146 46.5292 30.2183C46.3144 30.286 46.1033 30.3599 45.9215 30.5301ZM35.1146 54.598C34.7365 54.5097 33.9054 54.4756 33.3733 54.5691C33.2389 54.5926 33.27 54.7682 33.3803 54.688C33.4288 54.6527 33.5188 54.6807 33.5831 54.6594C33.6755 54.6289 33.7024 54.7505 33.7952 54.7296C33.8913 54.7079 34.0099 54.7489 34.0917 54.7083C34.2041 54.6526 34.2953 54.7312 34.3971 54.7086C34.4932 54.6873 34.6039 54.6553 34.6896 54.6839C34.7901 54.7174 34.887 54.6157 34.9676 54.6918C35.0901 54.8073 35.32 54.699 35.4877 54.7135C35.5508 54.719 35.614 54.7204 35.6775 54.7041C35.7665 54.6811 35.7136 54.5724 35.6225 54.5595C35.596 54.5557 35.5692 54.5539 35.5426 54.5529C35.4479 54.5493 35.4131 54.4722 35.3375 54.415C35.3333 54.4118 35.3285 54.4091 35.3228 54.407C35.3064 54.4009 35.283 54.3929 35.2718 54.4063C35.2207 54.4668 35.1712 54.5285 35.1146 54.598ZM36.312 57.0925C36.0249 56.9921 35.741 57.0897 35.4588 57.0559C35.1666 57.0211 34.8737 57.0218 34.581 57.0227C34.3345 57.0236 34.0882 57.0351 33.8429 57.0447C33.7643 57.0478 33.724 57.1502 33.8021 57.1409C33.8873 57.1308 33.9696 57.1496 34.0515 57.1722C34.3088 57.2434 34.6235 57.2407 34.8904 57.247C35.0592 57.251 35.2484 57.2705 35.4165 57.287C35.443 57.2896 35.4701 57.2945 35.4985 57.3018C35.5302 57.31 35.5634 57.3097 35.5974 57.3072C35.7132 57.2986 35.8408 57.1544 35.9533 57.1832C35.9694 57.1873 35.9879 57.1935 36.0093 57.2018C36.0659 57.2237 36.0909 57.2034 36.1207 57.1505C36.1302 57.1337 36.1581 57.1188 36.177 57.1156C36.2146 57.1092 36.2633 57.1008 36.312 57.0925ZM35.8799 45.5266C36.4421 45.3965 36.9686 45.1897 37.4884 44.968C38.1143 44.7012 38.7329 44.4167 39.3568 44.1447C39.4422 44.1075 39.3675 44.0304 39.2802 44.063C38.1495 44.4847 37.0558 44.9744 35.9525 45.4407C35.9217 45.4536 35.9038 45.4973 35.8799 45.5266ZM28.8434 19.7215C28.7009 19.7362 28.5675 19.7396 28.4387 19.766C28.3122 19.7917 28.1855 19.7712 28.0568 19.7917C27.8846 19.8192 27.7226 19.8859 27.5476 19.8988C27.2005 19.9243 26.8638 20.0084 26.5244 20.0825C25.9924 20.1988 25.4912 20.4024 24.9826 20.5857C24.9348 20.6029 24.9584 20.6726 25.0079 20.6614C26.279 20.3728 27.5218 19.9837 28.8109 19.7928C28.8205 19.7914 28.826 19.761 28.8434 19.7215ZM19.8515 52.164C19.8066 52.2581 19.6711 52.3201 19.5862 52.3807C19.5517 52.4053 19.5145 52.4259 19.4668 52.4154C19.4485 52.4113 19.4323 52.4011 19.4173 52.3898C19.293 52.2963 19.1661 52.1649 18.9851 52.1087C18.8865 52.078 18.9247 52.2215 19.0049 52.2866C19.0381 52.3136 19.0722 52.3381 19.1089 52.3561C19.1792 52.3904 19.2147 52.4264 19.2102 52.5045C19.209 52.5261 19.2283 52.5422 19.2446 52.5563C19.3783 52.6709 19.5023 52.8191 19.6599 52.8783C19.8448 52.9479 19.9641 53.0816 20.1111 53.1872C20.2638 53.2971 20.4049 53.4233 20.5511 53.5423C20.5896 53.5736 20.6268 53.6066 20.6671 53.6352C20.6949 53.655 20.7353 53.6325 20.7591 53.6081C20.7605 53.6066 20.7619 53.6052 20.7632 53.6037C20.7962 53.5686 20.7671 53.5222 20.7219 53.5053C20.6227 53.468 20.625 53.4429 20.6037 53.3131C20.5901 53.2301 20.6648 53.2446 20.6793 53.2089C20.7197 53.1103 20.6085 53.0741 20.5855 53.0054C20.5825 52.9964 20.5799 52.9869 20.5802 52.9774C20.5838 52.885 20.5808 52.8913 20.5169 52.9581C20.5026 52.9732 20.487 52.9862 20.4689 52.9947C20.4077 53.0234 20.3547 52.9575 20.3175 52.9011C20.281 52.8458 20.2476 52.8515 20.1357 52.8877C20.1161 52.8941 20.0918 52.9047 20.0942 52.9251C20.1027 52.9976 20.057 53.023 20.0256 52.9572C20.0158 52.9365 20.0184 52.9081 20.0448 52.8636C20.0521 52.8513 20.0488 52.8326 20.0405 52.8118C20.0083 52.7307 19.8907 52.7338 19.8628 52.6512C19.8442 52.5954 19.8578 52.5461 19.8722 52.4986C19.8865 52.4513 19.9276 52.4126 19.9769 52.4104C20.0274 52.4082 20.0438 52.3434 19.9947 52.3316C19.9642 52.3244 19.9292 52.332 19.9017 52.322C19.8736 52.3117 19.8669 52.2771 19.8629 52.2474C19.8602 52.2276 19.8566 52.2016 19.8515 52.164ZM26.0905 47.4996C26.2312 47.3411 26.4449 47.3035 26.607 47.1808C26.8061 47.03 27.0173 46.8965 27.2197 46.75C27.3924 46.6249 27.5701 46.5093 27.7341 46.3701C27.9023 46.2273 28.1007 46.1224 28.2783 45.9878C28.4621 45.8484 28.6418 45.6998 28.8387 45.5793C28.9491 45.5117 29.0611 45.4504 29.1625 45.3678C29.2769 45.2745 29.3943 45.1783 29.5256 45.1149C29.659 45.0503 29.7272 44.8772 29.91 44.895C29.9542 44.8993 29.9827 44.8372 30.0007 44.7926C30.0096 44.7702 30.0063 44.7222 30.0109 44.7219C30.1324 44.7132 30.205 44.6288 30.2913 44.5553C30.3365 44.5167 30.3297 44.4263 30.2798 44.4586C29.9943 44.6429 29.6972 44.8091 29.4134 44.9959C29.2153 45.1262 28.9976 45.2568 28.8066 45.3974C28.6887 45.4842 28.5796 45.5832 28.4674 45.6722C28.2557 45.8401 28.0309 45.9938 27.8146 46.1511C27.4546 46.4129 27.1043 46.689 26.7384 46.9429C26.5032 47.1061 26.1185 47.2147 26.0905 47.4996ZM13.2182 32.8268C13.235 32.7493 13.2688 32.6751 13.259 32.6072C13.2536 32.5698 13.2139 32.5483 13.2406 32.488C13.3484 32.2438 13.4558 31.9978 13.5363 31.7439C13.5775 31.614 13.6551 31.4938 13.6482 31.3458C13.6296 30.9499 13.621 30.5534 13.6097 30.1571C13.6086 30.1199 13.5857 30.0824 13.6171 30.0442C13.6607 29.9909 13.6256 29.9299 13.62 29.8742C13.6114 29.7888 13.5389 29.8002 13.5179 29.8834C13.4231 30.2587 13.3663 30.6266 13.3144 30.995C13.2575 31.4003 13.2062 31.8065 13.1636 32.2135C13.1443 32.3987 13.1049 32.5788 13.0711 32.7607C13.0642 32.7986 13.1099 32.8258 13.1484 32.8261C13.1707 32.8264 13.1932 32.8266 13.2182 32.8268ZM36.5328 30.2822C36.6434 30.3459 36.6952 30.2314 36.7885 30.2299C36.8809 30.2285 36.9745 30.2055 37.0689 30.1785C37.4253 30.0763 37.791 30.0053 38.1539 29.9258C38.4156 29.8686 38.682 29.8177 38.9362 29.7459C39.191 29.6741 39.4544 29.6379 39.7042 29.5524C39.8121 29.5155 39.9261 29.4995 40.0386 29.478C40.2834 29.4313 40.364 29.0836 40.1197 29.1329C39.8697 29.1834 39.6233 29.2527 39.3766 29.319C39.2047 29.3652 39.0378 29.4333 38.8639 29.4677C38.521 29.5353 38.194 29.6568 37.8654 29.7658C37.4681 29.8977 37.071 30.0312 36.6721 30.1581C36.5969 30.1821 36.5564 30.2154 36.5328 30.2822ZM32.0821 55.151C32.2433 55.1327 32.3918 55.1913 32.546 55.2214C32.7283 55.257 32.9161 55.2634 33.0996 55.2939C33.227 55.3152 33.379 55.2494 33.5054 55.2227C33.728 55.1756 33.9557 55.1858 34.1865 55.2003C34.2176 55.2022 34.2441 55.2234 34.253 55.2532C34.2537 55.2554 34.2543 55.2576 34.255 55.2598C34.2638 55.2896 34.2923 55.3093 34.3233 55.3069C34.3285 55.3065 34.3338 55.3061 34.339 55.3057C34.366 55.3036 34.3863 55.2794 34.385 55.2524C34.3839 55.231 34.3978 55.2092 34.4184 55.2151C34.4485 55.2237 34.4694 55.2586 34.4972 55.2748C34.528 55.2929 34.544 55.2475 34.5261 55.2165C34.5122 55.1924 34.5156 55.1624 34.5345 55.142C34.6266 55.0424 34.64 55.0483 34.7777 55.1184C34.803 55.1313 34.8236 55.1352 34.8426 55.1195C34.8504 55.113 34.8592 55.1038 34.8646 55.0953C34.8983 55.0425 34.9044 54.9883 34.9671 54.989C34.968 54.989 34.969 54.989 34.97 54.989C35.0537 54.9895 35.0168 54.8896 34.9336 54.8809C34.7958 54.8666 34.6604 54.8987 34.5262 54.896C34.318 54.8918 34.1102 54.8721 33.9002 54.8813C33.6973 54.8903 33.4931 54.8968 33.2911 54.8966C33.0634 54.8962 32.8351 54.8635 32.6062 54.8897C32.5273 54.8986 32.4389 54.9318 32.3714 54.9077C32.2811 54.8756 32.2004 54.8923 32.1156 54.8983C31.9706 54.9084 31.9551 54.9632 32.0586 55.0652C32.0762 55.0826 32.0861 55.1087 32.0821 55.151ZM25.4685 59.3586C25.4884 59.4262 25.5341 59.4545 25.5932 59.47C25.8426 59.5353 26.0829 59.6325 26.3246 59.7171C26.7602 59.8692 27.2026 59.9912 27.6476 60.1055C28.4076 60.3008 29.1752 60.4634 29.9521 60.5775C30.284 60.6263 30.6171 60.6706 30.9512 60.6997C31.3087 60.731 31.6687 60.7343 32.0265 60.7639C32.3698 60.7924 32.713 60.7718 33.056 60.7839C33.3443 60.7941 33.6318 60.7401 33.9207 60.7778C33.9783 60.7852 34.0394 60.7691 34.0985 60.7609C34.1096 60.7594 34.121 60.7584 34.1323 60.7576C34.2122 60.752 34.2404 60.658 34.1612 60.67C33.9783 60.6977 33.7895 60.687 33.6111 60.6744C33.1825 60.6443 32.7545 60.6653 32.3268 60.6476C32.0983 60.6383 31.8636 60.651 31.6419 60.6217C31.1427 60.5558 30.6401 60.5249 30.1408 60.4564C29.4694 60.3644 28.8091 60.222 28.1424 60.1106C27.9843 60.0842 27.8457 60.0037 27.6926 59.9789C27.3548 59.924 27.0208 59.851 26.7012 59.7333C26.4589 59.6441 26.2032 59.6073 25.9628 59.5022C25.8142 59.4371 25.6451 59.3729 25.4685 59.3586ZM22.2935 16.7877C22.3606 16.7793 22.4113 16.7118 22.4315 16.6472C22.434 16.6391 22.4366 16.6311 22.4391 16.623C22.4514 16.5834 22.4776 16.5355 22.5162 16.5509C22.5457 16.5626 22.5708 16.5936 22.5979 16.6147C22.655 16.6591 22.6626 16.5909 22.6468 16.5204C22.6447 16.5111 22.646 16.5005 22.6529 16.4878C22.6926 16.4166 22.7651 16.3985 22.8313 16.3716C22.8655 16.3578 22.9034 16.3558 22.9295 16.3818C22.9674 16.4194 23.0065 16.3775 23.0212 16.3262C23.0328 16.2855 23.0574 16.2524 23.1109 16.2367C23.2897 16.1843 23.4399 16.0463 23.6389 16.056C23.7549 16.0614 23.8616 15.9039 23.9694 15.8609C24.022 15.8399 24.0796 15.8278 24.1315 15.808C24.4954 15.6688 24.8581 15.5242 25.2292 15.4067C25.7219 15.2507 26.2166 15.0938 26.7207 14.9838C27.0684 14.9078 27.4128 14.7985 27.773 14.782C27.8476 14.7787 27.7943 14.7049 27.7197 14.7084C26.3753 14.7716 25.1277 15.1914 23.9129 15.737C23.8593 15.7611 23.8168 15.7143 23.7707 15.6779C23.7548 15.6653 23.7291 15.6673 23.7109 15.6763C23.6221 15.7201 23.5344 15.7718 23.4399 15.7994C23.3932 15.813 23.3554 15.8315 23.3268 15.8551C23.237 15.9293 23.1892 16.0625 23.082 16.108C23.0769 16.1102 23.0719 16.1123 23.0669 16.1144C22.995 16.1449 22.9209 16.0693 22.8482 16.0978C22.7506 16.1362 22.6396 16.1556 22.5579 16.2192C22.495 16.2681 22.3709 16.3123 22.2992 16.3469C22.2512 16.37 22.2066 16.4134 22.1575 16.4342C22.095 16.4606 22.0097 16.4647 22.0118 16.5727C22.0139 16.6814 21.9332 16.7229 21.8282 16.6908C21.8209 16.6886 21.816 16.6834 21.8153 16.6759C21.8134 16.6575 21.7836 16.6464 21.7666 16.6536C21.7122 16.6763 21.6381 16.663 21.6135 16.7263C21.6103 16.7345 21.609 16.7438 21.6121 16.7521C21.6155 16.7609 21.6214 16.7653 21.6286 16.7672C21.6971 16.7856 21.6622 16.8391 21.6009 16.8748C21.4869 16.9412 21.3702 17.0125 21.2441 17.0573C21.2223 17.0651 21.2035 17.0739 21.187 17.0837C21.1174 17.1251 21.1847 17.1883 21.2625 17.1659C21.3263 17.1476 21.3784 17.0708 21.4401 17.0463C21.4479 17.0432 21.457 17.0405 21.4676 17.0384C21.55 17.0215 21.5947 17.0672 21.6507 17.1057C21.663 17.1143 21.6747 17.1114 21.6815 17.1034C21.6904 17.0929 21.6851 17.08 21.6778 17.0682C21.6488 17.0203 21.6674 16.9554 21.7182 16.9318C21.8786 16.8574 22.0316 16.7746 22.1989 16.7228C22.2438 16.7089 22.2887 16.7409 22.2935 16.7877ZM25.1353 17.4903C25.389 17.5363 25.598 17.438 25.8136 17.4135C25.9987 17.3924 26.1873 17.3382 26.3725 17.2944C26.5727 17.2471 26.7775 17.2403 26.974 17.1932C27.2643 17.1235 27.553 17.052 27.8506 17.023C27.9295 17.0154 28.0199 17.0276 28.0847 16.9928C28.259 16.8994 28.4487 16.9329 28.6298 16.9037C28.8113 16.8745 28.9821 16.7953 29.1711 16.7991C29.221 16.8002 29.2555 16.8343 29.325 16.8121C29.5156 16.7519 29.7178 16.7479 29.9164 16.7213C30.1065 16.6958 30.311 16.6234 30.5027 16.6218C30.5112 16.6218 30.5197 16.6216 30.5281 16.6213C30.6656 16.6165 30.6985 16.5419 30.5625 16.5215C30.2256 16.4706 29.8834 16.4524 29.5433 16.4707C28.8779 16.5063 28.2211 16.6158 27.5721 16.7611C27.4109 16.7971 27.246 16.8077 27.0893 16.8501C26.5545 16.9949 26.0223 17.1497 25.4922 17.3108C25.3753 17.3465 25.2524 17.391 25.1353 17.4903ZM40.2153 15.9307C40.1899 15.8285 40.1366 15.7974 40.0742 15.7865C40.0305 15.7788 39.9874 15.8004 39.9593 15.8349C39.9122 15.8928 39.8223 15.8948 39.7494 15.9104C39.6564 15.9304 39.5657 16.0173 39.4443 15.9834C39.3182 15.9482 39.1725 15.9832 39.0334 15.999C38.9999 16.0029 38.9683 16.028 38.9862 16.0565C39.0179 16.1071 39.0967 16.1658 39.156 16.159C39.2192 16.1518 39.2807 16.15 39.3363 16.1794C39.3758 16.2004 39.4285 16.202 39.4567 16.1673C39.4771 16.1423 39.5117 16.135 39.5431 16.1428C39.6373 16.1663 39.7333 16.1434 39.8289 16.1337C39.8322 16.1334 39.8356 16.1332 39.8389 16.133C40.0183 16.1244 40.2888 16.0534 40.4627 16.0982C40.562 16.124 40.6774 16.0893 40.7854 16.0783C40.8998 16.0667 41.0138 16.0239 41.121 16.0144C41.2292 16.0048 41.3332 15.9622 41.4412 15.9703C41.5544 15.9788 41.6733 16.0241 41.7772 15.963C41.8498 15.9204 41.9197 15.9118 41.9917 15.9199C42.0617 15.9276 42.1255 15.8857 42.1879 15.8532C42.2464 15.8229 42.314 15.8523 42.3826 15.8891C42.4082 15.9028 42.4381 15.8787 42.4351 15.8498C42.434 15.8396 42.4374 15.8328 42.4459 15.8271C42.4867 15.7999 42.5119 15.8762 42.5546 15.8557C42.682 15.7942 42.8156 15.7167 42.9552 15.7351C43.1121 15.7559 43.249 15.6937 43.3957 15.679C43.9728 15.6211 44.5503 15.5748 45.1295 15.5482C45.169 15.5464 45.2166 15.5255 45.2464 15.5409C45.4241 15.6326 45.6057 15.5658 45.786 15.5696C45.9807 15.5737 46.1793 15.5349 46.3655 15.5587C46.6222 15.5918 46.8758 15.6211 47.1255 15.5986C47.1674 15.5948 47.1842 15.6266 47.2052 15.6631C47.2102 15.6717 47.2185 15.6684 47.2285 15.6675C47.3793 15.6552 47.5346 15.6023 47.6378 15.6537C47.6437 15.6567 47.6495 15.6594 47.6553 15.6619C47.7473 15.7018 47.7975 15.5339 47.6973 15.5396C47.6506 15.5423 47.5998 15.5081 47.56 15.4834C47.5502 15.4773 47.5394 15.4722 47.5281 15.4675C47.4396 15.431 47.3097 15.4453 47.2169 15.4693C47.1779 15.4794 47.1348 15.4686 47.0841 15.4163C47.0594 15.3908 47.0277 15.388 47.0033 15.4C46.8225 15.4902 46.6378 15.4095 46.457 15.4053C46.3897 15.4037 46.3178 15.4048 46.2506 15.3929C46.1205 15.3698 45.9696 15.3369 45.8384 15.3527C45.7882 15.3588 45.7387 15.3574 45.6886 15.3498C45.6672 15.3465 45.6505 15.3252 45.6475 15.3037C45.6427 15.269 45.6057 15.253 45.5742 15.2686C45.5438 15.2838 45.5133 15.2989 45.4827 15.3142C45.4402 15.3354 45.3898 15.329 45.3467 15.3091C45.2934 15.2845 45.2353 15.2718 45.1762 15.2611C45.1471 15.2558 45.1175 15.267 45.0988 15.2899C45.0733 15.3213 45.0286 15.3274 44.9891 15.3189C44.9262 15.3054 44.8619 15.3193 44.7995 15.3294C44.722 15.3419 44.6507 15.2808 44.5618 15.3446C44.5057 15.3849 44.4124 15.3735 44.3299 15.3768C44.3102 15.3776 44.2901 15.3745 44.2741 15.3629C44.2368 15.3357 44.2042 15.2966 44.1543 15.2767C44.1347 15.2689 44.1182 15.2871 44.1286 15.3054C44.1425 15.3301 44.1045 15.3756 44.0762 15.3763C44.0089 15.3781 43.9526 15.4214 43.8894 15.4238C43.8079 15.4269 43.7267 15.4347 43.6456 15.4437C43.5054 15.4592 43.304 15.3979 43.2211 15.512C43.1553 15.6026 43.1157 15.4366 43.0475 15.4673C43.0392 15.471 43.035 15.4884 43.0348 15.4975C43.0346 15.5153 43.0192 15.5045 43.0016 15.5064C42.8271 15.5244 42.663 15.5414 42.4997 15.5584C42.4769 15.5608 42.4444 15.5669 42.445 15.544C42.4457 15.5205 42.4566 15.4848 42.4105 15.4934C42.3121 15.504 42.3988 15.6187 42.3516 15.6567C42.3256 15.6778 42.2865 15.6587 42.2858 15.6252C42.2856 15.6163 42.2848 15.6077 42.2805 15.6008C42.2688 15.5826 42.24 15.5895 42.225 15.6051C42.2199 15.6104 42.2152 15.6164 42.2106 15.6226C42.1714 15.6763 42.1556 15.599 42.0926 15.5777C42.0242 15.5583 42.0096 15.588 41.9919 15.6105C41.9754 15.6314 41.9584 15.6511 41.9406 15.6687C41.8213 15.7862 41.587 15.7176 41.4239 15.7558C41.3278 15.7783 41.2195 15.7593 41.1291 15.7927C40.8372 15.9003 40.5289 15.8695 40.2153 15.9307ZM17.2516 19.3379C17.2191 19.2421 17.2865 19.1754 17.3446 19.1382C17.7122 18.9028 18.0381 18.6115 18.3976 18.3641C18.5865 18.2341 18.7755 18.0874 18.9451 17.9241C19.0794 17.7949 19.2562 17.7238 19.3956 17.5965C19.5456 17.4596 19.7314 17.3669 19.892 17.2394C20.0276 17.1318 20.1987 17.0759 20.3414 16.9697C20.5481 16.8158 20.7688 16.6799 20.9903 16.5476C21.132 16.463 21.2652 16.3558 21.4335 16.3253C21.4778 16.3173 21.4962 16.2845 21.5275 16.2658C21.6614 16.1856 21.7926 16.102 21.9372 16.0377C22.2396 15.9032 22.529 15.7393 22.8331 15.6094C23.054 15.5152 23.268 15.4083 23.4854 15.3079C23.6947 15.2113 23.906 15.1188 24.119 15.0306C24.6182 14.824 25.1262 14.6404 25.6459 14.4936C26.0526 14.3787 26.4666 14.2973 26.885 14.2285C27.2241 14.173 27.5626 14.1071 27.9039 14.0972C28.1778 14.0893 28.452 14.0416 28.7213 14.0584C28.9754 14.0742 29.232 14.0763 29.4848 14.0856C30.0701 14.1074 30.6525 14.153 31.2326 14.2207C31.5741 14.2605 31.9171 14.3078 32.258 14.3421C32.6579 14.3823 33.0503 14.4675 33.4499 14.5089C33.6838 14.5332 33.923 14.5896 34.1589 14.6295C34.3873 14.6682 34.6088 14.7384 34.8396 14.7627C35.0701 14.7871 35.2969 14.847 35.5209 14.894C35.5709 14.9045 35.6222 14.9125 35.6741 14.9203C35.9918 14.9677 36.3351 15.0986 36.6515 15.1542C36.8135 15.1826 36.979 15.2229 37.1409 15.2412C37.3078 15.2601 37.4775 15.2839 37.6421 15.3072C37.9764 15.3546 38.3132 15.3698 38.6456 15.416C38.8486 15.4443 39.045 15.4092 39.2446 15.4193C39.6246 15.4385 40.0092 15.4134 40.3888 15.3564C40.5409 15.3336 40.6961 15.3228 40.8475 15.3464C40.9629 15.3643 41.0402 15.2744 41.1504 15.2731C41.3287 15.2712 41.5066 15.2393 41.6849 15.2238C41.7033 15.2222 41.7213 15.2203 41.7383 15.2167C41.7994 15.204 41.8788 15.1854 41.9312 15.2193C41.9515 15.2325 41.986 15.2443 41.989 15.2202C41.9895 15.2157 41.9884 15.2105 41.9868 15.2051C41.9785 15.1768 42.0038 15.1598 42.0325 15.1529C42.0915 15.1387 42.1528 15.1231 42.2196 15.1504C42.2982 15.1824 42.3489 15.0974 42.43 15.0993C42.4425 15.0996 42.4549 15.0991 42.4672 15.098C42.781 15.0703 43.1424 15.0024 43.4458 14.9177C43.527 14.895 43.6159 14.8887 43.6994 14.9307C43.8199 14.9916 43.9864 14.8583 44.1196 14.837C44.3208 14.8047 44.529 14.8428 44.7283 14.8384C45.1643 14.8287 45.6021 14.7859 46.0429 14.8502C46.2634 14.8824 46.5018 14.8519 46.727 14.8803C47.2333 14.9444 47.7448 14.974 48.2432 15.0992C48.4492 15.1509 48.6669 15.1567 48.8722 15.2102C49.3079 15.3236 49.7443 15.4367 50.1706 15.5834C50.2503 15.611 50.3351 15.6234 50.3973 15.6949C50.4642 15.7717 50.5642 15.7043 50.6529 15.738C50.758 15.7777 50.8334 15.8645 50.9541 15.8881C51.0206 15.901 51.107 15.9631 51.1842 15.9783C51.4349 16.0278 51.6264 16.215 51.8781 16.2584C51.9733 16.275 52.0445 16.3562 52.1178 16.4085C52.3668 16.5862 52.6835 16.6402 52.908 16.8515C53.0309 16.9672 53.1749 17.0359 53.3304 17.0786C53.3805 17.0923 53.4334 17.1042 53.4532 17.1417C53.522 17.2726 53.6621 17.3096 53.7685 17.3866C53.8823 17.4691 54.0237 17.511 54.1319 17.6109C54.2414 17.7117 54.3484 17.8355 54.4806 17.8872C54.7175 17.98 54.8841 18.1567 55.0722 18.3071C55.1663 18.3824 55.3009 18.4243 55.3227 18.5791C55.3342 18.6604 55.4901 18.5491 55.498 18.6825C55.5026 18.7616 55.5604 18.7866 55.6366 18.8024C55.7063 18.8168 55.6961 18.9456 55.7744 18.9458C55.8516 18.9461 55.9517 18.9774 55.9458 19.0191C55.931 19.1236 56.0742 19.0803 56.0556 19.1655C56.0541 19.1723 56.0616 19.1847 56.0684 19.189C56.2934 19.3315 56.4136 19.5802 56.6322 19.7343C56.7599 19.8243 56.8654 19.9586 56.951 20.092C57.0329 20.2199 57.1374 20.3288 57.2352 20.4372C57.4059 20.626 57.5122 20.8581 57.6834 21.0435C57.6863 21.0466 57.6886 21.05 57.6905 21.0538C57.7445 21.1602 57.8585 21.2945 57.9216 21.3958C57.9865 21.4992 58.0266 21.6157 58.0957 21.7164C58.1392 21.7798 58.1756 21.8523 58.2165 21.9255C58.3607 22.1839 58.4926 22.4475 58.602 22.7196C58.7524 23.0938 58.9228 23.4659 58.9529 23.8764C58.959 23.9609 59.0465 23.967 59.0597 24.0403C59.1375 24.4668 59.2586 24.8837 59.2591 25.3256C59.2595 25.5106 59.3272 25.7024 59.329 25.8921C59.3326 26.2731 59.3874 26.6505 59.3353 27.037C59.3043 27.2664 59.3087 27.5079 59.283 27.743C59.2296 28.231 59.1577 28.7164 58.9891 29.18C58.8631 29.5267 58.7445 29.8762 58.5904 30.2131C58.5374 30.329 58.4469 30.4214 58.4089 30.5323C58.3695 30.6472 58.311 30.7394 58.235 30.8243C58.1749 30.8915 58.2098 30.9905 58.1325 31.0567C58.0722 31.1083 58.0024 31.1674 58.0102 31.279C58.0137 31.33 57.9327 31.3873 57.8893 31.4413C57.8268 31.5187 57.7735 31.6078 57.6979 31.669C57.6022 31.7463 57.5507 31.962 57.4673 32.0524C57.4556 32.0651 57.4444 32.0781 57.4349 32.0918C57.384 32.1651 57.3231 32.2315 57.2666 32.3009L57.0781 32.5324C57.0217 32.6018 56.9421 32.663 56.9135 32.7424C56.8586 32.8959 56.7277 32.9917 56.655 33.1335C56.5752 33.2894 56.441 33.4192 56.3221 33.5528C56.2184 33.6695 56.205 33.834 56.0869 33.946C55.9726 34.0548 55.848 34.1757 55.7918 34.3168C55.7283 34.4762 55.5784 34.5799 55.5385 34.7291C55.4911 34.9069 55.3306 34.989 55.2689 35.1383C55.1345 35.4641 54.9013 35.736 54.7628 36.0526C54.588 36.4522 54.3646 36.8276 54.2085 37.2375C54.1069 37.5043 54.0133 37.7754 53.9115 38.0422C53.8106 38.3065 53.7625 38.5927 53.7077 38.8725C53.6391 39.2224 53.6108 39.5772 53.599 39.9346C53.5873 40.2934 53.6301 40.6495 53.6241 41.0069C53.6213 41.1698 53.6487 41.3296 53.6409 41.4937C53.6324 41.6707 53.693 41.8507 53.6854 42.0277C53.647 42.9082 53.7213 43.8005 53.6622 44.6798C53.6549 44.79 53.6496 44.9002 53.649 45.0105C53.6472 45.2858 53.5688 45.5604 53.529 45.8358C53.4631 46.2933 53.3517 46.7408 53.2443 47.1896C53.1457 47.6023 53.0107 48.0028 52.859 48.3982C52.7502 48.6825 52.6273 48.9616 52.5237 49.2478C52.4432 49.4705 52.275 49.677 52.1746 49.8915C52.1581 49.9269 52.1417 49.9624 52.1247 49.9976C52.0285 50.1971 51.9307 50.4113 51.7863 50.5791C51.7462 50.6257 51.7029 50.6698 51.6617 50.7145C51.573 50.8108 51.5904 50.951 51.4851 51.0406C51.3883 51.1231 51.2812 51.2257 51.2452 51.3404C51.1798 51.5488 51.0257 51.6827 50.9014 51.8408C50.6123 52.2082 50.3173 52.5711 50.0154 52.928C49.9163 53.0452 49.8557 53.2011 49.6974 53.2653C49.5583 53.3217 49.537 53.5075 49.3827 53.5541C49.3265 53.571 49.3787 53.6535 49.3229 53.6935C49.2143 53.7713 49.1851 53.9253 49.0342 53.9738C48.9172 54.0112 48.9046 54.1879 48.7558 54.213C48.5874 54.2415 48.5336 54.4967 48.401 54.6043C48.3484 54.647 48.2938 54.6875 48.2429 54.7319C48.1419 54.8201 48.1038 54.9642 47.9576 55.0169C47.721 55.1022 47.5649 55.3906 47.3679 55.547C47.3221 55.5833 47.2785 55.6221 47.2422 55.6689C47.1517 55.7857 47.0249 55.8778 46.9043 55.9674C46.7174 56.1063 46.5344 56.2506 46.3559 56.3991C46.2899 56.4538 46.2214 56.4993 46.1514 56.5454C46.1126 56.5711 46.0616 56.5567 46.0248 56.6028C45.7921 56.8938 45.4675 57.0742 45.1639 57.2714C44.981 57.3901 44.8055 57.5291 44.598 57.6167C44.5416 57.6406 44.4805 57.7195 44.4121 57.7318C44.2107 57.7679 44.0611 57.9002 43.8986 58.0011C43.8088 58.0568 43.722 58.1023 43.6229 58.1297C43.604 58.1349 43.5742 58.1265 43.5651 58.1374C43.3938 58.3412 43.1338 58.3854 42.9125 58.4969C42.6987 58.6047 42.4645 58.6731 42.2539 58.7861C41.8293 59.0141 41.3654 59.1482 40.9337 59.3584C40.8619 59.3934 40.7864 59.4207 40.7149 59.4443C40.5898 59.4854 40.5433 59.5897 40.4435 59.6756C40.346 59.7549 40.1853 59.752 40.0738 59.8101C39.9684 59.865 39.8416 59.8827 39.7303 59.9233C39.3088 60.0771 38.8796 60.213 38.447 60.3316C38.1623 60.4094 37.88 60.494 37.5834 60.538C36.6434 60.677 35.6995 60.7797 34.7535 60.8564C34.3929 60.8855 34.0304 60.9167 33.6686 60.9268C33.3612 60.9355 33.0512 60.946 32.7453 60.935C32.0297 60.9092 31.3137 60.8828 30.6003 60.8031C30.0549 60.7421 29.516 60.6486 28.9759 60.5562C28.6297 60.4971 28.288 60.4229 27.9483 60.335C27.4051 60.1945 26.8662 60.0429 26.3295 59.8777C25.9493 59.7605 25.5936 59.5837 25.2225 59.4488C24.9821 59.3615 24.7492 59.2444 24.5115 59.15C24.4827 59.1386 24.4536 59.1274 24.4247 59.1162C24.1353 59.0041 23.8534 58.8337 23.5802 58.6867C23.4403 58.6113 23.2751 58.5699 23.1591 58.442C23.1061 58.3836 22.9976 58.4051 22.9335 58.3331C22.9279 58.3269 22.9223 58.3207 22.9165 58.3146C22.8321 58.2258 22.6209 58.2115 22.5566 58.1072C22.5123 58.0353 22.4317 57.9643 22.3522 57.9395C22.1574 57.8788 22.0413 57.6926 21.8684 57.6308C21.6808 57.5639 21.578 57.3964 21.4119 57.3292C21.208 57.2468 21.1287 57.0335 20.9449 56.9375C20.9365 56.9331 20.9334 56.9188 20.9316 56.9021C20.9285 56.8726 20.9093 56.8445 20.885 56.8615C20.8498 56.8862 20.8077 56.8765 20.7945 56.8357C20.7782 56.7852 20.7613 56.7347 20.7303 56.6953C20.6949 56.6505 20.6481 56.6148 20.5973 56.5772C20.5442 56.5377 20.4768 56.5213 20.4119 56.5345C20.3288 56.5514 20.2424 56.5192 20.176 56.4664C20.129 56.429 20.0847 56.3948 20.0585 56.3345C20.0388 56.2893 19.9279 56.2546 19.8582 56.2159C19.767 56.1654 19.7702 56.0183 19.6823 56.0109C19.565 56.001 19.5092 55.9234 19.4371 55.8652C18.7637 55.3216 18.0925 54.7751 17.4235 54.2263C17.311 54.1341 17.1576 53.9387 17.0507 53.8401C17.0457 53.8355 17.0401 53.8314 17.0338 53.8281C16.9531 53.7854 16.9041 53.6979 16.8473 53.6205C16.7505 53.4886 16.5919 53.4029 16.4641 53.2923C16.3788 53.2181 16.2803 53.1648 16.2349 53.0392C16.1986 52.9392 16.0742 52.8899 16.0021 52.7926C15.9153 52.6754 15.8297 52.5423 15.7086 52.447C15.6267 52.3823 15.5474 52.3213 15.5042 52.2122C15.4374 52.044 15.2431 51.9278 15.1363 51.7817C15.0769 51.7005 15.0235 51.6144 14.9609 51.5357C14.6662 51.1653 14.4022 50.775 14.1543 50.3726C13.9465 50.0356 13.7331 49.7018 13.5287 49.3629C13.4624 49.2529 13.3996 49.1391 13.3418 49.0253C13.1334 48.6153 12.9129 48.2076 12.7518 47.7785C12.6085 47.3961 12.4472 47.0196 12.3201 46.6299C12.2526 46.4227 12.1416 46.2257 12.0632 46.0182C11.8784 45.5295 11.7075 45.0363 11.5617 44.5344C11.4339 44.0943 11.2943 43.6572 11.2525 43.1964C11.2417 43.0753 11.1959 42.9577 11.1772 42.8369C11.1561 42.6993 11.168 42.5535 11.1279 42.4231C11.0756 42.2533 11.0759 42.0771 11.0322 41.9103C10.9983 41.7808 11.1145 41.6574 11.0051 41.5229C10.8534 41.3361 10.9741 41.0027 10.9377 40.7648C10.931 40.7205 10.9289 40.6754 10.9379 40.6287C10.972 40.4509 10.9109 40.2548 10.8916 40.0668C10.8723 39.8785 10.832 39.6894 10.8382 39.5017C10.8496 39.1564 10.7747 38.8166 10.7789 38.4758C10.7828 38.1507 10.7155 37.8234 10.7867 37.5016C10.8035 37.4254 10.7374 37.4087 10.7346 37.3494C10.7318 37.2876 10.7756 37.2431 10.7664 37.184C10.7288 36.944 10.7344 36.7015 10.7355 36.4601C10.7371 36.117 10.7483 35.7728 10.7472 35.4307C10.7453 34.8988 10.7956 34.3733 10.8492 33.8468C10.8841 33.5037 10.9311 33.162 10.9746 32.8199C11.0251 32.4226 11.0723 32.0249 11.1312 31.629C11.1764 31.3273 11.2417 31.0286 11.2903 30.7274C11.3288 30.4885 11.3581 30.2482 11.387 30.008C11.4269 29.6758 11.4786 29.3445 11.5206 29.0138C11.58 28.5429 11.673 28.0812 11.7839 27.6227C11.8398 27.3916 11.8942 27.1589 11.9805 26.9326C12.0345 26.7906 12.0838 26.6344 12.1163 26.4857C12.1826 26.1817 12.3255 25.914 12.4348 25.6301C12.4732 25.5303 12.5344 25.4472 12.5767 25.3552C12.6163 25.269 12.6627 25.1895 12.7062 25.1064C12.8364 24.8576 13.0129 24.6331 13.1002 24.3619C13.1058 24.3443 13.1151 24.3256 13.1281 24.3129C13.3538 24.0921 13.4478 23.7797 13.6658 23.5507C13.7402 23.4726 13.7981 23.382 13.8532 23.289C14.025 22.9988 14.2765 22.7288 14.4266 22.4267C14.631 22.0157 14.9613 21.7021 15.2367 21.3467C15.511 20.9931 15.8011 20.6519 16.0823 20.3036C16.2816 20.0566 16.5374 19.8693 16.7716 19.6603C16.8221 19.6151 16.9028 19.5887 16.9465 19.525C17.0209 19.4161 17.1252 19.3599 17.2516 19.3379Z" fill="#DDA619"/>
<path fill-rule="evenodd" clip-rule="evenodd" d="M32.0226 45.9556H37.0513V47.0142H32.0226V45.9556Z" fill="white"/>
<path fill-rule="evenodd" clip-rule="evenodd" d="M35.1985 43.8381C35.3389 43.8381 35.4736 43.8939 35.5728 43.9932C35.6721 44.0924 35.7279 44.2271 35.7279 44.3675V46.4848C35.7279 46.6252 35.6721 46.7598 35.5728 46.8591C35.4736 46.9584 35.3389 47.0141 35.1985 47.0141C35.0581 47.0141 34.9235 46.9584 34.8242 46.8591C34.725 46.7598 34.6692 46.6252 34.6692 46.4848V44.3675C34.6692 44.2271 34.725 44.0924 34.8242 43.9932C34.9235 43.8939 35.0581 43.8381 35.1985 43.8381Z" fill="white"/>
<path fill-rule="evenodd" clip-rule="evenodd" d="M30.9639 35.8981C31.1043 35.8981 31.2389 35.9538 31.3382 36.0531C31.4375 36.1524 31.4932 36.287 31.4932 36.4274C31.4932 39.6754 33.9568 42.2501 36.9263 42.2501C38.5747 42.2501 40.06 41.4624 41.0615 40.2032C41.1048 40.1488 41.1584 40.1034 41.2192 40.0697C41.2801 40.0361 41.3469 40.0147 41.416 40.0069C41.4851 39.999 41.555 40.0049 41.6219 40.0241C41.6887 40.0433 41.7511 40.0754 41.8055 40.1187C41.8599 40.162 41.9052 40.2156 41.9389 40.2765C41.9726 40.3373 41.9939 40.4041 42.0018 40.4732C42.0096 40.5423 42.0038 40.6123 41.9846 40.6791C41.9654 40.7459 41.9332 40.8083 41.8899 40.8627C40.7047 42.3517 38.9251 43.3088 36.9263 43.3088C33.3099 43.3088 30.4346 40.1963 30.4346 36.4274C30.4346 36.287 30.4903 36.1524 30.5896 36.0531C30.6889 35.9538 30.8235 35.8981 30.9639 35.8981Z" fill="white"/>
<path fill-rule="evenodd" clip-rule="evenodd" d="M29.3633 29.5461C29.1484 29.5461 28.9367 29.5974 28.7457 29.6958C28.5547 29.7942 28.3899 29.9368 28.2652 30.1117C28.1404 30.2867 28.0593 30.4889 28.0285 30.7015C27.9977 30.9141 28.0181 31.1311 28.0881 31.3342L28.3909 32.2124C28.7037 33.1191 28.7349 34.0989 28.4819 35.0237L28.2199 35.9796C27.7424 37.7227 27.654 39.4875 28.5888 40.7781C29.9265 42.626 32.1481 43.8381 34.6693 43.8381C38.2868 43.8381 41.2813 41.3434 41.9434 38.0663C42.124 37.1706 42.3923 36.2041 42.9651 35.3799L36.5347 36.4158C35.9046 36.5174 35.2585 36.4268 34.6806 36.1558C34.1028 35.8848 33.62 35.446 33.2952 34.8966L30.5241 30.2083C30.4048 30.0066 30.235 29.8394 30.0315 29.7233C29.8279 29.6072 29.5976 29.5461 29.3633 29.5461ZM27.0871 31.6793C26.5488 30.1162 27.7102 28.4874 29.3638 28.4874C30.215 28.4874 31.0031 28.9374 31.4361 29.6694L34.2072 34.3578C34.4237 34.7241 34.7456 35.0167 35.1308 35.1974C35.516 35.3781 35.9468 35.4386 36.3669 35.3709L43.0259 34.2979C43.8888 34.1587 44.4763 35.1496 43.9406 35.8404C43.4272 36.5026 43.1683 37.349 42.9815 38.2754C42.2166 42.0617 38.7759 44.8968 34.6693 44.8968C31.8035 44.8968 29.2648 43.5168 27.7313 41.399C26.5012 39.6998 26.7012 37.5163 27.1988 35.6996L27.4608 34.7442C27.6581 34.0248 27.6335 33.2627 27.3904 32.5575L27.0877 31.6793H27.0871Z" fill="white"/>
<path fill-rule="evenodd" clip-rule="evenodd" d="M29.9508 26.8994C30.6177 26.2325 31.7579 26.7046 31.7579 27.6479V28.4874H32.5974C33.5407 28.4874 34.0129 29.6276 33.3459 30.2946L32.3968 31.2437C32.297 31.3401 32.1633 31.3935 32.0245 31.3922C31.8857 31.391 31.7529 31.3354 31.6548 31.2372C31.5566 31.1391 31.501 31.0063 31.4998 30.8675C31.4986 30.7287 31.5519 30.595 31.6483 30.4952L32.5974 29.5461H31.7579C31.4771 29.5461 31.2079 29.4346 31.0093 29.236C30.8108 29.0375 30.6992 28.7682 30.6992 28.4874V27.6479L26.1544 32.1928H27.5232C27.6636 32.1928 27.7983 32.2485 27.8975 32.3478C27.9968 32.4471 28.0526 32.5817 28.0526 32.7221C28.0526 32.8625 27.9968 32.9971 27.8975 33.0964C27.7983 33.1957 27.6636 33.2514 27.5232 33.2514H26.1544C25.2111 33.2514 24.7389 32.1113 25.4059 31.4443L29.9508 26.8994Z" fill="white"/>
<path d="M29.9052 30.6048C29.9052 30.7452 29.8495 30.8798 29.7502 30.9791C29.6509 31.0783 29.5163 31.1341 29.3759 31.1341C29.2355 31.1341 29.1009 31.0783 29.0016 30.9791C28.9023 30.8798 28.8466 30.7452 28.8466 30.6048C28.8466 30.4644 28.9023 30.3297 29.0016 30.2305C29.1009 30.1312 29.2355 30.0754 29.3759 30.0754C29.5163 30.0754 29.6509 30.1312 29.7502 30.2305C29.8495 30.3297 29.9052 30.4644 29.9052 30.6048Z" fill="white"/>
</svg>
