<svg width="177" height="166" viewBox="0 0 177 166" fill="none" xmlns="http://www.w3.org/2000/svg">
<path fill-rule="evenodd" clip-rule="evenodd" d="M83.2849 28.5307C83.4434 28.3485 83.4809 28.1794 83.3227 28.0211C83.0508 27.7484 82.7395 27.7031 82.4036 27.9038C82.2195 28.0138 82.2557 28.1415 82.3817 28.2715C82.6407 28.5387 82.9727 28.5196 83.2849 28.5307ZM25.1844 65.423C26.2642 65.1448 27.2981 64.7387 28.3568 64.403C27.2033 64.4389 26.1374 64.7565 25.1844 65.423ZM85.5578 28.0033C87.8229 28.3547 90.0709 28.7997 92.3122 29.2798C90.1617 28.3094 87.8947 27.9688 85.5578 28.0033ZM116.533 44.1562C119.54 46.0089 122.845 47.007 126.222 47.8094C123.071 46.721 119.921 45.6367 116.882 44.2557C116.773 44.2065 116.649 44.1889 116.533 44.1562ZM70.0981 119.914C66.9261 120.927 63.641 120.905 60.547 121.866C61.892 122.376 69.5065 120.898 70.0981 119.914ZM22.6457 106.409C22.9968 106.929 23.3063 107.484 23.7068 107.963C25.3472 109.925 27.1522 111.736 28.9509 113.551C31.6196 116.243 34.8539 118.205 37.9028 120.4C39.3098 121.412 40.8579 122.244 42.6699 122.35C48.6589 122.7 54.5532 122.257 60.4129 120.812C65.0896 119.659 69.8919 119.024 74.6004 117.987C77.9616 117.248 81.1928 116.042 84.2469 114.418C86.7912 113.064 89.0786 111.315 91.4703 109.725C93.4371 108.417 95.3697 107.062 97.4166 105.86C98.8582 105.012 100.089 103.729 101.426 102.654C103.78 100.761 106.269 99.1349 109.201 98.2592C111.906 97.4514 114.673 96.9645 117.476 96.786C123.152 96.4241 128.792 96.9663 134.406 97.7392C137.421 98.1546 140.433 98.5251 143.478 98.4956C149.082 98.4415 154.19 96.7816 158.752 93.5478C162.318 91.0197 164.058 87.5346 163.86 83.12C163.514 75.4467 160.705 68.9949 154.526 64.2046C149.741 60.4947 144.387 57.9303 138.604 56.1813C134.997 55.0906 131.298 54.3696 127.69 53.2894C122.775 51.8186 117.905 50.2412 113.458 47.6036C110.016 45.5626 106.891 43.0844 103.814 40.5477C101.187 38.3822 98.3645 36.5313 95.3007 35.051C91.7647 33.3424 88.067 32.38 84.1042 32.6612C83.6326 32.6952 83.6318 32.6848 83.3221 32.246C83.2281 32.1128 83.1101 32.1803 82.9895 32.1957C81.8905 32.3386 80.8525 32.6482 79.9166 33.2641C79.2843 33.68 78.5508 34.5278 78.1039 34.5169C76.6698 34.4813 76.082 35.6341 75.3516 36.3121C74.4457 37.1536 73.5742 38.1281 72.7691 39.1233C70.7479 41.6212 68.8506 44.2043 67.3675 47.0523C66.0066 49.6644 64.6021 52.253 62.3979 54.2298C61.7589 54.8024 61.5278 56.1946 60.1635 55.7964C60.163 55.7963 60.1359 55.9074 60.1124 55.9628C59.6958 56.9445 59.0229 57.7526 58.1878 58.3698C57.3904 58.9599 56.8208 59.7717 56.0327 60.3551C54.7607 61.2966 53.8152 62.6426 52.2798 63.2704C51.5812 63.5563 50.9516 64.0246 50.3179 64.4508C48.9074 65.3993 47.2427 65.8283 45.7806 66.7078C45.2328 67.0373 44.2487 67.0291 43.471 67.1835C40.6833 67.737 37.9362 67.2349 35.1653 67.0379C32.5588 66.8523 29.8743 66.4789 27.4428 67.916C26.462 68.4958 25.2777 68.887 24.7214 69.9705C23.2274 72.8839 20.9968 75.3916 20.0771 78.6256C19.3613 81.1425 17.9846 83.4376 17.6924 86.1127C17.4065 88.7289 16.9619 91.3426 17.2187 93.9684C17.3447 95.2573 17.4676 96.5677 17.9712 97.8407C19.181 100.9 20.777 103.721 22.6457 106.409ZM147.236 54.3677C147.379 54.4846 147.509 54.6286 147.67 54.7139C151.681 56.844 155.419 59.3627 158.759 62.4559C158.88 62.5677 158.998 62.7529 159.255 62.6939C159.052 62.4694 158.867 62.2546 158.67 62.0502C156.08 59.3582 153.008 57.3168 149.775 55.5012C148.97 55.0495 148.199 54.4812 147.229 54.3924C146.619 53.6122 145.591 53.5788 144.828 53.0622C144.694 52.9716 144.378 52.9901 144.314 53.3088C144.293 53.4146 144.311 53.5291 144.412 53.5176C145.477 53.399 146.214 54.3579 147.236 54.3677ZM129.004 53.1607C130.237 53.7122 131.555 53.9232 132.874 54.1322C131.581 53.8214 130.36 53.2156 128.998 53.1869C128.283 52.6588 127.42 52.5958 126.588 52.4358C127.342 52.8438 128.147 53.0874 129.004 53.1607ZM67.5394 125.199C65.6573 125.667 63.8 126.151 61.8028 125.873C60.596 125.705 59.3284 125.778 58.1168 125.947C57.6771 126.009 57.3771 125.78 56.9676 125.811C56.0115 125.883 55.1343 126.265 54.1233 126.213C51.8443 126.096 49.5686 125.998 47.2912 125.808C45.7885 125.682 44.2704 125.639 42.7699 125.468C39.9744 125.147 37.4792 124.013 35.1825 122.436C32.5285 120.613 29.8073 118.869 27.2829 116.879C22.5789 113.169 18.7111 108.752 15.9338 103.353C14.2607 100.1 12.85 96.7851 12.6456 93.1676C12.319 87.382 13.2971 81.7702 15.8995 76.5161C15.9969 76.3192 16.0625 76.1065 16.1366 75.8989C16.8091 74.0153 17.5903 72.1976 18.9123 70.6487C19.5659 69.8822 20.1155 69.0309 20.6287 68.1542C22.1503 65.5541 24.5575 64.231 27.4044 63.5791C30.27 62.9231 33.1897 63.0872 36.0073 63.5719C39.7724 64.2195 43.1174 63.4578 46.4024 61.7164C49.4578 60.0969 51.8802 57.7332 54.3079 55.3551C55.7976 53.8959 57.3165 52.465 58.786 50.9859C61.1545 48.601 62.7417 45.6992 64.3121 42.7595C66.3571 38.932 68.8372 35.3874 71.8426 32.2276C74.3575 29.5834 77.4742 27.9456 80.9382 27.0712C82.9339 26.5676 85.0172 26.2577 87.1411 26.6011C89.2091 26.9352 91.2581 27.2976 93.2258 28.0327C97.9557 29.7987 102.196 32.4034 106.125 35.5475C110.611 39.1371 115.276 42.433 120.752 44.3907C124.809 45.8412 128.94 47.0391 133.13 48.0395C138.835 49.4017 144.428 51.087 149.617 53.8941C154.648 56.6155 159.319 59.8517 162.518 64.6848C167.333 71.9594 168.958 79.8746 165.972 88.2748C163.763 94.4874 159.077 98.4159 153.1 100.909C152.021 101.359 150.94 101.807 149.847 102.222C147.039 103.287 144.146 103.806 141.125 103.738C139.364 103.698 137.61 103.558 135.862 103.509C133.81 103.452 131.797 103.204 129.792 102.897C127.469 102.541 125.144 102.407 122.803 102.368C121.988 102.354 121.237 101.966 120.388 101.993C117.178 102.097 113.964 102.121 110.803 102.782C109.097 103.139 107.417 103.463 105.837 104.372C104.868 104.931 103.985 105.609 103.013 106.148C101.556 106.957 100.36 108.109 99.1635 109.235C98.7041 109.668 97.864 109.324 97.9189 109.483C98.2177 110.343 97.4616 110.107 97.1739 110.323C97.0036 110.451 96.7349 110.47 96.6001 110.619C94.3099 113.151 91.3063 114.752 88.5705 116.683C86.0308 118.476 83.5581 120.473 80.5631 121.482C79.4707 121.849 78.4001 122.302 77.2986 122.655C75.9774 123.079 74.541 123.184 73.3223 123.863C71.6058 124.819 69.6926 124.917 67.8436 125.306C67.7421 125.327 67.6168 125.237 67.4994 125.2C68.4143 124.692 69.5358 124.965 70.4409 124.39C68.7436 124.653 67.0124 124.721 65.3804 125.365C66.1002 125.31 66.8195 125.255 67.5394 125.199Z" fill="#DDA619"/>
<path fill-rule="evenodd" clip-rule="evenodd" d="M112.577 56.0283C114.714 57.0507 117.002 57.5043 119.332 57.8027C117.077 57.2211 114.812 56.6824 112.577 56.0283ZM127.69 60.0745C127.712 59.9777 127.734 59.8809 127.756 59.7841C125.399 59.2156 123.096 58.4302 120.652 58.2047L127.69 60.0745ZM32.8275 74.4618C31.3771 74.175 28.4328 75.5863 28.2668 76.5291C29.7323 75.7767 31.142 74.8312 32.8275 74.4618ZM91.2016 44.6346C88.4413 43.5279 85.6257 42.7779 82.6166 43.5263C85.5157 43.6115 88.3827 43.9196 91.2016 44.6346ZM132.03 61.2002C137.005 62.8074 141.792 64.7832 146.178 67.6493C144.06 65.2616 134.344 61.2334 132.03 61.2002ZM67.4893 103.028C65.3109 103.312 63.2263 103.984 61.1628 104.679C59.0523 105.389 56.8876 105.886 54.753 106.49C52.7351 107.061 50.6334 107.337 48.5686 107.743C55.2155 107.484 61.2758 104.97 67.4893 103.028ZM73.9178 56.199C74.0271 56.145 74.1564 56.0253 74.2415 56.0511C74.3955 56.0975 74.3031 56.2376 74.2736 56.3576C74.1914 56.6963 73.8076 56.823 73.7738 57.2341C73.712 57.9922 73.4448 58.6655 72.9839 59.3334C72.591 59.9028 72.5879 60.7352 72.3799 61.4416C72.3338 61.5992 72.23 61.8277 72.0055 61.8163C71.5888 61.7947 71.6108 62.0227 71.7006 62.2957C71.8121 62.6326 71.6991 62.927 71.5172 63.1897C70.8625 64.1368 70.33 65.1685 69.4205 65.933C68.8337 66.4262 68.1475 67.0379 67.8446 67.5831C67.0002 69.102 65.662 70.0399 64.3339 70.8467C63.1312 71.5771 61.7869 72.1587 60.6562 73.0002C59.6793 73.7271 58.5152 73.7747 57.481 74.2675C56.2291 74.864 54.7051 74.7458 53.419 75.3881C52.6287 75.7821 51.5603 75.3883 50.9901 75.7829C49.6717 76.6949 48.1624 76.0008 46.824 76.6019C46.3984 76.793 45.7224 77.0221 45.1362 76.9355C43.9324 76.757 42.7682 77.2531 41.551 77.0484C40.0182 76.7908 38.4573 77.1736 36.8916 76.8525C35.951 76.6598 34.9328 76.7001 33.9562 76.6351C33.0722 76.5756 32.2008 77.2228 31.3339 77.5912C30.079 78.1242 29.6448 79.3438 28.8643 80.2888C26.9997 82.5469 26.0409 85.2766 25.6187 87.9996C24.7939 93.3175 26.4417 97.9072 30.9694 101.19C31.429 101.524 31.8893 101.856 32.3402 102.201C34.9836 104.223 37.9599 105.502 41.1577 106.398C45.3425 107.57 49.4708 106.676 53.5745 106.12C55.0098 105.926 56.4688 105.242 57.935 104.837C58.9386 104.56 59.9553 104.305 60.9228 103.927C61.8981 103.546 62.8962 103.251 63.8925 102.947C64.8869 102.644 65.9231 102.463 66.893 102.1C67.7558 101.777 68.6655 101.694 69.5388 101.328C70.7062 100.839 71.9574 100.483 73.1727 100.07C77.5428 98.5814 81.7906 96.8073 85.8978 94.6931C88.1741 93.5214 90.4242 92.2682 92.79 91.3063C100.436 88.1965 108.431 87.2859 116.613 87.9427C120.27 88.2365 123.913 88.7075 127.558 89.1389C132.777 89.7568 137.744 88.6501 142.647 87.0326C145.696 86.0273 148.141 84.1943 149.977 81.5863C151.024 80.0997 151.66 78.5075 150.801 76.6354C150.001 74.8923 148.597 73.6128 147.321 72.315C146.563 71.5436 145.495 70.8662 144.469 70.2702C142.009 68.8409 139.585 67.3428 136.844 66.5064C136.192 66.3069 135.774 65.7918 135.123 65.5924C134.288 65.3371 133.409 65.3588 132.587 65.0212C132.115 64.8271 131.807 64.4205 131.288 64.2985C127.996 63.5236 124.825 62.2763 121.438 61.8575C120.262 61.7124 119.117 61.325 117.95 61.0898C113.569 60.2061 109.55 58.4484 105.944 55.8469C101.523 52.6578 96.7622 50.11 91.7108 48.1303C89.7795 47.3733 87.8356 46.4781 85.667 46.4644C84.4093 46.4568 83.0213 46.2922 81.9737 46.8659C80.4239 47.7139 78.8013 48.5934 77.6841 50.0704C77.4146 50.4267 76.782 50.5429 76.7125 50.6982C76.4466 51.2958 76.0435 51.8201 75.8125 52.429C75.3128 53.7445 75.1236 55.2211 73.9178 56.199ZM45.2594 74.3754C45.4945 74.5418 45.7553 74.4464 45.986 74.4029C48.1802 73.9896 50.3937 73.6498 52.5169 72.9311C53.7593 72.5103 55.0988 72.3396 56.2118 71.5642C53.8812 72.3995 51.4304 72.7675 49.063 73.452C47.8066 73.8153 46.4586 73.8183 45.2554 74.4024C43.4672 74.3042 41.7495 74.8232 39.9878 74.9571C41.7584 74.8781 43.5509 74.9801 45.2594 74.3754ZM72.459 104.471C72.6293 104.31 72.8196 104.225 72.7869 103.97C72.4697 104.135 72.0286 104.088 72.0336 104.651C72.0368 104.979 71.6494 104.931 71.429 104.995C69.4463 105.573 67.4665 106.171 65.4934 106.769C63.615 107.339 61.6951 107.801 59.8602 108.516C58.9393 108.876 57.9592 108.973 57.0069 109.189C56.5693 109.287 56.1621 109.397 55.7857 109.651C55.0201 110.167 54.9643 110.128 54.8889 109.148C54.8824 109.067 54.8018 108.991 54.7433 108.891C54.6582 108.949 54.5562 108.979 54.5259 109.043C54.0815 110.001 53.1185 110.512 52.0387 110.469C51.3263 110.441 50.6297 110.447 49.9018 110.719C48.8067 111.127 47.6296 110.982 46.504 110.65C46.4017 110.62 46.3231 110.448 46.1871 110.529C45.3823 111.011 44.5881 110.638 43.8075 110.478C43.0624 110.326 42.3655 109.989 41.5955 109.894C40.2769 109.731 39.0402 109.381 37.8179 108.762C37.2537 108.477 36.4552 108.339 35.9114 107.964C33.9016 106.579 31.8289 105.29 29.853 103.847C26.5141 101.409 24.713 98.0059 23.3294 94.2832C22.5155 92.0931 22.2089 89.8236 22.3152 87.4879C22.356 86.5948 22.5694 85.7502 22.7859 84.8927C23.6117 81.617 25.1167 78.6954 27.3881 76.2047C28.8427 74.6096 30.7223 73.7272 32.8758 73.5413C33.4424 73.4924 34.1015 73.3042 34.5303 74.1403C34.717 74.5046 35.5692 74.4158 36.1433 74.4085C40.2017 74.3572 44.2019 73.8427 48.1556 72.9339C52.3176 71.9774 56.4046 70.8353 60.2393 68.8707C63.0229 67.4447 65.2561 65.4307 67.3159 63.1269C68.9657 61.282 69.9277 59.1215 70.7468 56.8433C71.3603 55.1362 72.1052 53.4769 72.735 51.7752C72.958 51.1721 73.499 51.3778 74.1179 51.094C73.1413 51.0546 73.2192 50.8874 73.618 50.3206C74.0166 49.754 74.2647 49.0411 74.5851 48.3941C75.2715 47.0097 76.2412 45.8285 77.4839 44.9718C77.9553 44.6468 78.1839 44.1316 78.6762 43.8924C79.2969 43.5907 79.9043 43.2381 80.5571 43.0306C81.7111 42.6632 82.8463 42.1552 84.136 42.6551C84.4922 42.7932 84.9485 42.2603 85.4652 42.3417C87.6771 42.6897 89.9282 42.9035 92.003 43.8052C96.9397 45.9505 101.642 48.5141 106.149 51.4818C109.287 53.548 112.653 55.2712 116.407 56.0349C121.931 57.1589 127.381 58.5856 132.781 60.1918C137.901 61.7147 142.788 63.7511 147.134 66.9351C148.959 68.272 150.557 69.8274 151.949 71.6103C153.935 74.1551 154.069 76.974 153.099 79.887C151.234 85.4814 147.344 89.125 141.881 91.1456C138.206 92.5049 134.416 93.4125 130.504 93.724C128.668 93.8699 126.84 94.0621 124.992 93.5057C124.111 93.2402 123.083 93.4735 122.121 93.4611C118.834 93.4185 115.596 92.7596 112.3 92.7332C110.833 92.7213 109.382 92.8532 107.923 92.8931C104.74 92.9803 101.629 93.6727 98.5127 94.2261C95.7785 94.7115 93.2521 95.9252 90.7469 97.1262C88.048 98.4206 85.337 99.6921 82.6097 100.925C81.0343 101.637 79.4623 102.454 77.7997 102.845C76.6446 103.117 75.6565 103.765 74.4833 103.949C73.8102 104.054 73.284 104.785 72.459 104.471Z" fill="#DDA619"/>
<path fill-rule="evenodd" clip-rule="evenodd" d="M76.6552 88.98C76.667 89.0864 76.6786 89.1932 76.6903 89.2996C77.5299 89.1 78.4899 89.4956 79.1812 88.5486C78.3392 88.6923 77.4973 88.8363 76.6552 88.98ZM91.6784 56.9551C90.266 55.5258 87.5914 54.8878 86.6624 55.7634C88.4916 55.6822 90.0964 56.271 91.6784 56.9551ZM110.934 64.1453C110.966 64.0543 110.997 63.9632 111.028 63.8726C107.665 62.968 104.302 62.0632 100.94 61.159C100.917 61.2416 100.894 61.3245 100.871 61.4076L110.934 64.1453ZM121.2 66.3805C124.098 67.4085 126.946 68.5526 129.661 70.0163C132.406 71.4957 135.11 73.0414 137.759 74.6715C132.589 71.2161 127.353 67.8883 121.2 66.3805ZM50.0396 92.9789C51.311 92.9235 52.5557 93.0575 53.8426 92.8438C56.7543 92.3607 59.7027 92.0912 62.6089 91.5401C66.9391 90.7196 71.2848 89.9986 75.6808 89.6253C75.956 89.6017 76.2271 89.5695 76.3175 89.0778C67.4282 89.9187 58.8223 92.0599 50.0396 92.9789ZM117.874 68.9271C116.836 68.2822 115.634 68.4288 114.504 68.226C113.41 67.6967 112.173 67.8306 111.038 67.4683C109.081 66.8435 107.134 66.1604 105.139 65.6872C101.01 64.7083 97.1349 63.165 93.4645 61.0308C92.1016 60.2387 91.0537 58.9487 89.3916 58.6078C88.3751 58.3991 87.3843 57.9802 86.4048 58.5608C84.9535 59.4209 83.7521 60.5497 82.9515 62.0692C81.4716 64.8785 80.5748 67.9223 79.393 70.8513C78.1649 73.8953 76.7878 76.804 74.2131 79.0465C71.7499 81.1911 68.9527 82.7897 66.1787 84.4327C65.6167 84.7655 64.8547 84.7476 64.2155 85.1502C63.323 85.7128 62.3455 86.3597 61.2547 86.2882C59.2863 86.1595 57.4858 86.892 55.6088 87.205C54.9934 87.3078 54.389 87.9075 53.7502 87.7375C52.8975 87.5107 52.1647 87.7895 51.3825 87.9335C51.0773 87.99 50.7439 88.0071 50.4419 87.9475C49.4451 87.7512 48.4073 87.9043 47.4491 87.9458C45.5676 88.0274 43.7764 87.9136 41.9584 87.4712C41.4342 87.344 41.1184 86.7971 40.515 86.9154C39.9125 87.0331 39.3194 86.902 38.738 86.7373C38.1443 86.5693 37.578 86.6609 36.9683 86.8464C37.0796 87.1885 37.3214 87.2946 37.5181 87.4366C38.7547 88.3303 40.2074 88.8278 41.5031 89.6223C43.776 91.016 46.2489 91.8166 48.9304 91.9622C50.9368 92.0711 52.8997 91.7391 54.8673 91.4582C58.7666 90.9013 62.6723 90.3737 66.5525 89.7007C68.7261 89.3236 70.9029 88.9879 73.0886 88.719C76.72 88.2724 80.3193 87.629 83.9082 86.9471C86.7825 86.4011 89.6143 85.6434 92.3458 84.5548C94.7303 83.6037 97.2334 83.0625 99.7282 82.5013C104.478 81.4327 109.23 80.3995 114.152 80.6019C118.574 80.7837 122.995 81.007 127.425 80.8783C130.732 80.7821 133.989 80.4374 137.103 79.2447C137.437 79.1166 137.961 79.0749 138.008 78.6859C138.047 78.3562 137.581 78.1766 137.3 77.9838C134.348 75.9635 131.257 74.1867 128.037 72.6222C127.455 72.3396 126.57 72.3372 126.388 71.4272C126.362 71.2988 126.08 71.1844 126.001 71.3266C125.721 71.8288 125.444 71.408 125.23 71.3194C123.881 70.7603 122.524 70.225 121.155 69.7156C120.083 69.317 118.937 69.3118 117.874 68.9271ZM49.702 85.3281C49.8678 85.5401 50.0913 85.4821 50.3066 85.4556C53.032 85.1198 55.695 84.4375 58.3973 83.979C59.6942 83.7585 60.7818 82.8002 62.1753 82.9599C62.4139 82.987 62.5353 82.8458 62.4909 82.6132C62.4327 82.3079 62.1889 82.2872 61.9776 82.3912C61.154 82.7977 60.2493 82.8841 59.3782 83.108C57.1341 83.6844 54.9264 84.3707 52.6093 84.6791C51.646 84.8076 50.6184 84.9229 49.6969 85.358C48.4217 85.2908 47.1738 85.4707 45.9413 85.7847C47.1897 85.5919 48.5047 85.9507 49.702 85.3281ZM112.571 83.6504C112.286 84.2503 111.924 84.3562 111.338 84.4779C109.91 84.7747 108.398 84.4317 107.03 85.0976C106.542 85.3355 105.972 85.2167 105.454 85.2579C104.136 85.3627 102.955 86.0087 101.698 86.1512C100.505 86.2864 99.4061 86.7411 98.2269 86.8541C97.6008 86.9138 97.09 87.3864 96.4269 87.3614C95.98 87.3442 93.7531 88.0594 93.3524 88.2383C92.3436 88.6895 91.3218 89.1122 90.3009 89.5363C90.1258 89.6092 89.9206 89.6469 89.8121 89.4146C89.7 89.1752 89.5308 89.1369 89.3947 89.3498C88.8844 90.1473 87.9883 90.2115 87.2357 90.3167C85.0483 90.6216 82.8864 91.0635 80.7263 91.4929C80.2981 91.5782 79.9497 90.8667 79.4415 91.5473C79.1848 91.8908 78.3481 91.9056 77.7375 91.9372C77.1419 91.9687 76.5536 92.1167 75.9587 92.1827C71.5739 92.6703 67.2177 93.3391 62.8744 94.1184C60.4654 94.5507 58.0201 94.7764 55.5999 95.1523C54.9885 95.2475 54.3711 95.4563 53.7757 95.6449C53.2287 95.818 52.4412 96.0618 51.7785 95.6983C51.6556 95.6308 51.5651 95.5982 51.4364 95.6359C48.8315 96.403 46.4742 95.3306 44.1161 94.5469C42.4277 93.986 40.9343 92.9198 39.4177 92.0139C38.4794 91.4532 37.3582 91.1119 36.5779 90.2474C35.7955 89.3811 34.9802 88.5462 34.3049 87.5883C33.6498 86.6591 33.2822 85.6392 33.2969 84.4935C33.3044 83.8934 33.6227 83.5882 34.1983 83.4593C35.6254 83.139 37.0203 83.1675 38.3843 83.7408C38.9071 83.96 39.4137 84.2298 40.0106 84.2079C40.4366 84.1922 40.2726 84.7634 40.848 84.88C42.8841 85.2924 44.8684 85.0657 46.8757 84.8567C51.0335 84.4236 55.085 83.4555 59.1241 82.4303C60.8719 81.9864 62.5158 81.2597 64.1454 80.4944C65.1744 80.0115 66.1718 79.4805 67.1525 78.9091C67.607 78.6439 68.0829 78.5776 68.1787 79.2907C68.2356 79.7162 68.5336 79.6578 68.7985 79.6966C68.9868 79.7241 69.1055 79.6124 69.1347 79.444C69.1872 79.1372 68.892 79.1007 68.7226 79.0029C68.0279 78.6013 68.0694 78.2888 68.7439 77.8776C70.603 76.7451 72.4365 75.5736 73.892 73.9094C74.6176 73.0804 75.2439 72.1815 75.7562 71.2151C77.2548 68.3893 78.2772 65.3562 79.5442 62.4288C80.472 60.2868 81.3795 58.1153 83.2221 56.5527C83.6509 56.1889 83.9671 55.4401 84.7758 55.8269C84.8203 55.8486 84.9071 55.8353 84.9473 55.804C86.6841 54.4507 86.7677 54.4762 88.8791 54.852C90.2492 55.0959 91.4865 55.6862 92.6187 56.3744C96.7855 58.9059 101.33 60.3413 106.004 61.5952C111.692 63.1213 117.53 64.0696 123.135 65.8615C129.274 67.8251 134.78 71.0949 139.785 75.1326C142.426 77.264 141.765 80.6112 138.578 81.9091C135.397 83.205 132.075 83.9091 128.646 84.1808C124.71 84.4923 120.766 84.4678 116.826 84.5269C115.745 84.5433 114.65 84.677 113.555 84.5465C112.987 84.4788 112.516 84.4615 112.571 83.6504Z" fill="#DDA619"/>
<path fill-rule="evenodd" clip-rule="evenodd" d="M116.398 72.6789C115.198 72.8144 114.091 72.5004 113.028 71.9778C114.158 72.1806 115.36 72.034 116.398 72.6789Z" fill="#DDA619"/>
</svg>
