<svg width="167" height="146" viewBox="0 0 167 146" fill="none" xmlns="http://www.w3.org/2000/svg">
<g filter="url(#filter0_d_30_85)">
<path fill-rule="evenodd" clip-rule="evenodd" d="M60.273 63.0606C60.3926 62.9818 60.5304 62.9272 60.6162 62.8274C60.8215 62.5886 60.966 62.2852 61.2015 62.0864C61.7471 61.626 61.9948 60.9512 62.4606 60.4355C62.5241 60.3649 62.5212 60.2454 62.5357 60.1363C62.5649 59.9157 62.6723 59.6703 62.7468 59.4606C62.81 59.2827 63.0903 59.2148 63.0529 58.9581C63.0406 58.875 63.0283 58.7862 62.9879 58.716C62.9697 58.6842 62.868 58.6669 62.8309 58.6885C62.7918 58.7113 62.7706 58.7875 62.766 58.8425C62.761 58.9048 62.8153 58.9988 62.7882 59.029C62.3821 59.4778 62.2075 60.0797 61.7292 60.4987C61.4741 60.7217 61.2499 61.0768 61.1021 61.3839C60.9696 61.6595 60.8977 61.8334 60.5973 61.9854C60.2256 62.1736 59.9848 62.5429 60.273 63.0606ZM66.8801 58.0352V58.2643C66.8801 58.3639 66.9353 58.4498 67.0282 58.414C67.1599 58.3631 67.3217 58.4976 67.2391 58.612C67.152 58.7325 67.0735 58.8411 66.9981 58.9455C66.8948 59.0884 66.7812 58.9075 66.6049 58.9061C66.481 58.9061 66.3548 58.9753 66.2335 59.0273C65.9172 59.1622 65.6763 59.619 65.5937 59.9528C65.5788 60.013 65.5746 60.0764 65.5875 60.1445C65.6015 60.2187 65.6563 60.2667 65.7294 60.2856C65.923 60.3358 65.9842 60.58 65.8471 60.7256C65.6718 60.9119 65.6062 61.079 65.4021 61.5972C65.3819 61.6485 65.3547 61.6995 65.3209 61.7432C65.1147 62.0116 65.5199 62.041 65.7116 61.7621C65.8546 61.5541 65.9129 61.4254 65.9572 61.232C65.9995 61.0475 66.1957 61.0238 66.3561 60.9234C66.6198 60.7591 66.271 60.3719 66.6936 60.2907C66.8204 60.2664 66.8564 60.1956 66.8592 60.1078C66.8686 59.8103 67.0474 59.7755 67.3386 59.7137C67.3725 59.7064 67.4052 59.6939 67.4361 59.6788C67.5774 59.6096 67.6391 59.4358 67.6261 59.279C67.6204 59.2098 67.6149 59.1425 67.6093 59.0746C67.5983 58.941 67.7038 58.8266 67.8379 58.8266C67.8957 58.8266 67.9526 58.8055 67.9909 58.7622C68.3066 58.4048 68.1656 57.9704 68.4682 57.6791C68.4752 57.6723 68.4787 57.6617 68.4795 57.648C68.4878 57.5096 68.3056 57.4312 68.1768 57.4825C68.1628 57.4881 68.149 57.4936 68.1353 57.4991C68.0489 57.5335 67.9489 57.4875 67.9132 57.4016C67.8759 57.3114 67.769 57.2673 67.6783 57.3034C67.6299 57.3227 67.5906 57.3447 67.5811 57.3757C67.4671 57.7527 67.1696 57.91 66.8801 58.0352ZM28.9889 53.4387C28.9008 53.5457 28.7912 53.6418 28.7279 53.7624C28.3533 54.4766 28.0886 55.2427 27.654 55.9334C27.4529 56.2531 27.4029 56.6671 27.278 57.0361C27.1621 57.3783 26.9037 57.7381 26.9507 58.0534C27.0543 58.7408 26.5106 59.5122 26.3274 60.1828C26.2461 60.4806 26.1714 60.7807 26.0673 61.0708C25.9172 61.4898 25.7616 61.9108 25.6609 62.3428C25.5582 62.7804 25.3826 63.2242 25.3472 63.642C25.3124 64.0557 24.9768 64.4701 25.2617 64.9362C25.3299 65.0481 25.1524 65.4778 25.0232 65.5112C24.658 65.6054 24.7399 66.242 24.7467 66.6191C24.7497 66.7868 24.7327 66.9528 24.5909 67.0923C24.4369 67.244 24.4352 67.563 24.3925 67.8108C24.3368 68.1319 24.7015 67.8369 24.7444 67.5138C24.7597 67.3984 24.7873 67.2907 24.8443 67.2019C25.0252 66.9207 24.7555 66.5391 25.1332 66.3148C25.318 66.2052 25.0981 65.8126 25.4141 65.6835C25.4585 65.6652 25.4488 65.5255 25.4727 65.4446C25.7993 64.3445 25.9815 63.2047 26.381 62.1261C26.5274 61.7306 26.533 61.3099 26.7112 60.9105C26.865 60.5656 26.9345 60.1694 27.0909 59.8071C27.2565 59.4235 27.3135 58.9998 27.4284 58.5977C27.9173 56.8848 28.5788 55.2292 28.9889 53.4387ZM33.4946 53.6982C33.1879 53.9814 32.9269 54.1056 32.899 54.2692C32.792 54.9009 32.4704 55.413 32.1822 55.9656C31.9039 56.4989 31.7254 57.0958 31.4806 57.6579C31.2371 58.2178 30.9718 58.8074 30.9188 59.4023C30.836 60.3265 30.4594 61.1417 30.193 61.9987C29.9446 62.7983 29.82 63.6334 29.4583 64.4022C29.3291 64.6758 29.2973 65.0067 29.2731 65.3158C29.237 65.7766 29.2466 66.2267 29.1125 66.6922C28.9803 67.1496 29.0373 67.6581 28.9445 68.1513C28.8664 68.5664 28.7253 68.9877 28.7233 69.423C28.7213 69.8569 28.6206 70.2839 28.5762 70.7056C28.4828 71.593 28.2025 72.4364 28.1005 73.3149C28.0879 73.4225 28.19 73.5454 28.1731 73.6504C28.1515 73.7823 28.0608 73.9022 28.0021 74.0287C27.9791 74.0784 27.9567 74.1284 27.9342 74.1793C27.8914 74.2759 27.9544 74.3804 28.0578 74.4024C28.084 74.408 28.1303 74.4322 28.1287 74.4405C28.1224 74.4738 28.1178 74.5069 28.1145 74.5399C28.0938 74.7536 28.2936 74.7249 28.3947 74.5355C28.6017 74.1463 28.3827 73.7197 28.5686 73.4364C28.8203 73.0528 28.6527 72.6858 28.7259 72.3218C28.7749 72.0763 28.9416 71.7914 28.8654 71.6C28.7826 71.392 28.7846 71.3015 28.8432 71.0809C28.9439 70.7043 29.0717 70.2965 29.0664 69.9132C29.0542 68.9745 29.1913 68.0669 29.453 67.1764C29.6518 66.5004 29.7843 65.8077 29.9337 65.124C30.0847 64.433 30.3606 63.7891 30.5279 63.11C30.7562 62.1845 31.0861 61.2901 31.3236 60.3656C31.4796 59.7601 31.7652 59.1572 31.941 58.5543C32.113 57.963 32.272 57.3711 32.5019 56.7967C32.7298 56.2286 32.9454 55.6552 33.1375 55.0745C33.268 54.6813 33.3485 54.2715 33.4946 53.6982ZM118.117 51.7467C118.587 51.8862 118.979 51.8365 119.339 51.6255C119.585 51.4807 119.789 51.1766 120.036 51.1475C120.36 51.1087 120.452 50.8255 120.675 50.7463C120.997 50.6321 121.026 50.4287 121.069 50.1455C121.09 50.0113 121.178 49.9013 121.312 49.8994C121.432 49.8977 121.578 49.8513 121.596 49.7323C121.6 49.7023 121.604 49.6722 121.609 49.6418C121.62 49.563 121.769 49.4961 121.771 49.5757C121.786 50.053 121.745 50.5078 121.222 50.7321C121.171 50.754 121.1 50.7659 121.075 50.8056C120.467 51.7792 120.285 51.7954 119.181 52.495C118.893 52.6769 118.745 53.0197 118.359 53.0896C117.782 53.195 117.311 53.6484 116.685 53.6296C116.617 53.6276 116.553 53.7445 116.475 53.769C116.445 53.7786 116.414 53.7894 116.385 53.8012C115.638 54.0947 114.764 54.3194 113.999 54.5617C113.44 54.7389 112.801 54.6508 112.302 55.0424C112.226 55.1023 112.071 55.0533 111.955 55.0698C111.645 55.1136 111.335 54.9877 111.018 55.2222C110.788 55.3928 110.411 55.1523 110.101 55.4097C109.907 55.57 109.558 55.4451 109.259 55.5273C108.719 55.6754 108.159 55.7572 107.629 55.9662C107.57 55.9897 107.523 55.9958 107.486 55.9891C107.243 55.9459 107.103 55.7664 106.962 55.9685C106.892 56.0687 106.757 56.1503 106.635 56.1423C106.538 56.136 106.427 56.1369 106.328 56.1726C106.174 56.2279 106.076 56.4253 105.937 56.5376C105.737 56.6983 105.528 56.8507 105.306 56.9792C105.201 57.04 105.069 56.9888 104.987 57.0788C104.824 57.2587 104.661 57.4385 104.493 57.624C104.382 57.7455 104.16 57.7908 104.074 57.651C103.994 57.5213 103.848 57.4383 103.733 57.5377C103.725 57.5445 103.717 57.5515 103.709 57.5585C103.689 57.5769 103.671 57.5964 103.652 57.6164C103.578 57.6973 103.461 57.7078 103.395 57.6207C103.329 57.5347 103.187 57.5136 103.089 57.5591C102.999 57.6005 102.9 57.6343 102.816 57.6888C102.618 57.8177 102.84 57.9268 103.072 57.9729C103.091 57.9768 103.11 57.9824 103.13 57.9894C103.37 58.0778 103.397 58.5006 103.157 58.5891C102.707 58.7547 102.363 59.0442 102.063 59.4036C101.856 59.6523 101.615 59.8583 101.353 59.9688C101.286 59.997 101.243 60.0743 101.254 60.1463C101.267 60.2329 101.198 60.2996 101.115 60.3273C100.881 60.4055 100.77 60.6336 100.637 60.8326C100.591 60.9019 100.579 61.0095 100.518 61.0506C100.067 61.3547 99.7625 61.7836 99.5167 62.2504C99.3856 62.4991 99.2318 62.6787 98.9425 62.6964C98.8867 62.6998 98.857 62.7682 98.8926 62.8112C99.1395 63.1112 98.6671 63.6117 98.4942 63.9596C98.3558 64.2378 98.2257 64.5165 97.9959 64.7107C97.8938 64.7968 97.8256 64.9248 97.8483 65.0564C97.8769 65.2217 97.9059 65.3901 97.9407 65.5927C97.9537 65.6682 97.8387 65.7 97.7765 65.6552C97.7192 65.6138 97.6459 65.6762 97.6019 65.7316C97.5004 65.8594 97.3353 65.9675 97.5447 66.2168C97.6604 66.3546 97.6481 66.7531 97.5298 66.9002C97.3228 67.1575 97.3934 67.409 97.3894 67.661C97.3755 68.5942 97.2844 69.5409 97.4069 70.4581C97.5928 71.851 97.5242 73.2406 97.5785 74.6312C97.5924 74.9936 97.829 75.3444 97.7412 75.7307C97.7047 75.8917 97.5775 76.0427 97.5775 76.1987C97.5775 76.3541 97.7008 76.5058 97.7418 76.6665C97.8256 76.996 97.5696 77.2902 97.5842 77.5834C97.6136 78.1803 97.4301 78.7374 97.3844 79.3165C97.3798 79.3761 97.4089 79.4569 97.3801 79.494C96.9263 80.0707 96.9386 80.8141 96.6845 81.465C96.237 82.6098 95.7653 83.746 95.166 84.808C94.5244 85.9445 93.9096 87.1396 92.7118 87.8508C92.5614 87.9403 92.5144 88.1953 92.3676 88.303C92.2176 88.4123 91.9671 88.3888 91.8254 88.5037C91.2195 88.9954 90.346 89.235 89.7651 89.7559C89.7595 89.761 89.754 89.766 89.7484 89.7711C89.2939 90.1878 88.6291 90.1818 88.2058 90.6545C87.8682 91.0318 87.4055 91.2587 86.9318 91.4535C86.4432 91.6546 85.9758 91.9077 85.4842 92.1011C85.1483 92.2336 84.8731 92.5036 84.4626 92.5006C84.3682 92.4999 84.3427 92.9147 83.9919 92.8468C83.8243 92.8143 83.5858 92.9057 83.4457 93.0213C83.183 93.238 82.8951 93.1717 82.6093 93.1939C82.1793 93.227 81.7315 93.0839 81.322 93.3625C81.2187 93.4324 81.0113 93.4142 80.8815 93.3629C80.7069 93.2936 80.592 93.0545 80.3558 93.2989C80.3044 93.3516 80.0769 93.2088 79.9271 93.1959C79.0752 93.1237 78.3176 92.8448 77.7111 92.2194C77.5454 92.0484 77.3861 91.9315 77.1112 91.907C76.7895 91.8785 76.4251 91.7646 76.184 91.5628C75.9177 91.3396 75.5742 91.4237 75.3254 91.211C75.2042 91.1074 74.9686 91.1146 74.8808 90.999C74.5773 90.6019 74.1392 90.4244 73.7203 90.2182C73.4044 90.0627 73.1529 89.3965 72.8874 89.6277C72.6413 89.8423 72.582 89.6184 72.4935 89.521C72.4287 89.4499 72.3734 89.3699 72.3184 89.2837C72.2179 89.1257 72.0679 89.044 71.9002 89.1273C71.7399 89.2069 71.5044 89.1796 71.4088 89.0282C71.3401 88.9194 71.2624 88.8172 71.1592 88.7674C70.8624 88.6236 70.7558 88.1231 70.2731 88.2944C70.2026 88.3195 70.0356 88.091 69.922 87.9711C69.8693 87.9154 69.813 87.776 69.8014 87.7806C69.3198 87.9754 69.0995 87.3934 68.6825 87.4079C68.6291 87.4099 68.5496 87.3983 68.5241 87.3629C68.2154 86.9352 67.7202 86.8528 67.2829 86.6481C66.9468 86.4907 66.6653 86.2172 66.3863 86.0005C66.3512 85.9733 66.34 85.9199 66.3558 85.8785C66.394 85.7785 66.2662 85.704 66.1906 85.7797C66.1405 85.8297 66.0943 85.8759 66.052 85.9181C66.0109 85.9592 65.9487 85.9705 65.8951 85.948C65.3816 85.7322 64.8958 85.6138 64.5529 85.2129C64.4877 85.1365 64.3533 85.154 64.3259 85.2506C64.3036 85.3295 64.2089 85.3592 64.1502 85.302C64.0477 85.202 63.9512 85.104 63.8373 85.0756C63.5918 85.0143 63.3112 85.1147 63.0926 84.8908C63.0704 84.8682 62.9097 85.0011 62.8051 85.0325C62.7315 85.0544 62.5719 85.0239 62.5719 85.0213C62.5884 84.583 62.1899 84.7761 62.0124 84.644C61.8651 84.5345 61.6318 84.5952 61.4787 84.6963C61.4145 84.7387 61.3385 84.7659 61.2532 84.7824C61.0922 84.8136 60.8679 84.9053 60.7758 84.8348C60.5095 84.6314 60.3382 84.6844 60.0713 84.8497C60.027 84.877 59.9749 84.8917 59.9173 84.8984C59.5285 84.9438 59.3445 84.3552 58.995 84.5314C58.7365 84.6615 58.8157 85.0353 58.6763 84.7816C58.6222 84.6831 58.5497 84.6108 58.3908 84.6778C57.9976 84.8443 57.7563 84.7565 57.9678 85.1275C57.9815 85.1517 57.9912 85.1778 57.995 85.2068C57.995 85.4069 57.7995 85.5924 57.6419 85.5066C57.4971 85.4284 57.3663 85.3562 57.3007 85.5287C57.2838 85.5741 57.5077 85.7285 57.304 85.8362C57.1827 85.9004 57.04 85.9256 56.9061 85.9643C56.3629 86.122 55.8948 86.4052 55.5676 86.8667C55.3248 87.2089 55.1363 87.5895 54.9233 87.9529C54.7103 88.3166 54.5238 88.6992 54.2744 89.0357C54.2707 89.0406 54.267 89.0455 54.2633 89.0503C54.0242 89.3565 53.9136 89.8473 53.7096 90.1779C53.3581 90.7473 53.1348 91.4055 52.7334 91.9318C52.4376 92.3201 52.2027 92.7199 51.9741 93.1436C51.7462 93.5669 51.4325 93.9445 51.153 94.3397C51.1087 94.4028 51.0052 94.3612 50.9855 94.2867C50.9109 94.0044 50.836 93.7215 50.7612 93.4386C50.7539 93.411 50.7292 93.3916 50.7007 93.3913C50.6693 93.3909 50.6423 93.4135 50.636 93.4442C50.6152 93.5443 50.5872 93.6451 50.5925 93.7438C50.6027 93.9141 50.5022 94.1311 50.3968 94.2654C50.3525 94.3218 50.3086 94.3801 50.255 94.4212C50.1217 94.5237 49.9081 94.624 49.9081 94.7922C49.9081 95.0052 50.1773 95.098 50.3085 94.9302C50.3593 94.8653 50.4088 94.8019 50.4576 94.7395C50.5722 94.593 50.8284 94.598 50.785 94.7788C50.764 94.8665 50.7074 94.9489 50.6546 95.0318C50.5524 95.1919 50.4445 95.3705 50.3107 95.5053C49.9046 95.9144 49.7522 96.5056 49.3974 96.9804C49.3062 97.1024 49.1577 97.163 49.0054 97.163H48.6645C48.5459 97.163 48.4496 97.2592 48.4496 97.3779V97.3935C48.4496 97.5382 48.3091 97.6395 48.1749 97.5853C48.0519 97.5358 47.9092 97.6121 47.8899 97.7432C47.8844 97.7805 47.8789 97.8178 47.8733 97.8558C47.8567 97.9688 47.776 98.0618 47.6655 98.0907C47.4926 98.1358 47.3122 98.1813 47.1478 98.2604C46.9991 98.3323 46.9113 98.5413 46.7616 98.5989C46.6039 98.6596 46.4055 98.6119 46.2246 98.6135C46.1971 98.6139 46.1594 98.6152 46.1435 98.6324C45.752 99.056 45.2246 99.2278 44.6837 99.4001C44.5604 99.4393 44.4455 99.3798 44.3308 99.3197C44.3011 99.3041 44.2703 99.2904 44.2388 99.278C44.1116 99.228 43.9757 99.3373 43.9888 99.4733C43.9976 99.5656 43.9379 99.6542 43.8479 99.6767C43.6657 99.7222 43.525 99.7566 43.4122 99.7806C43.0244 99.8629 42.6244 100.101 42.247 100.222C42.1901 100.24 42.1254 100.254 42.0512 100.262C41.1965 100.356 40.3572 100.604 39.4886 100.589C39.4693 100.589 39.45 100.592 39.4309 100.597C39.1759 100.667 38.6555 100.458 38.4352 100.604C38.3721 100.646 38.3106 100.693 38.2499 100.728C38.0148 100.863 37.6735 100.69 37.4257 100.8C37.2318 100.887 37.0412 100.809 36.8593 100.699C36.7735 100.648 36.667 100.645 36.506 100.765C36.3626 100.872 36.088 100.809 36.1069 100.489C36.1069 100.487 36.0002 100.463 35.9883 100.48C35.8048 100.747 35.5921 100.187 35.4238 100.501C35.3834 100.576 35.3028 100.615 35.2424 100.555C35.1739 100.487 35.1012 100.414 35.0202 100.333C34.9156 100.228 34.7332 100.301 34.706 100.447C34.6767 100.603 34.4528 100.653 34.372 100.516C34.3554 100.488 34.3431 100.459 34.3367 100.43C34.2896 100.214 34.1588 100.184 34.0322 100.275C33.8673 100.395 33.9716 100.533 34.0932 100.64C34.1326 100.674 34.1051 100.744 34.0553 100.76C33.8807 100.815 33.7854 100.705 33.7001 100.598C33.6115 100.487 33.4684 100.483 33.3351 100.532C32.7469 100.749 32.17 100.687 31.6032 100.489C31.1288 100.322 30.5604 100.305 30.2901 99.7464C30.2727 99.7102 30.1907 99.7869 30.1023 99.8122C30.0091 99.8388 29.8612 99.817 29.8117 99.9003C29.7658 99.9774 29.6469 99.9928 29.5984 99.9174C29.5513 99.8443 29.5045 99.7714 29.4564 99.6968C29.3801 99.5784 29.2315 99.5401 29.1052 99.6023C29.0289 99.6398 28.9514 99.6708 28.8717 99.6778C28.8124 99.6831 28.6931 99.3724 28.6706 99.381C28.2012 99.5665 27.9683 99.225 27.7216 98.9567C27.5102 98.7261 27.2531 98.5863 26.9808 98.4684C26.8591 98.4157 26.7832 98.2988 26.7327 98.1762C26.6517 97.9797 26.4868 97.9134 26.2739 97.8922C26.0931 97.8742 26.025 97.6547 26.1781 97.5567C26.1865 97.5514 26.1948 97.5461 26.203 97.5408C26.2893 97.4855 26.3146 97.3769 26.2415 97.305C26.1696 97.2344 26.0386 97.2346 25.9833 97.3188C25.9707 97.3379 25.9583 97.3568 25.9462 97.3753C25.8986 97.4478 25.8115 97.4885 25.7258 97.475C25.7031 97.4714 25.6871 97.4667 25.6754 97.4568C25.2504 97.0977 24.8489 96.7075 24.3978 96.3859C24.2047 96.2481 24.3398 95.9105 23.988 95.8741C23.8794 95.8625 23.7065 95.4964 23.7376 95.3242C23.7886 95.0383 23.7247 94.9479 23.4829 94.8002C23.2338 94.6481 23.0738 94.3506 22.874 94.1174C22.7369 93.9573 22.5889 93.8071 22.4366 93.6609C21.3966 92.6626 20.5187 91.4018 19.5075 90.3743C19.11 89.9712 19.0666 89.3252 18.6118 88.9383C18.5678 88.9002 18.5936 88.7624 18.6085 88.6747C18.6642 88.347 18.5283 88.1238 18.2932 87.8965C17.8532 87.4722 17.7082 86.8743 17.5366 86.3185C17.5331 86.3072 17.5295 86.296 17.5259 86.2848C17.2131 85.3255 17.0347 84.18 16.5398 83.3008C16.3931 83.0407 16.5938 82.938 16.5812 82.7903C16.5607 82.5558 16.3759 82.3401 16.2884 82.1059C16.1798 81.8151 16.0204 81.5451 16.0628 81.1983C16.0926 80.9558 16.1894 80.6574 15.9098 80.4483C15.8856 80.4301 15.9946 80.2569 16.0135 80.1502C16.031 80.0512 16.0499 79.8842 16.0009 79.8528C15.718 79.6732 15.8581 79.4649 15.8763 79.224C15.8985 78.9239 15.7485 78.6155 15.7223 78.3061C15.6918 77.9474 15.7415 77.5817 15.7084 77.2233C15.7045 77.1815 15.703 77.1395 15.7031 77.0972C15.7046 76.4478 15.5906 75.4677 15.6461 74.8207C15.6723 74.5166 15.7886 74.2059 15.7356 73.8747C15.7051 73.6829 15.9529 73.4924 15.9048 73.2284C15.8624 72.9955 15.9177 72.7458 15.8893 72.5082C15.8657 72.3135 16.1675 72.1316 15.9071 71.9206C15.8903 71.9067 16.0112 71.6602 16.1129 71.5774C16.1504 71.547 16.1904 71.5197 16.2324 71.4942C16.413 71.3845 16.4055 71.1204 16.2282 71.0055C16.1361 70.9458 16.1146 70.855 16.1337 70.747C16.1849 70.4571 16.2399 70.2018 16.251 69.9444C16.2738 69.4034 16.1652 68.8403 16.2788 68.3236C16.4471 67.5623 16.3331 66.7895 16.4656 66.0498C16.5918 65.3469 16.5965 64.6251 16.7995 63.9365C16.8154 63.8828 16.8221 63.8205 16.8549 63.7794C16.9797 63.6231 17.2384 63.5366 16.9993 63.2418C16.9324 63.1593 17.1659 62.8788 17.1464 62.7019C17.1116 62.3879 17.2765 62.147 17.3405 61.8714C17.4607 61.349 17.6691 60.8598 17.7363 60.3089C17.7993 59.7905 18.0288 59.2867 18.0805 58.7401C18.1163 58.3605 18.3147 57.9978 18.4233 57.6228C18.6181 56.9487 18.7105 56.2468 18.9686 55.5899C19.4966 54.2434 19.8931 52.8505 20.5493 51.545C20.8574 50.9322 21.179 50.3041 21.4096 49.6456C21.559 49.2183 21.8442 48.8513 22.0747 48.4816C22.609 47.6232 22.9717 46.6704 23.4573 45.7877C23.8895 45.0022 24.3413 44.2138 24.833 43.4641C25.1326 43.0074 25.472 42.5756 25.7929 42.1322C26.3583 41.351 26.8775 40.4409 27.5265 39.7276C27.8597 39.3609 28.2039 38.9955 28.4801 38.5868C29.0873 37.6891 29.9486 37.0349 30.6512 36.2322C30.8853 35.9649 31.0821 35.6747 31.4363 35.5598C31.521 35.5324 31.5556 35.4167 31.4978 35.349C31.4602 35.305 31.4698 35.2476 31.5107 35.2066C32.735 33.9799 33.9271 32.7105 35.2105 31.5414C35.8882 30.9239 36.5342 30.2674 37.2368 29.6824C38.3408 28.7628 39.48 27.8857 40.653 27.0476C42.7223 25.5692 44.9615 24.3969 47.2386 23.3065C48.8912 22.5151 50.6173 21.8735 52.3511 21.2557C53.9795 20.6757 55.6186 20.1304 57.2579 19.5862C57.8433 19.3917 58.4504 19.2625 59.0503 19.1141C59.5704 18.9853 60.0981 18.8856 60.6152 18.7468C61.1051 18.6153 61.6119 18.5924 62.1015 18.4132C62.4609 18.2817 62.8872 18.3844 63.2897 18.2287C63.6812 18.077 64.1539 18.1439 64.5574 18.0117C65.2822 17.7745 66.1075 17.6733 66.8473 17.4882C67.1001 17.425 67.3521 17.361 67.6082 17.3264C68.2618 17.2376 68.8878 17.0326 69.5242 16.9001C70.7018 16.6553 71.95 16.3791 73.1249 16.1217C73.3357 16.0755 73.5478 16.0356 73.7632 16.0136C74.0668 15.9824 74.368 15.9281 74.6694 15.8718C75.7987 15.6612 77.0276 15.7507 78.1453 15.4853C79.3819 15.1925 80.6271 15.3534 81.8676 15.3243C83.1015 15.2951 84.3371 15.3369 85.5707 15.3084C86.046 15.2975 86.4876 15.4101 86.9427 15.4926C87.8198 15.6518 88.8118 15.7569 89.6972 15.8605C89.7521 15.8669 89.8073 15.8706 89.863 15.8709C90.1996 15.8722 90.5765 15.904 90.8637 16.0567C91.455 16.371 92.1152 16.3704 92.73 16.5675C93.1226 16.6932 93.503 16.865 93.8983 16.9861C94.2988 17.1088 95.0788 17.1329 95.0445 17.5503C95.0418 17.5834 95.1753 17.6652 95.2412 17.6609C96.0839 17.6046 96.7415 18.0972 97.4798 18.3672C98.4226 18.7117 99.3564 19.0949 100.259 19.5083C101.346 20.0062 102.537 20.2613 103.539 20.9851C104.113 21.3991 104.845 21.5916 105.497 21.9C106.063 22.167 106.548 22.5807 107.087 22.8719C107.122 22.8908 107.155 22.9135 107.187 22.9389C107.739 23.3792 108.422 23.7257 109.001 24.1296C109.325 24.3559 109.657 24.5748 110.001 24.7686C111.25 25.4715 112.328 26.3861 113.345 27.3858C113.719 27.7538 114.197 28.0251 114.533 28.4207C115.604 29.6811 116.755 30.8802 117.669 32.2675C117.931 32.6643 118.16 33.0853 118.372 33.5113C118.682 34.1367 119.115 34.6856 119.352 35.3643C119.741 36.4783 120.165 37.5682 120.35 38.7487C120.471 39.5116 120.591 40.2791 120.731 41.0337C120.892 41.8946 120.852 42.737 120.86 43.586C120.867 44.2028 120.989 44.7779 121.177 45.3559C121.247 45.5725 121.211 45.8223 121.236 46.0555C121.255 46.2301 121.3 46.4017 121.323 46.5759C121.379 47.0009 121.54 47.4232 121.25 47.8452C121.197 47.9228 121.438 48.1725 121.399 48.2961C121.288 48.6389 121.301 49.0702 120.847 49.2309C120.665 49.2948 120.494 49.4174 120.347 49.5469C119.841 49.9941 119.347 50.4552 118.851 50.9136C118.795 50.965 118.705 51.0369 118.712 51.0902C118.759 51.4966 118.448 51.6 118.117 51.7467Z" fill="#DDA619"/>
</g>
<path d="M61.624 50.279C62.0269 50.279 62.4132 50.1203 62.6981 49.8378C62.983 49.5553 63.143 49.1721 63.143 48.7726C63.143 48.3731 62.983 47.9899 62.6981 47.7074C62.4132 47.4249 62.0269 47.2662 61.624 47.2662C61.2212 47.2662 60.8348 47.4249 60.5499 47.7074C60.2651 47.9899 60.105 48.3731 60.105 48.7726C60.105 49.1721 60.2651 49.5553 60.5499 49.8378C60.8348 50.1203 61.2212 50.279 61.624 50.279ZM69.1895 52.8041C69.1895 53.2036 69.0294 53.5868 68.7446 53.8693C68.4597 54.1518 68.0733 54.3105 67.6705 54.3105C67.2676 54.3105 66.8813 54.1518 66.5964 53.8693C66.3115 53.5868 66.1515 53.2036 66.1515 52.8041C66.1515 52.4046 66.3115 52.0214 66.5964 51.7389C66.8813 51.4564 67.2676 51.2977 67.6705 51.2977C68.0733 51.2977 68.4597 51.4564 68.7446 51.7389C69.0294 52.0214 69.1895 52.4046 69.1895 52.8041ZM61.6321 59.3597C62.0369 59.3597 62.4251 59.2003 62.7113 58.9164C62.9974 58.6326 63.1582 58.2477 63.1582 57.8463C63.1582 57.4449 62.9974 57.0599 62.7113 56.7761C62.4251 56.4923 62.0369 56.3328 61.6321 56.3328C61.2274 56.3328 60.8392 56.4923 60.553 56.7761C60.2668 57.0599 60.106 57.4449 60.106 57.8463C60.106 58.2477 60.2668 58.6326 60.553 58.9164C60.8392 59.2003 61.2274 59.3597 61.6321 59.3597ZM54.5117 40.1101C54.5117 37.9034 56.3304 36.0353 58.6368 36.1763C67.6735 36.7265 75.5986 39.7433 81.8067 45.6218C83.5685 47.2884 83.221 50.011 81.3941 51.4015C78.5513 53.5779 75.6894 55.7296 72.8086 57.8564V61.3629C72.8086 62.8078 71.6808 64.3858 69.7605 64.3858C69.3927 64.3858 69.0533 64.3253 68.7485 64.2245V64.3918C68.7485 65.8287 67.6187 67.3965 65.6943 67.3965C64.1621 67.3965 63.1521 66.395 62.7965 65.2805C61.6829 66.1068 60.4657 67.0056 59.3786 67.8076C57.3668 69.2929 54.5117 67.8681 54.5117 65.3873V40.1101ZM68.7465 61.3629C68.7465 61.8848 69.1427 62.3705 69.7605 62.3705C70.3803 62.3705 70.7765 61.8828 70.7765 61.3629V57.3445C70.7767 57.1857 70.8146 57.0291 70.8874 56.8876C70.9601 56.7461 71.0656 56.6237 71.1951 56.5303C72.7801 55.3897 75.4788 53.3563 77.8685 51.5446C72.3961 46.3775 64.725 43.3123 56.5438 43.2498V65.3873C56.5444 65.5738 56.5971 65.7564 56.6961 65.9149C56.7951 66.0734 56.9365 66.2016 57.1045 66.2851C57.2726 66.3687 57.4608 66.4043 57.6481 66.3881C57.8353 66.372 58.0144 66.3046 58.1654 66.1934C59.7626 65.0125 61.6464 63.622 63.0607 62.57C63.2116 62.4577 63.3911 62.3894 63.5791 62.3726C63.767 62.3558 63.9559 62.3912 64.1247 62.4749C64.2935 62.5586 64.4354 62.6872 64.5346 62.8464C64.6338 63.0056 64.6864 63.189 64.6864 63.3761V64.3918C64.6864 64.8876 65.0725 65.3833 65.6943 65.3833C65.8274 65.3865 65.9599 65.3633 66.0838 65.3148C66.2077 65.2664 66.3205 65.1938 66.4156 65.1014C66.5107 65.0089 66.5862 64.8985 66.6375 64.7766C66.6888 64.6547 66.715 64.5239 66.7144 64.3918V61.3629C66.7144 61.0956 66.8214 60.8394 67.012 60.6504C67.2025 60.4614 67.4609 60.3553 67.7304 60.3553C67.9999 60.3553 68.2583 60.4614 68.4489 60.6504C68.6394 60.8394 68.7465 61.0956 68.7465 61.3629ZM80.1546 49.8054C81.0995 49.086 81.1706 47.8043 80.4025 47.0768C74.5968 41.5812 67.1533 38.7135 58.5129 38.1855C57.4582 38.121 56.5438 38.9795 56.5438 40.1101V41.2346C65.3366 41.3011 73.6174 44.6343 79.5002 50.3032L80.1546 49.8054Z" fill="white"/>
<defs>
<filter id="filter0_d_30_85" x="0.630859" y="0.305908" width="166.143" height="145.531" filterUnits="userSpaceOnUse" color-interpolation-filters="sRGB">
<feFlood flood-opacity="0" result="BackgroundImageFix"/>
<feColorMatrix in="SourceAlpha" type="matrix" values="0 0 0 0 0 0 0 0 0 0 0 0 0 0 0 0 0 0 127 0" result="hardAlpha"/>
<feOffset dx="15" dy="15"/>
<feGaussianBlur stdDeviation="15"/>
<feComposite in2="hardAlpha" operator="out"/>
<feColorMatrix type="matrix" values="0 0 0 0 0.9875 0 0 0 0 0.788354 0 0 0 0 0.489635 0 0 0 0.3 0"/>
<feBlend mode="normal" in2="BackgroundImageFix" result="effect1_dropShadow_30_85"/>
<feBlend mode="normal" in="SourceGraphic" in2="effect1_dropShadow_30_85" result="shape"/>
</filter>
</defs>
</svg>
