<svg width="24" height="30" viewBox="0 0 24 30" fill="none" xmlns="http://www.w3.org/2000/svg">
<path fill-rule="evenodd" clip-rule="evenodd" d="M23.4138 23.9361C23.4138 28.8081 16.7326 29.3712 11.7084 29.3712L11.3488 29.3709C8.14781 29.3632 0 29.1611 0 23.9066C0 19.134 6.4127 18.4962 11.3987 18.4722L12.0679 18.4718C15.2687 18.4795 23.4138 18.6816 23.4138 23.9361ZM11.7084 20.6887C5.41 20.6887 2.21721 21.7706 2.21721 23.9066C2.21721 26.0617 5.41 27.154 11.7084 27.154C18.0052 27.154 21.1965 26.072 21.1965 23.9361C21.1965 21.781 18.0052 20.6887 11.7084 20.6887ZM11.7084 0C16.0363 0 19.5558 3.52093 19.5558 7.84893C19.5558 12.1769 16.0363 15.6964 11.7084 15.6964H11.6611C7.34193 15.6831 3.84317 12.1607 3.8579 7.84449C3.8579 3.52093 7.37888 0 11.7084 0ZM11.7084 2.11079C8.54365 2.11079 5.9687 4.68423 5.9687 7.84893C5.95839 11.0033 8.51409 13.5752 11.6655 13.5871L11.7084 14.6425V13.5871C14.8716 13.5871 17.445 11.0121 17.445 7.84893C17.445 4.68423 14.8716 2.11079 11.7084 2.11079Z" fill="#339710"/>
</svg>
