<svg width="46" height="31" viewBox="0 0 46 31" fill="none" xmlns="http://www.w3.org/2000/svg">
<path d="M8.3 29.3C11.7794 29.3 14.6 26.4793 14.6 23C14.6 19.5206 11.7794 16.7 8.3 16.7C4.82061 16.7 2 19.5206 2 23C2 26.4793 4.82061 29.3 8.3 29.3Z" stroke="white" stroke-width="2.5" stroke-linecap="round" stroke-linejoin="round"/>
<path d="M37.7 29.3C41.1794 29.3 44 26.4793 44 23C44 19.5206 41.1794 16.7 37.7 16.7C34.2206 16.7 31.4 19.5206 31.4 23C31.4 26.4793 34.2206 29.3 37.7 29.3Z" stroke="white" stroke-width="2.5" stroke-linecap="round" stroke-linejoin="round"/>
<path d="M13.55 18.8L21.95 10.4M13.55 18.8H24.05L32.45 10.4H10.4L13.55 18.8Z" stroke="white" stroke-width="2.5" stroke-linecap="round" stroke-linejoin="round"/>
<path d="M25.1 2H29.3L32.45 8.3L36.65 16.7" stroke="white" stroke-width="2.5" stroke-linecap="round" stroke-linejoin="round"/>
</svg>
