<svg width="35" height="35" viewBox="0 0 35 35" fill="none" xmlns="http://www.w3.org/2000/svg">
<path d="M0 0V2.91667H5.83333V14.5833C5.83333 17.6775 7.0625 20.645 9.25042 22.8329C11.4383 25.0208 14.4058 26.25 17.5 26.25C20.5942 26.25 23.5617 25.0208 25.7496 22.8329C27.9375 20.645 29.1667 17.6775 29.1667 14.5833V2.91667H35V0H0ZM26.25 14.5833C26.25 16.904 25.3281 19.1296 23.6872 20.7705C22.0462 22.4115 19.8206 23.3333 17.5 23.3333C15.1794 23.3333 12.9538 22.4115 11.3128 20.7705C9.67187 19.1296 8.75 16.904 8.75 14.5833V2.91667H16.0417V14.5833H18.9583V2.91667H26.25V14.5833Z" fill="white"/>
<path d="M10.2083 32.0834H13.1249V35H10.2083V32.0834Z" fill="white"/>
<path d="M4.375 29.1666H7.29167V32.0833H4.375V29.1666Z" fill="white"/>
<path d="M16.0417 29.1666H18.9584V32.0833H16.0417V29.1666Z" fill="white"/>
<path d="M21.875 32.0834H24.7917V35H21.875V32.0834Z" fill="white"/>
<path d="M27.7083 29.1666H30.6249V32.0833H27.7083V29.1666Z" fill="white"/>
</svg>
