<svg width="50" height="50" viewBox="0 0 50 50" fill="none" xmlns="http://www.w3.org/2000/svg">
<rect width="50" height="50" rx="25" fill="#DDA619"/>
<path d="M34.9479 19.359C34.8961 19.2398 34.8084 19.138 34.696 19.0663C34.5835 18.9947 34.4512 18.9564 34.3159 18.9564H31.7146C31.4021 18.4379 30.9687 17.9948 30.4478 17.6615C29.927 17.3282 29.3327 17.1136 28.7109 17.0344C28.0892 16.9551 27.4566 17.0133 26.8622 17.2045C26.2678 17.3957 25.7276 17.7147 25.2832 18.1368C24.8947 18.4981 24.5859 18.9299 24.375 19.4067C24.1641 19.8835 24.0554 20.3957 24.0553 20.9132V21.4087C20.7048 20.5508 18.4565 17.9247 18.433 17.8968C18.351 17.7991 18.2412 17.726 18.1168 17.6861C17.9924 17.6463 17.8586 17.6414 17.7313 17.672C17.6041 17.7027 17.4888 17.7676 17.3991 17.8591C17.3095 17.9505 17.2494 18.0646 17.2259 18.1877C16.8099 20.369 16.7644 23.4905 18.91 25.9744C19.5164 26.677 20.2505 27.2698 21.0773 27.7244C20.3062 28.7141 18.4941 29.2632 17.7639 29.4042C17.6426 29.4274 17.5302 29.4817 17.4386 29.561C17.3471 29.6404 17.2798 29.742 17.2441 29.8549C17.2083 29.9679 17.2053 30.088 17.2354 30.2024C17.2656 30.3168 17.3277 30.4213 17.4152 30.5047C17.4793 30.5657 19.0179 32 22.0031 32C25.0732 32 27.7027 30.9392 29.6073 28.9321C31.2335 27.2185 32.1917 24.8844 32.2599 22.4912L34.7996 20.0698C34.8953 19.9786 34.9605 19.8624 34.9869 19.7358C35.0133 19.6093 34.9997 19.4782 34.9479 19.359ZM31.096 21.7562C31.0325 21.8167 30.9821 21.8886 30.9478 21.9677C30.9134 22.0469 30.8957 22.1317 30.8957 22.2173C30.8957 24.3863 30.0564 26.5148 28.5929 28.057C26.9548 29.7832 24.676 30.6956 22.0031 30.6956C21.155 30.7058 20.3135 30.553 19.5287 30.2463C20.6894 29.809 22.1764 29.0016 22.652 27.641C22.7072 27.4813 22.6958 27.3075 22.6202 27.1556C22.5446 27.0037 22.4106 26.8853 22.246 26.8251C22.059 26.7565 17.9773 25.1905 18.3931 19.7439C19.598 20.8208 21.7923 22.4102 24.6269 22.8606C24.7249 22.8762 24.8252 22.8712 24.921 22.8461C25.0168 22.8209 25.1056 22.7762 25.1815 22.7149C25.2573 22.6537 25.3182 22.5775 25.3599 22.4916C25.4017 22.4056 25.4233 22.312 25.4233 22.2173V20.9131C25.4306 20.2176 25.726 19.553 26.2451 19.0643C26.7642 18.5756 27.465 18.3025 28.1945 18.3044C28.7209 18.3114 29.2342 18.4627 29.6728 18.7402C30.1115 19.0178 30.4571 19.4099 30.6683 19.8697C30.7216 19.9859 30.8092 20.0848 30.9205 20.1543C31.0318 20.2237 31.162 20.2608 31.295 20.2608H32.6645L31.096 21.7562Z" fill="white"/>
</svg>
